<?xml version="1.0" encoding="UTF-8" standalone="no"?>
<!-- Created with Inkscape (http://www.inkscape.org/) -->

<svg
   xmlns:dc="http://purl.org/dc/elements/1.1/"
   xmlns:cc="http://creativecommons.org/ns#"
   xmlns:rdf="http://www.w3.org/1999/02/22-rdf-syntax-ns#"
   xmlns:svg="http://www.w3.org/2000/svg"
   xmlns="http://www.w3.org/2000/svg"
   xmlns:sodipodi="http://sodipodi.sourceforge.net/DTD/sodipodi-0.dtd"
   xmlns:inkscape="http://www.inkscape.org/namespaces/inkscape"
   width="792pt"
   height="612pt"
   id="svg2"
   sodipodi:version="0.32"
   inkscape:version="0.48.2 r9819"
   sodipodi:docname="logo-bird-monochrome.svg"
   version="1.0"
   inkscape:export-filename="/home/eduardo/workspace/logo/logo-bird-monochrome.png"
   inkscape:export-xdpi="299.92288"
   inkscape:export-ydpi="299.92288">
  <defs
     id="defs4">
    <inkscape:perspective
       sodipodi:type="inkscape:persp3d"
       inkscape:vp_x="0 : 382.5 : 1"
       inkscape:vp_y="0 : 1000 : 0"
       inkscape:vp_z="990 : 382.5 : 1"
       inkscape:persp3d-origin="495 : 255 : 1"
       id="perspective31" />
    <linearGradient
       id="linearGradient3038">
      <stop
         style="stop-color:#757769;stop-opacity:1;"
         offset="0"
         id="stop3040" />
      <stop
         style="stop-color:#fff8cb;stop-opacity:1;"
         offset="1"
         id="stop3042" />
    </linearGradient>
    <linearGradient
       id="linearGradient3038-2">
      <stop
         style="stop-color:#757769;stop-opacity:1;"
         offset="0"
         id="stop3040-7" />
      <stop
         style="stop-color:#fff8cb;stop-opacity:1;"
         offset="1"
         id="stop3042-0" />
    </linearGradient>
    <filter
       id="filter3032"
       inkscape:label="Drop shadow"
       width="1.5"
       height="1.5"
       x="-.25"
       y="-.25">
      <feGaussianBlur
         id="feGaussianBlur3034"
         in="SourceAlpha"
         stdDeviation="2"
         result="blur" />
      <feColorMatrix
         id="feColorMatrix3036"
         result="bluralpha"
         type="matrix"
         values="1 0 0 0 0 0 1 0 0 0 0 0 1 0 0 0 0 0 0.5 0 " />
      <feOffset
         id="feOffset3038"
         in="bluralpha"
         dx="4"
         dy="4"
         result="offsetBlur" />
      <feMerge
         id="feMerge3040">
        <feMergeNode
           id="feMergeNode3042"
           in="offsetBlur" />
        <feMergeNode
           id="feMergeNode3044"
           in="SourceGraphic" />
      </feMerge>
    </filter>
  </defs>
  <sodipodi:namedview
     id="base"
     pagecolor="#ffffff"
     bordercolor="#666666"
     borderopacity="1.0"
     inkscape:pageopacity="1"
     inkscape:pageshadow="2"
     inkscape:zoom="0.50976565"
     inkscape:cx="508.41152"
     inkscape:cy="194.28379"
     inkscape:document-units="px"
     inkscape:current-layer="layer1"
     inkscape:window-width="1366"
     inkscape:window-height="744"
     inkscape:window-x="0"
     inkscape:window-y="24"
     showgrid="false"
     inkscape:window-maximized="1"
     inkscape:object-nodes="true"
     inkscape:object-paths="true"
     inkscape:snap-intersection-paths="false"
     inkscape:snap-smooth-nodes="false"
     inkscape:snap-nodes="false" />
  <metadata
     id="metadata7">
    <rdf:RDF>
      <cc:Work
         rdf:about="">
        <dc:format>image/svg+xml</dc:format>
        <dc:type
           rdf:resource="http://purl.org/dc/dcmitype/StillImage" />
        <dc:title></dc:title>
      </cc:Work>
    </rdf:RDF>
  </metadata>
  <g
     inkscape:label="Layer 1"
     inkscape:groupmode="layer"
     id="layer1">
    <g
       id="g3014"
       style="filter:url(#filter3032)"
       transform="translate(3.9233714,96.1226)">
      <path
         sodipodi:nodetypes="cccccccc"
         inkscape:connector-curvature="0"
         id="Body"
         d="m 649.18179,314.31608 c 9.97262,-30.303 11.8236,-52.68672 11.94803,-83.92696 -0.98503,-31.43442 2.88279,-63.60709 -0.88291,-94.74938 -12.15776,-28.65527 -45.69575,-32.11954 -70.718,-29.77239 -34.68037,6.12661 -55.75947,40.61448 -78.74654,66.63506 -21.16501,27.52307 -44.25462,53.04362 -68.39009,77.22324 -80.67956,113.61299 -104.43576,148.34253 -92.64837,151.85734 142.72358,25.16991 252.78272,44.12888 299.43788,-87.26691 z"
         style="fill:#ffffff;fill-opacity:1;stroke:#1a1a1a;stroke-width:6;stroke-miterlimit:4;stroke-opacity:1;stroke-dasharray:none" />
      <path
         sodipodi:nodetypes="cccc"
         inkscape:connector-curvature="0"
         id="HeadStripe"
         d="m 658.95616,129.34701 c -16.44153,-23.57954 -60.17438,-35.340324 -93.71798,-13.52343 27.80843,-5.50338 61.35872,0.57466 79.13224,22.75678 5.43705,-3.8011 8.90377,-5.74373 14.58574,-9.23335 z"
         style="fill:#1a1a1a;stroke:none" />
      <path
         sodipodi:nodetypes="cccccccccc"
         inkscape:connector-curvature="0"
         id="EyeMask"
         d="m 496.71983,190.0658 c 12.44771,-14.03035 23.5396,-29.48812 35.9219,-43.57111 9.01726,-8.93081 17.31529,-18.82324 27.20207,-26.60419 14.65014,-3.78725 34.69033,-1.17484 49.14373,6.35176 10.70395,6.00143 15.93638,12.05401 22.51132,23.38597 -8.07238,1.61459 -14.57394,7.82494 -21.60582,12.17131 -17.04742,11.69351 -33.76255,24.38788 -52.38638,32.79656 -13.18199,4.58215 -27.15949,-2.49692 -36.69183,-12.61964 -3.70513,-4.26818 -9.09255,-2.15691 -13.1072,0.22206 -3.88952,2.20559 -7.37955,5.15612 -10.98779,7.86728 z"
         style="fill:#1a1a1a;fill-opacity:1;stroke-width:6;stroke-miterlimit:4;stroke-dasharray:none" />
      <path
         inkscape:connector-curvature="0"
         style="fill:#1a1a1a;fill-opacity:1;stroke:none"
         d="m 655.86177,291.73487 c 3.62266,-14.57608 5.97927,-43.91206 5.11196,-47.48871 -22.30586,1.19103 -80.79739,-17.23305 -101.82863,-28.26337 29.82671,29.72504 26.4485,24.27214 33.4536,43.22487 6.80144,9.2588 -7.02994,24.70784 -8.02492,35.00472 28.70629,29.00924 61.02641,34.75775 71.28799,-2.47751 z"
         id="Chest"
         sodipodi:nodetypes="cccccc"
         inkscape:label="#path1343" />
      <path
         inkscape:connector-curvature="0"
         style="fill:#1a1a1a;fill-opacity:1;stroke:none"
         d="m 453.73692,318.3966 c -67.45154,32.38359 -98.37743,133.50082 -195.63467,133.82348 -0.73604,-3.541 59.45241,-53.97362 80.9914,-71.49097 16.95015,-13.76377 33.09595,-37.32966 33.36363,-44.41891 10.79616,-4.58388 68.65596,-18.30589 81.27964,-17.9136 z"
         id="TailUpper"
         sodipodi:nodetypes="ccccc"
         inkscape:label="#Tail" />
      <g
         style="stroke-width:11.66748524;stroke-miterlimit:4;stroke-dasharray:none"
         transform="matrix(-0.48650927,0,0,0.54357171,670.44698,124.16983)"
         id="Beak"
         inkscape:label="#g2532">
        <path
           inkscape:connector-curvature="0"
           inkscape:label="#path2513"
           sodipodi:nodetypes="cccsc"
           id="BeakLower"
           d="m 104.97095,57.474269 c -36.118172,7.238325 -54.418214,7.429334 -84.595356,6.431724 -24.4628554,-15.640466 -42.777422,-30.94228 -56.4453,-48.063633 10.281628,0.444306 26.4461767,3.734805 50.502015,10.038875 24.055838,6.30407 52.977576,14.808728 90.538641,31.593034 z"
           style="fill:#1e211e;stroke-width:11.66748524;stroke-miterlimit:4;stroke-dasharray:none" />
        <path
           inkscape:connector-curvature="0"
           inkscape:label="#path2530"
           style="fill:#ffffff;fill-opacity:1;stroke:#1a1a1a;stroke-width:3.88916183;stroke-miterlimit:4;stroke-opacity:1;stroke-dasharray:none"
           d="M 104.97095,57.474269 C 53.5993,26.510806 53.5993,26.510806 23.618916,9.5243578 -5.3967576,8.4537588 -14.165207,12.391112 -35.86397,15.827093 c 27.2767542,4.0602 37.9734886,6.630202 53.795158,11.349642 26.877505,8.017281 45.17643,13.066709 87.039762,30.297534 z"
           id="BeakUpper"
           sodipodi:nodetypes="cccsc" />
      </g>
      <path
         sodipodi:type="arc"
         style="fill:#ffffff;fill-opacity:1;stroke:none"
         id="path2541"
         sodipodi:cx="178.39285"
         sodipodi:cy="38.612183"
         sodipodi:rx="23.75"
         sodipodi:ry="22.678572"
         d="m 202.14285,38.612183 c 0,12.525029 -10.63323,22.678571 -23.75,22.678571 -13.11676,0 -23.75,-10.153542 -23.75,-22.678571 0,-12.52503 10.63324,-22.678572 23.75,-22.678572 13.11677,0 23.75,10.153542 23.75,22.678572 z"
         transform="matrix(-0.53480293,0,0,0.54357171,683.163,123.19917)" />
      <path
         inkscape:connector-curvature="0"
         id="path2543"
         d="m 587.83085,134.92179 c -5.01275,0 -9.04384,4.05926 -9.04384,9.077 0,5.01773 4.03109,9.07699 9.04384,9.07699 5.01274,0 9.09492,-4.05926 9.09492,-9.07699 0,-5.01774 -4.08218,-9.077 -9.09492,-9.077 z"
         style="fill:#000000;fill-opacity:1;stroke:none" />
      <path
         sodipodi:nodetypes="ccccccccc"
         inkscape:connector-curvature="0"
         id="WingBackground"
         d="m 561.17182,217.22052 c 17.04236,12.12707 34.28687,30.30453 34.15771,53.41216 -2.55806,23.85244 -17.06672,35.67863 -45.58108,45.78679 -19.5927,9.89723 -47.59321,17.19261 -77.02441,25.39474 -47.55174,14.96359 -91.17363,21.12714 -137.93144,32.58157 -26.2954,3.00262 7.0306,-35.73066 14.46294,-46.30704 26.72961,-41.62824 61.06031,-78.44605 102.91239,-103.11722 25.98864,-16.16817 57.62227,-26.75021 87.59349,-17.45964 7.51812,2.16701 14.76808,5.40438 21.4104,9.70864 z"
         style="fill:#1a1a1a;fill-opacity:1;stroke-width:6;stroke-miterlimit:4;stroke-dasharray:none" />
      <path
         style="fill:#ffffff;stroke:none"
         d="m 331.99339,368.64421 c 22.54861,-13.92622 31.05908,-18.78349 54.83444,-29.70263 -6.46177,4.47839 -14.41902,6.81483 -25.30839,17.58473 9.7251,-2.26566 17.45136,-7.31516 40.49312,-11.78353 11.52088,-2.23418 -1.14903,2.11678 -5.5536,5.20285 26.15656,-2.57604 65.57809,-14.137 67.945,-13.72181 -19.58139,-50.93405 -99.86227,-2.151 -132.41057,32.42039 z"
         id="WingTip"
         sodipodi:nodetypes="cccsccc"
         inkscape:label="#path1347"
         inkscape:connector-curvature="0" />
      <path
         style="fill:#ffffff;fill-opacity:1;fill-rule:evenodd;stroke:none"
         d="M 550.80366,268.57063 C 447.3204,297.23682 421.49159,284.04034 327.02057,368.77963 455.4682,190.54114 565.07773,250.55123 550.80366,268.57063 z"
         id="WingStripe"
         inkscape:connector-curvature="0"
         sodipodi:nodetypes="ccc" />
      <path
         inkscape:connector-curvature="0"
         d="m 574.63524,107.12591 c 8.99701,-3.9627 18.40177,-6.6744 27.67379,-9.70368 13.70536,-4.635993 27.61434,-8.342385 41.637,-11.539962 5.08247,-1.151176 10.17779,-2.274054 15.35841,-2.665757 1.26997,-0.07333 2.54557,-0.127055 3.81706,-0.06241 0.43907,0.01815 0.87848,0.01864 1.31778,0.01609 0.25334,-0.0076 0.50632,-0.0076 0.75965,-0.0049 1.36,0.04642 2.72087,0.04517 4.08137,0.04718 1.66176,0.0049 3.32346,-0.0049 4.98519,-0.01283 1.5458,-0.198224 2.17497,0.152662 3.5033,0.91201 1.52443,0.891865 2.87203,1.957636 4.08774,3.319011 1.28969,1.472742 2.36139,3.176677 3.15435,5.0353 0.51602,1.004532 0.51713,2.164813 0.75256,3.252212 0.17946,0.747552 0.60214,1.235538 1.15534,1.672124 0.9694,0.584883 2.00419,0.855136 3.08795,1.056937 0.17427,0.02674 0.34853,0.05354 0.5228,0.08031 0,0 -9.8786,7.731815 -9.8786,7.731815 l 0,0 c -0.17499,-0.0413 -0.34999,-0.0825 -0.52499,-0.12357 -1.2117,-0.32137 -2.4165,-0.73979 -3.44179,-1.55757 -0.67064,-0.65187 -1.24664,-1.37724 -1.51535,-2.34325 -0.338,-1.01437 -0.16158,-2.16825 -0.62411,-3.162734 -0.68254,-1.74193 -1.68168,-3.301649 -2.90215,-4.627768 -1.16239,-1.226755 -2.48251,-2.15024 -3.92579,-2.920839 -1.03071,-0.521971 -2.06352,-0.446528 -3.1822,-0.42472 -1.65128,-0.0076 -3.30254,-0.01761 -4.95384,-0.01266 -1.39949,0.0027 -2.7993,0.0027 -4.19831,0.04794 -0.25324,0.0011 -0.50599,0.0027 -0.7591,-0.01141 -0.4461,-0.01267 -0.892,-0.0274 -1.3376,-0.05531 -1.18611,-0.05289 -2.37334,-0.03479 -3.55884,0.03376 -4.93416,0.359784 -9.81066,1.302734 -14.66984,2.297297 -13.87612,2.944653 -27.59633,6.615574 -41.11042,11.234184 -9.6696,3.26042 -19.48139,6.26188 -28.74238,10.82183 0,0 9.43102,-8.32769 9.43102,-8.32769 z"
         id="path3153-7"
         style="fill:#000000;fill-opacity:0;stroke-width:6;stroke-miterlimit:4;stroke-dasharray:none" />
      <path
         inkscape:connector-curvature="0"
         style="fill:#1a1a1a;stroke-width:6;stroke-miterlimit:4;stroke-dasharray:none"
         d="m 661.40896,230.31018 c 0.13749,-12.92684 0.967,-46.01572 0.63822,-49.73902 -11.61035,2.41395 -33.14076,-0.69293 -41.14735,-4.27973 -7.11339,3.83808 -34.13248,33.96248 -33.93515,38.28667 25.13211,9.06086 47.22925,15.36861 74.44428,15.73208 z"
         id="Beard"
         sodipodi:nodetypes="ccccc"
         inkscape:label="#path2505" />
      <path
         transform="matrix(0.90835713,0,0,1.0148979,31.343575,-88.240721)"
         d="m 619.99312,225.53574 c 0,2.18934 -1.97764,3.96415 -4.41719,3.96415 -2.43955,0 -4.4172,-1.77481 -4.4172,-3.96415 0,-2.18934 1.97765,-3.96415 4.4172,-3.96415 2.43955,0 4.41719,1.77481 4.41719,3.96415 z"
         sodipodi:ry="3.9641507"
         sodipodi:rx="4.4171963"
         sodipodi:cy="225.53574"
         sodipodi:cx="615.57593"
         id="path3010"
         style="fill:#ffffff;fill-opacity:1;fill-rule:nonzero;stroke-width:6.24901772;stroke-miterlimit:4;stroke-dasharray:none"
         sodipodi:type="arc" />
    </g>
  </g>
</svg>
