<?xml version="1.0" encoding="UTF-8" standalone="no"?>
<!-- Created with Inkscape (http://www.inkscape.org/) -->

<svg
   xmlns:dc="http://purl.org/dc/elements/1.1/"
   xmlns:cc="http://creativecommons.org/ns#"
   xmlns:rdf="http://www.w3.org/1999/02/22-rdf-syntax-ns#"
   xmlns:svg="http://www.w3.org/2000/svg"
   xmlns="http://www.w3.org/2000/svg"
   xmlns:xlink="http://www.w3.org/1999/xlink"
   xmlns:sodipodi="http://sodipodi.sourceforge.net/DTD/sodipodi-0.dtd"
   xmlns:inkscape="http://www.inkscape.org/namespaces/inkscape"
   width="700"
   height="700"
   id="svg2"
   sodipodi:version="0.32"
   inkscape:version="0.47 r22583"
   sodipodi:docname="logo-for-scala.svg"
   version="1.0"
   inkscape:export-filename="/home/eduardo/workspace/logo/logo-bird-monochrome.png"
   inkscape:export-xdpi="299.92288"
   inkscape:export-ydpi="299.92288">
  <defs
     id="defs4">
    <inkscape:perspective
       sodipodi:type="inkscape:persp3d"
       inkscape:vp_x="0 : 382.5 : 1"
       inkscape:vp_y="0 : 1000 : 0"
       inkscape:vp_z="990 : 382.5 : 1"
       inkscape:persp3d-origin="495 : 255 : 1"
       id="perspective31" />
    <linearGradient
       id="linearGradient3038">
      <stop
         style="stop-color:#757769;stop-opacity:1;"
         offset="0"
         id="stop3040" />
      <stop
         style="stop-color:#fff8cb;stop-opacity:1;"
         offset="1"
         id="stop3042" />
    </linearGradient>
    <linearGradient
       id="linearGradient3038-2">
      <stop
         style="stop-color:#757769;stop-opacity:1;"
         offset="0"
         id="stop3040-7" />
      <stop
         style="stop-color:#fff8cb;stop-opacity:1;"
         offset="1"
         id="stop3042-0" />
    </linearGradient>
    <filter
       id="filter3032"
       inkscape:label="Drop shadow"
       width="1.5"
       height="1.5"
       x="-0.25"
       y="-0.25"
       color-interpolation-filters="sRGB">
      <feGaussianBlur
         id="feGaussianBlur3034"
         in="SourceAlpha"
         stdDeviation="2"
         result="blur" />
      <feColorMatrix
         id="feColorMatrix3036"
         result="bluralpha"
         type="matrix"
         values="1 0 0 0 0 0 1 0 0 0 0 0 1 0 0 0 0 0 0.5 0 " />
      <feOffset
         id="feOffset3038"
         in="bluralpha"
         dx="4"
         dy="4"
         result="offsetBlur" />
      <feMerge
         id="feMerge3040">
        <feMergeNode
           id="feMergeNode3042"
           in="offsetBlur" />
        <feMergeNode
           id="feMergeNode3044"
           in="SourceGraphic" />
      </feMerge>
    </filter>
    <inkscape:perspective
       id="perspective3964"
       inkscape:persp3d-origin="0.5 : 0.33333333 : 1"
       inkscape:vp_z="1 : 0.5 : 1"
       inkscape:vp_y="0 : 1000 : 0"
       inkscape:vp_x="0 : 0.5 : 1"
       sodipodi:type="inkscape:persp3d" />
    <filter
       inkscape:collect="always"
       id="filter3716"
       color-interpolation-filters="sRGB">
      <feGaussianBlur
         inkscape:collect="always"
         stdDeviation="2.0900001"
         id="feGaussianBlur3718" />
    </filter>
    <radialGradient
       inkscape:collect="always"
       xlink:href="#linearGradient3665"
       id="radialGradient3742"
       gradientUnits="userSpaceOnUse"
       gradientTransform="matrix(-2.9642629,-0.03482784,0.0304569,-2.5922402,1373.3145,1700.2288)"
       cx="352.53333"
       cy="449.38824"
       fx="352.53333"
       fy="449.38824"
       r="98.5" />
    <linearGradient
       id="linearGradient3665">
      <stop
         style="stop-color:#666666;stop-opacity:1;"
         offset="0"
         id="stop3667" />
      <stop
         style="stop-color:#bebebe;stop-opacity:1;"
         offset="1"
         id="stop3669" />
    </linearGradient>
    <radialGradient
       inkscape:collect="always"
       xlink:href="#linearGradient3665"
       id="radialGradient3738"
       gradientUnits="userSpaceOnUse"
       gradientTransform="matrix(-2.9642629,-0.03482784,0.0304569,-2.5922402,1373.3145,1700.2288)"
       cx="352.53333"
       cy="449.38824"
       fx="352.53333"
       fy="449.38824"
       r="98.5" />
    <linearGradient
       id="linearGradient3975">
      <stop
         style="stop-color:#666666;stop-opacity:1;"
         offset="0"
         id="stop3977" />
      <stop
         style="stop-color:#bebebe;stop-opacity:1;"
         offset="1"
         id="stop3979" />
    </linearGradient>
    <radialGradient
       inkscape:collect="always"
       xlink:href="#linearGradient3665"
       id="radialGradient3740"
       gradientUnits="userSpaceOnUse"
       gradientTransform="matrix(-2.9642629,-0.03482784,0.0304569,-2.5922402,1373.3145,1700.2288)"
       cx="352.53333"
       cy="449.38824"
       fx="352.53333"
       fy="449.38824"
       r="98.5" />
    <linearGradient
       id="linearGradient3982">
      <stop
         style="stop-color:#666666;stop-opacity:1;"
         offset="0"
         id="stop3984" />
      <stop
         style="stop-color:#bebebe;stop-opacity:1;"
         offset="1"
         id="stop3986" />
    </linearGradient>
    <radialGradient
       inkscape:collect="always"
       xlink:href="#linearGradient3651"
       id="radialGradient3750"
       gradientUnits="userSpaceOnUse"
       gradientTransform="matrix(2.843628,-2.4414848e-7,5.2995657e-6,2.4716142,-365.05831,-758.68731)"
       cx="192.37944"
       cy="517.69794"
       fx="192.37944"
       fy="517.69794"
       r="98.5" />
    <linearGradient
       id="linearGradient3651">
      <stop
         style="stop-color:#aa0000;stop-opacity:1;"
         offset="0"
         id="stop3653" />
      <stop
         style="stop-color:#ff4848;stop-opacity:1;"
         offset="1"
         id="stop3655" />
    </linearGradient>
    <radialGradient
       inkscape:collect="always"
       xlink:href="#linearGradient3651"
       id="radialGradient3744"
       gradientUnits="userSpaceOnUse"
       gradientTransform="matrix(2.843628,-2.4414848e-7,5.2995657e-6,2.4716142,-365.05831,-758.68731)"
       cx="192.37944"
       cy="517.69794"
       fx="192.37944"
       fy="517.69794"
       r="98.5" />
    <linearGradient
       id="linearGradient3993">
      <stop
         style="stop-color:#aa0000;stop-opacity:1;"
         offset="0"
         id="stop3995" />
      <stop
         style="stop-color:#ff4848;stop-opacity:1;"
         offset="1"
         id="stop3997" />
    </linearGradient>
    <radialGradient
       inkscape:collect="always"
       xlink:href="#linearGradient3651"
       id="radialGradient3746"
       gradientUnits="userSpaceOnUse"
       gradientTransform="matrix(2.843628,-2.4414848e-7,5.2995657e-6,2.4716142,-365.05831,-758.68731)"
       cx="192.37944"
       cy="517.69794"
       fx="192.37944"
       fy="517.69794"
       r="98.5" />
    <linearGradient
       id="linearGradient4000">
      <stop
         style="stop-color:#aa0000;stop-opacity:1;"
         offset="0"
         id="stop4002" />
      <stop
         style="stop-color:#ff4848;stop-opacity:1;"
         offset="1"
         id="stop4004" />
    </linearGradient>
    <radialGradient
       inkscape:collect="always"
       xlink:href="#linearGradient3651"
       id="radialGradient3748"
       gradientUnits="userSpaceOnUse"
       gradientTransform="matrix(2.843628,-2.4414848e-7,5.2995657e-6,2.4716142,-365.05831,-758.68731)"
       cx="192.37944"
       cy="517.69794"
       fx="192.37944"
       fy="517.69794"
       r="98.5" />
    <linearGradient
       id="linearGradient4007">
      <stop
         style="stop-color:#aa0000;stop-opacity:1;"
         offset="0"
         id="stop4009" />
      <stop
         style="stop-color:#ff4848;stop-opacity:1;"
         offset="1"
         id="stop4011" />
    </linearGradient>
  </defs>
  <sodipodi:namedview
     id="base"
     pagecolor="#ffffff"
     bordercolor="#666666"
     borderopacity="1.0"
     inkscape:pageopacity="1"
     inkscape:pageshadow="2"
     inkscape:zoom="0.60950387"
     inkscape:cx="473.66924"
     inkscape:cy="347.64841"
     inkscape:document-units="px"
     inkscape:current-layer="layer1"
     inkscape:window-width="1280"
     inkscape:window-height="724"
     inkscape:window-x="0"
     inkscape:window-y="51"
     showgrid="false"
     inkscape:window-maximized="1"
     inkscape:object-nodes="true"
     inkscape:object-paths="true"
     inkscape:snap-intersection-paths="false"
     inkscape:snap-smooth-nodes="false"
     inkscape:snap-nodes="false"
     width="700px" />
  <metadata
     id="metadata7">
    <rdf:RDF>
      <cc:Work
         rdf:about="">
        <dc:format>image/svg+xml</dc:format>
        <dc:type
           rdf:resource="http://purl.org/dc/dcmitype/StillImage" />
        <dc:title></dc:title>
      </cc:Work>
    </rdf:RDF>
  </metadata>
  <g
     inkscape:label="Layer 1"
     inkscape:groupmode="layer"
     id="layer1"
     transform="translate(-21.330756,30.807741)">
    <path
       style="fill:#ffffff;fill-opacity:1;stroke:#1a1a1a;stroke-width:6;stroke-miterlimit:4;stroke-opacity:1;stroke-dasharray:none;filter:url(#filter3032)"
       d="m 530.52548,305.29326 c 9.97262,-30.303 11.8236,-52.68672 11.94803,-83.92696 -0.98503,-31.43442 2.88279,-63.60709 -0.88291,-94.74938 -12.15776,-28.655268 -45.69575,-32.119538 -70.718,-29.772388 -34.68037,6.126608 -55.75947,40.614478 -78.74654,66.635058 -21.16501,27.52307 -44.25462,53.04362 -68.39009,77.22324 -80.67956,113.61299 -104.43576,148.34253 -92.64837,151.85734 142.72358,25.16991 252.78272,44.12888 299.43788,-87.26691 z"
       id="Body"
       inkscape:connector-curvature="0"
       sodipodi:nodetypes="cccccccc" />
    <path
       style="fill:#1a1a1a;stroke:none;filter:url(#filter3032)"
       d="m 540.29985,120.32419 c -16.44153,-23.579538 -60.17438,-35.340322 -93.71798,-13.52343 27.80843,-5.50338 61.35872,0.57466 79.13224,22.75678 5.43705,-3.8011 8.90377,-5.74373 14.58574,-9.23335 z"
       id="HeadStripe"
       inkscape:connector-curvature="0"
       sodipodi:nodetypes="cccc" />
    <path
       style="fill:#1a1a1a;fill-opacity:1;stroke-width:6;stroke-miterlimit:4;stroke-dasharray:none;filter:url(#filter3032)"
       d="m 378.06352,181.04298 c 12.44771,-14.03035 23.5396,-29.48812 35.9219,-43.57111 9.01726,-8.93081 17.31529,-18.82324 27.20207,-26.60419 14.65014,-3.78725 34.69033,-1.17484 49.14373,6.35176 10.70395,6.00143 15.93638,12.05401 22.51132,23.38597 -8.07238,1.61459 -14.57394,7.82494 -21.60582,12.17131 -17.04742,11.69351 -33.76255,24.38788 -52.38638,32.79656 -13.18199,4.58215 -27.15949,-2.49692 -36.69183,-12.61964 -3.70513,-4.26818 -9.09255,-2.15691 -13.1072,0.22206 -3.88952,2.20559 -7.37955,5.15612 -10.98779,7.86728 z"
       id="EyeMask"
       inkscape:connector-curvature="0"
       sodipodi:nodetypes="cccccccccc" />
    <path
       inkscape:label="#path1343"
       sodipodi:nodetypes="cccccc"
       id="Chest"
       d="m 537.20546,282.71205 c 3.62266,-14.57608 5.97927,-43.91206 5.11196,-47.48871 -22.30586,1.19103 -80.79739,-17.23305 -101.82863,-28.26337 29.82671,29.72504 26.4485,24.27214 33.4536,43.22487 6.80144,9.2588 -7.02994,24.70784 -8.02492,35.00472 28.70629,29.00924 61.02641,34.75775 71.28799,-2.47751 z"
       style="fill:#1a1a1a;fill-opacity:1;stroke:none;filter:url(#filter3032)"
       inkscape:connector-curvature="0" />
    <path
       inkscape:label="#Tail"
       sodipodi:nodetypes="ccccc"
       id="TailUpper"
       d="m 335.08061,309.37378 c -67.45154,32.38359 -98.37743,133.50082 -195.63467,133.82348 -0.73604,-3.541 59.45241,-53.97362 80.9914,-71.49097 16.95015,-13.76377 33.09595,-37.32966 33.36363,-44.41891 10.79616,-4.58388 68.65596,-18.30589 81.27964,-17.9136 z"
       style="fill:#1a1a1a;fill-opacity:1;stroke:none;filter:url(#filter3032)"
       inkscape:connector-curvature="0" />
    <g
       inkscape:label="#g2532"
       id="Beak"
       transform="matrix(-0.48650927,0,0,0.54357171,551.79067,115.14701)"
       style="stroke-width:11.66748524;stroke-miterlimit:4;stroke-dasharray:none;filter:url(#filter3032)">
      <path
         style="fill:#1e211e;stroke-width:11.66748524;stroke-miterlimit:4;stroke-dasharray:none"
         d="m 104.97095,57.474269 c -36.118172,7.238325 -54.418214,7.429334 -84.595356,6.431724 -24.4628554,-15.640466 -42.777422,-30.94228 -56.4453,-48.063633 10.281628,0.444306 26.4461767,3.734805 50.502015,10.038875 24.055838,6.30407 52.977576,14.808728 90.538641,31.593034 z"
         id="BeakLower"
         sodipodi:nodetypes="cccsc"
         inkscape:label="#path2513"
         inkscape:connector-curvature="0" />
      <path
         sodipodi:nodetypes="cccsc"
         id="BeakUpper"
         d="M 104.97095,57.474269 C 53.5993,26.510806 53.5993,26.510806 23.618916,9.5243578 -5.3967576,8.4537588 -14.165207,12.391112 -35.86397,15.827093 c 27.2767542,4.0602 37.9734886,6.630202 53.795158,11.349642 26.877505,8.017281 45.17643,13.066709 87.039762,30.297534 z"
         style="fill:#ffffff;fill-opacity:1;stroke:#1a1a1a;stroke-width:3.88916183;stroke-miterlimit:4;stroke-opacity:1;stroke-dasharray:none"
         inkscape:label="#path2530"
         inkscape:connector-curvature="0" />
    </g>
    <path
       transform="matrix(-0.53480293,0,0,0.54357171,564.50669,114.17635)"
       d="m 202.14285,38.612183 c 0,12.525029 -10.63323,22.678571 -23.75,22.678571 -13.11676,0 -23.75,-10.153542 -23.75,-22.678571 0,-12.52503 10.63324,-22.678572 23.75,-22.678572 13.11677,0 23.75,10.153542 23.75,22.678572 z"
       sodipodi:ry="22.678572"
       sodipodi:rx="23.75"
       sodipodi:cy="38.612183"
       sodipodi:cx="178.39285"
       id="path2541"
       style="fill:#ffffff;fill-opacity:1;stroke:none;filter:url(#filter3032)"
       sodipodi:type="arc" />
    <path
       style="fill:#000000;fill-opacity:1;stroke:none;filter:url(#filter3032)"
       d="m 469.17454,125.89897 c -5.01275,0 -9.04384,4.05926 -9.04384,9.077 0,5.01773 4.03109,9.07699 9.04384,9.07699 5.01274,0 9.09492,-4.05926 9.09492,-9.07699 0,-5.01774 -4.08218,-9.077 -9.09492,-9.077 z"
       id="path2543"
       inkscape:connector-curvature="0" />
    <path
       style="fill:#1a1a1a;fill-opacity:1;filter:url(#filter3032);"
       d="m 442.51551,208.1977 c 17.04236,12.12707 34.28687,30.30453 34.15771,53.41216 -2.55806,23.85244 -17.06672,35.67863 -45.58108,45.78679 -19.5927,9.89723 -47.59321,17.19261 -77.02441,25.39474 -47.55174,14.96359 -91.17363,21.12714 -137.93144,32.58157 -26.2954,3.00262 7.0306,-35.73066 14.46294,-46.30704 26.72961,-41.62824 61.06031,-78.44605 102.91239,-103.11722 25.98864,-16.16817 57.62227,-26.75021 87.59349,-17.45964 7.51812,2.16701 14.76808,5.40438 21.4104,9.70864 z"
       id="WingBackground"
       inkscape:connector-curvature="0"
       sodipodi:nodetypes="ccccccccc" />
    <path
       inkscape:connector-curvature="0"
       inkscape:label="#path1347"
       sodipodi:nodetypes="cccsccc"
       id="WingTip"
       d="m 213.33708,359.62139 c 22.54861,-13.92622 31.05908,-18.78349 54.83444,-29.70263 -6.46177,4.47839 -14.41902,6.81483 -25.30839,17.58473 9.7251,-2.26566 17.45136,-7.31516 40.49312,-11.78353 11.52088,-2.23418 -1.14903,2.11678 -5.5536,5.20285 26.15656,-2.57604 65.57809,-14.137 67.945,-13.72181 -19.58139,-50.93405 -99.86227,-2.151 -132.41057,32.42039 z"
       style="fill:#ffffff;stroke:none;filter:url(#filter3032)" />
    <path
       sodipodi:nodetypes="ccc"
       inkscape:connector-curvature="0"
       id="WingStripe"
       d="M 432.14735,259.54781 C 328.66409,288.214 302.83528,275.01752 208.36426,359.75681 336.81189,181.51832 446.42142,241.52841 432.14735,259.54781 z"
       style="fill:#ffffff;fill-opacity:1;fill-rule:evenodd;stroke:none;filter:url(#filter3032)" />
    <path
       style="fill:#000000;fill-opacity:0;stroke-width:6;stroke-miterlimit:4;stroke-dasharray:none;filter:url(#filter3032)"
       id="path3153-7"
       d="m 455.97893,98.103092 c 8.99701,-3.9627 18.40177,-6.6744 27.67379,-9.70368 13.70536,-4.635993 27.61434,-8.342385 41.637,-11.539962 5.08247,-1.151176 10.17779,-2.274054 15.35841,-2.665757 1.26997,-0.07333 2.54557,-0.127055 3.81706,-0.06241 0.43907,0.01815 0.87848,0.01864 1.31778,0.01609 0.25334,-0.0076 0.50632,-0.0076 0.75965,-0.0049 1.36,0.04642 2.72087,0.04517 4.08137,0.04718 1.66176,0.0049 3.32346,-0.0049 4.98519,-0.01283 1.5458,-0.198224 2.17497,0.152662 3.5033,0.91201 1.52443,0.891865 2.87203,1.957636 4.08774,3.319011 1.28969,1.472742 2.36139,3.176677 3.15435,5.0353 0.51602,1.004532 0.51713,2.164813 0.75256,3.252212 0.17946,0.747552 0.60214,1.235538 1.15534,1.672124 0.9694,0.584883 2.00419,0.855136 3.08795,1.056937 0.17427,0.02674 0.34853,0.05354 0.5228,0.08031 0,0 -9.8786,7.731815 -9.8786,7.731815 l 0,0 c -0.17499,-0.0413 -0.34999,-0.0825 -0.52499,-0.12357 -1.2117,-0.32137 -2.4165,-0.73979 -3.44179,-1.55757 -0.67064,-0.65187 -1.24664,-1.37724 -1.51535,-2.34325 -0.338,-1.01437 -0.16158,-2.16825 -0.62411,-3.162734 -0.68254,-1.74193 -1.68168,-3.301649 -2.90215,-4.627768 -1.16239,-1.226755 -2.48251,-2.15024 -3.92579,-2.920839 -1.03071,-0.521971 -2.06352,-0.446528 -3.1822,-0.42472 -1.65128,-0.0076 -3.30254,-0.01761 -4.95384,-0.01266 -1.39949,0.0027 -2.7993,0.0027 -4.19831,0.04794 -0.25324,0.0011 -0.50599,0.0027 -0.7591,-0.01141 -0.4461,-0.01267 -0.892,-0.0274 -1.3376,-0.05531 -1.18611,-0.05289 -2.37334,-0.03479 -3.55884,0.03376 -4.93416,0.359784 -9.81066,1.302734 -14.66984,2.297297 -13.87612,2.944653 -27.59633,6.615574 -41.11042,11.234184 -9.6696,3.26042 -19.48139,6.261878 -28.74238,10.821828 0,0 9.43102,-8.327688 9.43102,-8.327688 z"
       inkscape:connector-curvature="0" />
    <path
       inkscape:label="#path2505"
       sodipodi:nodetypes="ccccc"
       id="Beard"
       d="m 542.75265,221.28736 c 0.13749,-12.92684 0.967,-46.01572 0.63822,-49.73902 -11.61035,2.41395 -33.14076,-0.69293 -41.14735,-4.27973 -7.11339,3.83808 -34.13248,33.96248 -33.93515,38.28667 25.13211,9.06086 47.22925,15.36861 74.44428,15.73208 z"
       style="fill:#1a1a1a;stroke-width:6;stroke-miterlimit:4;stroke-dasharray:none;filter:url(#filter3032)"
       inkscape:connector-curvature="0" />
    <path
       sodipodi:type="arc"
       style="fill:#ffffff;fill-opacity:1;fill-rule:nonzero;stroke-width:6.24901772;stroke-miterlimit:4;stroke-dasharray:none;filter:url(#filter3032)"
       id="path3010"
       sodipodi:cx="615.57593"
       sodipodi:cy="225.53574"
       sodipodi:rx="4.4171963"
       sodipodi:ry="3.9641507"
       d="m 619.99312,225.53574 c 0,2.18934 -1.97764,3.96415 -4.41719,3.96415 -2.43955,0 -4.4172,-1.77481 -4.4172,-3.96415 0,-2.18934 1.97765,-3.96415 4.4172,-3.96415 2.43955,0 4.41719,1.77481 4.41719,3.96415 z"
       transform="matrix(0.90835713,0,0,1.0148979,-87.312735,-97.263539)" />
    <g
       id="g3720"
       transform="matrix(0.47715349,0,0,0.58656353,432.05305,235.49656)">
      <g
         style="opacity:0.29613737;fill:#000000;filter:url(#filter3716)"
         id="g3696"
         transform="translate(70,-13)">
        <g
           style="fill:#000000;fill-opacity:1"
           id="g3698">
          <path
             style="color:#000000;fill:#000000;fill-opacity:1;fill-rule:nonzero;stroke:none;stroke-width:4.01300001;marker:none;visibility:visible;display:inline;overflow:visible;enable-background:accumulate"
             d="m 181.99999,493.42231 197,30.94004 c 0,0 -2.58739,0.98163 0,-42.10318 -9.38326,-37.51161 -197,-29.94004 -197,-29.94004 l 0,41.10318 z"
             id="path3700"
             sodipodi:nodetypes="ccccc" />
          <path
             sodipodi:nodetypes="ccccc"
             id="path3702"
             d="m 181.99999,562.36222 197,32 c 0,0 -2.58739,1.04917 0,-45 -9.38326,-40.09252 -197,-32 -197,-32 l 0,45 z"
             style="color:#000000;fill:#000000;fill-opacity:1;fill-rule:nonzero;stroke:none;stroke-width:4.01300001;marker:none;visibility:visible;display:inline;overflow:visible;enable-background:accumulate" />
        </g>
        <g
           style="fill:#000000;fill-opacity:1"
           id="g3704">
          <path
             style="color:#000000;fill:#000000;fill-opacity:1;fill-rule:nonzero;stroke:none;stroke-width:4.01300001;marker:none;visibility:visible;display:inline;overflow:visible;enable-background:accumulate"
             d="m 181.99999,447.36218 c 11,-15 167,-22 197,-37 l 0,50 c 0,0 -180,16 -197,32 l 0,-45 z"
             id="path3706"
             sodipodi:nodetypes="ccccc" />
          <path
             transform="matrix(0.98706265,-0.16033505,0,1,0,0)"
             style="color:#000000;fill:#000000;fill-opacity:1;fill-rule:nonzero;stroke:none;stroke-width:4.01300001;marker:none;visibility:visible;display:inline;overflow:visible;enable-background:accumulate"
             d="m 184.38545,610.92566 c 0,0 194.51653,16.18782 199.58206,0 l 0,45 c -1.01311,18.83756 -178.30681,-6.58883 -199.58206,5 l 0,-50 z"
             id="path3708"
             sodipodi:nodetypes="ccccc" />
          <path
             sodipodi:nodetypes="ccccc"
             id="path3710"
             d="m 181.99999,511.36221 c 0,0 192,-15 197,-32 l 0,45 c -1.00001,19 -175.99999,22 -197,37 0,0 0,24 0,-50 z"
             style="color:#000000;fill:#000000;fill-opacity:1;fill-rule:nonzero;stroke:none;stroke-width:4.01300001;marker:none;visibility:visible;display:inline;overflow:visible;enable-background:accumulate" />
        </g>
      </g>
      <g
         transform="translate(66,-17)"
         id="g3673">
        <g
           id="g3659"
           style="fill:url(#radialGradient3742);fill-opacity:1">
          <path
             sodipodi:nodetypes="ccccc"
             id="path3606"
             d="m 181.99999,493.42231 197,30.94004 c 0,0 -2.58739,0.98163 0,-42.10318 -9.38326,-37.51161 -197,-29.94004 -197,-29.94004 l 0,41.10318 z"
             style="color:#000000;fill:url(#radialGradient3738);fill-opacity:1;fill-rule:nonzero;stroke:none;stroke-width:4.01300001;marker:none;visibility:visible;display:inline;overflow:visible;enable-background:accumulate" />
          <path
             style="color:#000000;fill:url(#radialGradient3740);fill-opacity:1;fill-rule:nonzero;stroke:none;stroke-width:4.01300001;marker:none;visibility:visible;display:inline;overflow:visible;enable-background:accumulate"
             d="m 181.99999,562.36222 197,32 c 0,0 -2.58739,1.04917 0,-45 -9.38326,-40.09252 -197,-32 -197,-32 l 0,45 z"
             id="path3595"
             sodipodi:nodetypes="ccccc" />
        </g>
        <g
           id="g3646"
           style="fill:url(#radialGradient3750);fill-opacity:1">
          <path
             sodipodi:nodetypes="ccccc"
             id="rect2816"
             d="m 181.99999,447.36218 c 11,-15 167,-22 197,-37 l 0,50 c 0,0 -180,16 -197,32 l 0,-45 z"
             style="color:#000000;fill:url(#radialGradient3744);fill-opacity:1;fill-rule:nonzero;stroke:none;stroke-width:4.01300001;marker:none;visibility:visible;display:inline;overflow:visible;enable-background:accumulate" />
          <path
             sodipodi:nodetypes="ccccc"
             id="rect3597"
             d="m 184.38545,610.92566 c 0,0 194.51653,16.18782 199.58206,0 l 0,45 c -1.01311,18.83756 -178.30681,-6.58883 -199.58206,5 l 0,-50 z"
             style="color:#000000;fill:url(#radialGradient3746);fill-opacity:1;fill-rule:nonzero;stroke:none;stroke-width:4.01300001;marker:none;visibility:visible;display:inline;overflow:visible;enable-background:accumulate"
             transform="matrix(0.98706265,-0.16033505,0,1,0,0)" />
          <path
             style="color:#000000;fill:url(#radialGradient3748);fill-opacity:1;fill-rule:nonzero;stroke:none;stroke-width:4.01300001;marker:none;visibility:visible;display:inline;overflow:visible;enable-background:accumulate"
             d="m 181.99999,511.36221 c 0,0 192,-15 197,-32 l 0,45 c -1.00001,19 -175.99999,22 -197,37 0,0 0,24 0,-50 z"
             id="path3608"
             sodipodi:nodetypes="ccccc" />
        </g>
      </g>
    </g>
    <g
       style="font-size:124.56122589000000289px;font-style:normal;font-variant:normal;font-weight:normal;font-stretch:normal;text-align:center;line-height:125%;writing-mode:lr-tb;text-anchor:middle;fill:#550000;fill-opacity:1;stroke:none;font-family:Abyssinica SIL;-inkscape-font-specification:Abyssinica SIL"
       id="text4131"
       transform="translate(29.810757,-155.43427)">
      <path
         d="m 134.65862,696.00891 0,-4.86567 5.2306,-0.36493 c 0.77031,-0.0811 1.39879,-0.36492 1.88544,-0.85149 0.48649,-0.48656 0.72977,-1.11504 0.72985,-1.88545 l 0,-31.74851 c -8e-5,-1.94623 -0.18254,-3.68976 -0.54738,-5.2306 -0.36501,-1.5813 -0.99349,-2.91936 -1.88545,-4.01418 -0.85157,-1.09473 -1.9869,-1.94622 -3.40597,-2.55448 -1.41923,-0.60816 -3.16276,-0.91226 -5.2306,-0.91231 -1.0543,5e-5 -2.16935,0.10142 -3.34515,0.3041 -1.13539,0.16224 -2.29099,0.40552 -3.46679,0.72985 -1.13539,0.28388 -2.27071,0.64881 -3.40597,1.09478 -1.09484,0.40552 -2.1288,0.85154 -3.10187,1.33806 l 0,40.99329 c -6e-5,0.77041 0.24322,1.39889 0.72985,1.88545 0.48651,0.48657 1.11499,0.7704 1.88545,0.85149 l 5.2306,0.36493 0,4.86567 -27.308592,0 0,-4.86567 5.230602,-0.36493 c 0.77035,-0.0811 1.39883,-0.36492 1.88544,-0.85149 0.48652,-0.48656 0.72981,-1.11504 0.72986,-1.88545 l 0,-32.53919 c -5e-5,-1.74349 -0.20279,-3.3451 -0.60821,-4.80485 -0.36498,-1.5002 -0.99346,-2.75716 -1.88545,-3.77089 -0.85154,-1.05418 -1.98686,-1.86513 -3.40597,-2.43284 -1.37865,-0.60816 -3.061361,-0.91226 -5.048139,-0.91231 -1.175906,5e-5 -2.412596,0.12169 -3.710075,0.36492 -1.256997,0.20279 -2.473414,0.48662 -3.649255,0.85149 -1.175899,0.32443 -2.290948,0.70963 -3.34515,1.1556 -1.013706,0.40552 -1.885472,0.811 -2.615299,1.21642 l 0,40.87165 c -2.3e-5,0.77041 0.24326,1.39889 0.729851,1.88545 0.486543,0.48657 1.115025,0.7704 1.885448,0.85149 l 5.230598,0.36493 0,4.86567 -28.160082,0 0,-4.86567 6.082091,-0.36493 c 0.770389,-0.0811 1.398871,-0.36492 1.885449,-0.85149 0.486556,-0.48656 0.729839,-1.11504 0.729851,-1.88545 l 0,-43.24367 -8.575749,0 0,-4.075 15.083586,-4.74403 5.108957,0 0,6.20373 c 1.378583,-0.85143 2.899104,-1.7232 4.561568,-2.61529 1.702956,-0.89199 3.446487,-1.72321 5.230598,-2.49366 1.784046,-0.77034 3.568124,-1.39882 5.35224,-1.88545 1.824588,-0.48651 3.547842,-0.72979 5.169782,-0.72985 1.78403,6e-5 3.40592,0.26362 4.86567,0.79067 1.45965,0.48663 2.73689,1.15566 3.83172,2.00709 1.13527,0.811 2.1084,1.74359 2.9194,2.79776 0.85144,1.01374 1.54074,2.02742 2.06791,3.04105 1.25691,-0.77035 2.77743,-1.66239 4.56157,-2.67612 1.78402,-1.01363 3.66946,-1.94621 5.65634,-2.79776 1.98675,-0.89198 3.97357,-1.64211 5.96045,-2.25038 1.98674,-0.60815 3.81137,-0.91225 5.47389,-0.91231 3.28424,6e-5 5.96036,0.60827 8.02836,1.82463 2.06782,1.17593 3.68971,2.69645 4.86567,4.56156 1.21632,1.82469 2.04754,3.87232 2.49366,6.14292 0.44592,2.27069 0.66893,4.46024 0.66903,6.56866 l 0,34.48545 c -1e-4,0.77041 0.24318,1.39889 0.72985,1.88545 0.52702,0.48657 1.1555,0.7704 1.88544,0.85149 l 6.02128,0.36493 0,4.86567 -27.9168,0"
         id="path4136"
         style="fill:#550000" />
      <path
         d="m 223.51797,641.5742 -23.90262,58.26643 c -0.40551,1.01368 -0.97317,2.37201 -1.70299,4.075 -0.72988,1.70298 -1.60164,3.50733 -2.6153,5.41306 -0.97316,1.94625 -2.06793,3.85197 -3.28432,5.71717 -1.1759,1.86515 -2.41259,3.44649 -3.71008,4.74403 -1.50027,1.50022 -3.16271,2.65582 -4.98732,3.46679 -1.78409,0.85146 -3.73036,1.27721 -5.8388,1.27724 -1.45972,-3e-5 -2.75723,-0.20277 -3.89254,-0.60821 -1.13533,-0.36495 -2.08819,-0.87179 -2.85858,-1.52052 -0.77041,-0.64879 -1.35834,-1.41918 -1.76381,-2.3112 -0.40548,-0.85151 -0.60821,-1.74355 -0.60821,-2.67612 0,-1.41917 0.3041,-2.73696 0.91231,-3.95336 0.64876,-1.17588 1.68271,-2.35175 3.10187,-3.52761 l 11.67762,5.35224 c 1.01366,-1.0137 2.04761,-2.35176 3.10186,-4.01418 1.05421,-1.6219 2.04762,-3.34516 2.98023,-5.16978 0.93256,-1.82463 1.78405,-3.64926 2.55448,-5.47388 0.77037,-1.78408 1.37857,-3.36542 1.82462,-4.74403 l -21.16567,-54.31307 -6.87277,-0.72986 0,-4.86567 27.55188,0 0,4.86567 -5.96045,0.36493 c -0.68933,0.0812 -1.23672,0.38525 -1.64217,0.91231 -0.40549,0.52717 -0.48659,1.13538 -0.24328,1.82463 l 14.47537,36.73583 14.77949,-36.73583 c 0.28378,-0.6487 0.24323,-1.23664 -0.12165,-1.76381 -0.36497,-0.5676 -0.89209,-0.89198 -1.58134,-0.97313 l -5.89963,-0.36493 0,-4.86567 22.19963,0 0,4.86567 -6.50783,0.72986"
         id="path4138"
         style="fill:#550000" />
      <path
         d="m 296.07732,663.1048 c -7e-5,4.70351 -0.68937,9.06234 -2.06791,13.07649 -1.37867,3.97365 -3.52768,7.44044 -6.44702,10.40038 -2.87891,2.95996 -6.58898,5.27115 -11.13023,6.93358 -4.50079,1.66244 -9.87329,2.49366 -16.11754,2.49366 l -17.94217,0 0,-82.83808 -9.42724,0 0,-4.13582 16.05672,-4.80485 4.98732,0 0,34.85038 c 0.72982,-0.32432 1.68268,-0.75007 2.85858,-1.27724 1.17584,-0.52706 2.5139,-1.0339 4.01418,-1.52052 1.54076,-0.48651 3.18293,-0.91226 4.92649,-1.27724 1.7435,-0.36487 3.52758,-0.54733 5.35224,-0.54739 4.09523,6e-5 7.68366,0.77046 10.7653,2.31119 3.12209,1.54086 5.73739,3.62904 7.8459,6.26456 2.1084,2.63562 3.68974,5.69694 4.74403,9.18396 1.05417,3.44655 1.58128,7.07553 1.58135,10.88694 m -12.71157,2.49366 c -6e-5,-7.82559 -1.68277,-13.74549 -5.04814,-17.75971 -3.32492,-4.01413 -7.98785,-6.02122 -13.98881,-6.02127 -0.68933,5e-5 -1.50028,0.0609 -2.43283,0.18246 -0.93262,0.1217 -1.88548,0.28389 -2.85859,0.48657 -0.93261,0.20279 -1.8652,0.4258 -2.79776,0.66903 -0.89206,0.24334 -1.64219,0.46635 -2.25037,0.66903 l 0,46.22389 c 0.68928,0.0406 1.39885,0.0608 2.12873,0.0608 0.60818,0.0406 1.25694,0.0608 1.94627,0.0608 0.72982,10e-6 1.39885,10e-6 2.00709,0 3.68977,10e-6 6.97409,-0.42574 9.85299,-1.27724 2.87881,-0.85148 5.31164,-2.25036 7.2985,-4.19664 1.98677,-1.94625 3.50729,-4.48046 4.56157,-7.60261 1.05418,-3.12212 1.58129,-6.95383 1.58135,-11.49515"
         id="path4140"
         style="fill:#550000" />
      <path
         d="m 343.39598,696.00891 -1.64217,-7.35933 c -2.18959,1.66244 -4.43996,3.14242 -6.75112,4.43993 -1.01371,0.56766 -2.08821,1.11505 -3.22351,1.64216 -1.13535,0.52712 -2.31122,0.99341 -3.52761,1.39888 -1.1759,0.44602 -2.39231,0.79067 -3.64925,1.03396 -1.21644,0.24328 -2.43286,0.36492 -3.64926,0.36492 -2.27066,0 -4.39939,-0.3852 -6.38619,-1.15559 -1.94629,-0.7704 -3.64927,-1.88545 -5.10896,-3.34515 -1.45971,-1.4597 -2.61531,-3.22351 -3.46679,-5.29142 -0.81095,-2.0679 -1.21642,-4.41964 -1.21642,-7.05523 0,-1.54078 0.14191,-3.00048 0.42575,-4.3791 0.32437,-1.37859 0.95285,-2.71665 1.88544,-4.01418 0.93258,-1.29749 2.2301,-2.53418 3.89254,-3.71008 1.70298,-1.21639 3.9128,-2.41253 6.62948,-3.58843 2.7572,-1.17584 6.10234,-2.33144 10.03545,-3.4668 3.9736,-1.17583 8.67708,-2.3517 14.11045,-3.52761 l 0,-5.35224 c -4e-5,-4.17632 -0.93262,-7.25791 -2.79776,-9.24478 -1.86521,-2.02731 -4.80488,-3.04099 -8.81903,-3.04104 -2.18958,5e-5 -4.05475,0.20279 -5.59552,0.60821 -1.54082,0.40552 -2.61533,0.7299 -3.22351,0.97313 l 0,10.82612 -9.06232,0 c -0.56767,5e-5 -1.13533,-0.0405 -1.70298,-0.12164 -0.52713,-0.0811 -1.01369,-0.24324 -1.45971,-0.48657 -0.44602,-0.28378 -0.81095,-0.64871 -1.09477,-1.09477 -0.24329,-0.48652 -0.36493,-1.11501 -0.36493,-1.88545 0,-2.55443 0.77039,-4.74398 2.3112,-6.56866 1.54078,-1.86512 3.54787,-3.40591 6.02127,-4.62239 2.47336,-1.21636 5.25085,-2.1084 8.33246,-2.67612 3.08157,-0.5676 6.16316,-0.85143 9.24478,-0.85149 3.85195,6e-5 7.03491,0.46635 9.54888,1.39888 2.55444,0.93265 4.56152,2.23016 6.02127,3.89254 1.5002,1.66249 2.55443,3.62903 3.16269,5.89963 0.60816,2.27069 0.91226,4.76435 0.91231,7.48097 l 0,34.9112 c -5e-5,0.77041 0.24324,1.39889 0.72986,1.88545 0.52706,0.48657 1.15554,0.7704 1.88544,0.85149 l 6.02127,0.36493 0,4.86567 -18.42873,0 m -1.64217,-33.26904 c -5.59556,1.41919 -10.03548,2.81807 -13.31978,4.19665 -3.28435,1.37863 -5.778,2.77751 -7.48097,4.19664 -1.66246,1.37863 -2.73696,2.79778 -3.22351,4.25746 -0.44603,1.41918 -0.66904,2.89915 -0.66903,4.43993 -10e-6,1.29753 0.20272,2.57476 0.60821,3.83172 0.446,1.21643 1.05421,2.3112 1.82463,3.28433 0.81093,0.97314 1.78406,1.76381 2.9194,2.37201 1.17585,0.56767 2.51391,0.8515 4.01418,0.85149 1.66241,10e-6 3.38567,-0.30409 5.16978,-0.91231 1.8246,-0.6082 3.48703,-1.27723 4.98732,-2.00709 1.74349,-0.85148 3.46675,-1.84489 5.16977,-2.98022 l 0,-21.53061"
         id="path4142"
         style="fill:#550000" />
      <path
         d="m 405.25085,693.39361 c -1.54084,0.7704 -3.22355,1.4597 -5.04813,2.06791 -1.54084,0.52712 -3.32491,0.99341 -5.35225,1.39888 -2.02739,0.44602 -4.15612,0.66903 -6.38619,0.66903 -4.7035,0 -8.10947,-1.09477 -10.21791,-3.28433 -2.10847,-2.18954 -3.1627,-5.7577 -3.16269,-10.70448 l 0,-41.35822 -7.96754,0 0,-4.075 8.51493,-4.01418 5.59552,-13.19813 5.47388,0 0,15.08358 17.57725,0 0,6.20373 -17.57725,0 0,34.78957 c -2e-5,2.4734 0.20272,4.58185 0.60821,6.32537 0.446,1.703 1.07448,3.10188 1.88545,4.19664 0.85147,1.05424 1.88542,1.82464 3.10187,2.3112 1.25693,0.48657 2.71663,0.72985 4.3791,0.72985 1.21639,0 2.33144,-0.10136 3.34515,-0.30411 1.05419,-0.20273 1.96651,-0.44601 2.73694,-0.72985 0.892,-0.32437 1.72322,-0.68929 2.49366,-1.09477 l 0,4.98731"
         id="path4144"
         style="fill:#550000" />
      <path
         d="m 433.47176,615.4212 c -3e-5,1.05431 -0.20276,2.06799 -0.60821,3.04105 -0.36495,0.93266 -0.89206,1.74361 -1.58134,2.43284 -0.68933,0.68937 -1.50027,1.23676 -2.43284,1.64216 -0.89206,0.40555 -1.86519,0.60828 -2.9194,0.60821 -1.05425,7e-5 -2.06793,-0.20266 -3.04105,-0.60821 -0.9326,-0.4054 -1.74354,-0.95279 -2.43283,-1.64216 -0.68932,-0.68923 -1.23671,-1.50018 -1.64217,-2.43284 -0.40548,-0.97306 -0.60822,-1.98674 -0.60821,-3.04105 -1e-5,-1.05414 0.20273,-2.04755 0.60821,-2.98022 0.40546,-0.9325 0.95285,-1.74345 1.64217,-2.43284 0.68929,-0.68921 1.50023,-1.21633 2.43283,-1.58134 0.97312,-0.40539 1.9868,-0.60812 3.04105,-0.60821 1.05421,9e-5 2.02734,0.20282 2.9194,0.60821 0.93257,0.36501 1.74351,0.89213 2.43284,1.58134 0.68928,0.68939 1.21639,1.50034 1.58134,2.43284 0.40545,0.93267 0.60818,1.92608 0.60821,2.98022 m -22.86866,80.58771 0,-4.86567 6.08209,-0.36493 c 0.77039,-0.0811 1.39887,-0.36492 1.88545,-0.85149 0.48655,-0.48656 0.72984,-1.11504 0.72985,-1.88545 l 0,-44.46008 -8.57575,0 0,-4.37911 15.20523,-4.74403 4.92649,0 0,53.58322 c -2e-5,0.77041 0.24326,1.39889 0.72985,1.88545 0.52709,0.48657 1.15557,0.7704 1.88545,0.85149 l 6.3862,0.36493 0,4.86567 -29.25486,0"
         id="path4146"
         style="fill:#550000" />
      <path
         d="m 489.36617,677.9451 c -5e-5,3.04106 -0.54744,5.778 -1.64217,8.21082 -1.09482,2.43285 -2.65588,4.50076 -4.68321,6.20374 -2.0274,1.66244 -4.52105,2.93967 -7.48097,3.83171 -2.95998,0.89204 -6.28485,1.33806 -9.97463,1.33806 -1.90574,0 -3.77091,-0.12164 -5.59552,-0.36492 -1.7841,-0.20274 -3.44653,-0.48657 -4.98732,-0.85149 -1.50026,-0.32438 -2.83831,-0.66903 -4.01418,-1.03396 -1.17587,-0.36492 -2.06791,-0.66903 -2.67612,-0.91231 l 0,-16.54329 6.32538,0 1.52052,10.58284 c 1.25695,0.81095 2.79775,1.60162 4.62239,2.37201 1.86516,0.72986 4.01416,1.09478 6.44702,1.09478 1.78405,0 3.36539,-0.26355 4.74403,-0.79067 1.37858,-0.56766 2.53417,-1.29751 3.46679,-2.18956 0.9731,-0.89203 1.70295,-1.90571 2.18955,-3.04104 0.52708,-1.17586 0.79064,-2.39228 0.79067,-3.64926 -3e-5,-1.74351 -0.34468,-3.22349 -1.03395,-4.43992 -0.68934,-1.25695 -1.68275,-2.372 -2.98023,-3.34515 -1.29754,-1.01366 -2.89915,-1.9868 -4.80485,-2.91941 -1.8652,-0.93256 -3.99393,-1.98679 -6.38619,-3.16268 -2.27067,-1.09475 -4.27776,-2.16925 -6.02127,-3.22351 -1.74355,-1.09475 -3.22352,-2.25034 -4.43993,-3.46679 -1.17588,-1.25693 -2.06792,-2.61527 -2.67612,-4.075 -0.60822,-1.50021 -0.91232,-3.18292 -0.91231,-5.04814 -10e-6,-2.75717 0.48656,-5.25082 1.4597,-7.48097 1.01367,-2.23005 2.47337,-4.1155 4.3791,-5.65635 1.90571,-1.58128 4.23718,-2.7977 6.99441,-3.64925 2.79774,-0.85143 6.00097,-1.27718 9.6097,-1.27724 1.8246,6e-5 3.56813,0.10143 5.2306,0.3041 1.6624,0.2028 3.18293,0.44608 4.56157,0.72985 1.37857,0.2839 2.59498,0.588 3.64925,0.91232 1.05419,0.32444 1.88541,0.62854 2.49366,0.91231 l 0,14.71866 -6.50784,0 -0.97313,-8.69739 c -0.89208,-0.68925 -2.20986,-1.338 -3.95336,-1.94627 -1.74356,-0.60815 -3.58846,-0.91226 -5.5347,-0.91231 -3.44654,5e-5 -6.00102,0.79073 -7.66344,2.37201 -1.62191,1.54085 -2.43285,3.52767 -2.43283,5.96045 -2e-5,1.4192 0.22299,2.6559 0.66903,3.71008 0.48654,1.05427 1.25694,2.04768 2.31119,2.98022 1.09476,0.93263 2.51391,1.88549 4.25746,2.85859 1.78406,0.97317 3.99388,2.06794 6.62948,3.28433 2.18952,0.97316 4.19661,1.98685 6.02127,3.04104 1.82459,1.05426 3.40593,2.23013 4.74403,3.52761 1.33802,1.29754 2.37198,2.73697 3.10187,4.31829 0.77035,1.58137 1.15555,3.38572 1.1556,5.41306"
         id="path4148"
         style="fill:#550000" />
    </g>
    <text
       xml:space="preserve"
       style="font-size:60.92064667px;font-style:normal;font-weight:normal;text-align:center;text-anchor:middle;fill:#000000;fill-opacity:1;stroke:none;font-family:Sans;-inkscape-font-specification:Sans"
       x="391.10175"
       y="604.32959"
       id="text4150"><tspan
         sodipodi:role="line"
         id="tspan4152"
         x="391.10175"
         y="604.32959">for scala</tspan></text>
  </g>
</svg>
