<?xml version="1.0" encoding="UTF-8" standalone="no"?>
<!-- Created with Inkscape (http://www.inkscape.org/) -->

<svg
   xmlns:dc="http://purl.org/dc/elements/1.1/"
   xmlns:cc="http://creativecommons.org/ns#"
   xmlns:rdf="http://www.w3.org/1999/02/22-rdf-syntax-ns#"
   xmlns:svg="http://www.w3.org/2000/svg"
   xmlns="http://www.w3.org/2000/svg"
   xmlns:xlink="http://www.w3.org/1999/xlink"
   xmlns:sodipodi="http://sodipodi.sourceforge.net/DTD/sodipodi-0.dtd"
   xmlns:inkscape="http://www.inkscape.org/namespaces/inkscape"
   width="792pt"
   height="612pt"
   id="svg2"
   sodipodi:version="0.32"
   inkscape:version="0.48.2 r9819"
   sodipodi:docname="vector-logo-full-bird.svg"
   version="1.0"
   inkscape:export-filename="/home/eduardo/workspace/logo/logo-full-bird.png"
   inkscape:export-xdpi="300"
   inkscape:export-ydpi="300">
  <defs
     id="defs4">
    <linearGradient
       id="linearGradient3038">
      <stop
         style="stop-color:#757769;stop-opacity:1;"
         offset="0"
         id="stop3040" />
      <stop
         style="stop-color:#fff8cb;stop-opacity:1;"
         offset="1"
         id="stop3042" />
    </linearGradient>
    <linearGradient
       inkscape:collect="always"
       xlink:href="#linearGradient3038"
       id="linearGradient3006"
       x1="2.8356823"
       y1="315.94816"
       x2="915.59414"
       y2="315.94816"
       gradientUnits="userSpaceOnUse" />
    <linearGradient
       inkscape:collect="always"
       xlink:href="#linearGradient3038"
       id="linearGradient3029"
       gradientUnits="userSpaceOnUse"
       x1="2.8356823"
       y1="315.94816"
       x2="915.59414"
       y2="315.94816" />
    <linearGradient
       inkscape:collect="always"
       xlink:href="#linearGradient3038"
       id="linearGradient3027"
       gradientUnits="userSpaceOnUse"
       x1="2.8356823"
       y1="315.94816"
       x2="915.59414"
       y2="315.94816"
       gradientTransform="matrix(0.94276793,0,0,1,2.8982169,0)" />
    <linearGradient
       inkscape:collect="always"
       xlink:href="#linearGradient3038"
       id="linearGradient3045"
       gradientUnits="userSpaceOnUse"
       gradientTransform="matrix(0.87637872,0,0,1,6.2601486,0)"
       x1="2.8356823"
       y1="315.94816"
       x2="915.59414"
       y2="315.94816" />
  </defs>
  <sodipodi:namedview
     id="base"
     pagecolor="#ffffff"
     bordercolor="#666666"
     borderopacity="1.0"
     inkscape:pageopacity="0.0"
     inkscape:pageshadow="2"
     inkscape:zoom="1.1036412"
     inkscape:cx="603.53786"
     inkscape:cy="448.76048"
     inkscape:document-units="px"
     inkscape:current-layer="BirdBatis"
     inkscape:window-width="1366"
     inkscape:window-height="744"
     inkscape:window-x="0"
     inkscape:window-y="24"
     showgrid="false"
     inkscape:window-maximized="1"
     inkscape:object-nodes="true"
     inkscape:object-paths="true"
     inkscape:snap-intersection-paths="false"
     inkscape:snap-smooth-nodes="false"
     inkscape:snap-nodes="false" />
  <metadata
     id="metadata7">
    <rdf:RDF>
      <cc:Work
         rdf:about="">
        <dc:format>image/svg+xml</dc:format>
        <dc:type
           rdf:resource="http://purl.org/dc/dcmitype/StillImage" />
        <dc:title />
      </cc:Work>
    </rdf:RDF>
  </metadata>
  <g
     inkscape:label="Layer 1"
     inkscape:groupmode="layer"
     id="layer1">
    <g
       id="BirdBatis"
       inkscape:label="#g2568"
       transform="matrix(0.428474,0,0,0.428474,290.0398,209.1822)">
      <path
         style="fill:url(#linearGradient3045);fill-opacity:1"
         d="m 452.78494,574.97223 c 88.60106,12.8487 180.76877,-19.20938 251.69915,-79.76475 36.68641,-41.72205 53.69203,-95.95223 81.21654,-145.39853 17.96429,-55.74794 21.29857,-96.92691 21.52271,-154.39907 C 805.44894,137.58049 812.41628,78.39296 805.6329,21.101008 783.73239,-31.615644 723.31837,-37.988791 678.24427,-33.670794 615.77242,-22.399746 577.80135,41.047023 536.39334,88.916652 498.26752,139.55039 456.6748,186.50013 413.19812,230.98299 278.46624,521.19478 184.43403,536.36625 262.20665,512.15689 c 41.7677,-10.38328 89.10656,-5.04866 122.28268,28.23298 21.19929,15.01786 43.75429,28.42105 68.29561,34.58236 z"
         id="Body"
         inkscape:connector-curvature="0"
         sodipodi:nodetypes="ccccccccccc" />
      <path
         style="fill:#9a947d;stroke:none"
         d="M 803.30779,9.5243578 C 773.69067,-33.854524 694.91203,-55.490647 634.48791,-15.354464 c 50.093,-10.124473 110.52919,1.057197 142.54571,41.86527 9.79409,-6.992824 16.03889,-10.566651 26.27417,-16.9864482 z"
         id="HeadStripe"
         inkscape:connector-curvature="0"
         sodipodi:nodetypes="cccc" />
      <path
         style="fill:#262f28;fill-opacity:1"
         d="m 511.06164,121.22773 c 22.42281,-25.811401 42.40331,-54.248818 64.7083,-80.157052 16.24333,-16.429879 31.19107,-34.62882 49.00074,-48.9432934 26.39018,-6.9673536 62.48979,-2.1613306 88.52559,11.6852109 19.28167,11.0407505 28.70716,22.1755835 40.551,43.0227965 -14.54126,2.970338 -26.25292,14.395417 -38.91987,22.391373 -30.70855,21.512353 -60.81854,44.865975 -94.36678,60.335295 -23.74552,8.42969 -48.92404,-4.59355 -66.09522,-23.21616 -6.67428,-7.852099 -16.37896,-3.96802 -23.6108,0.40853 -7.00643,4.05758 -13.29323,9.48562 -19.79296,14.4733 z"
         id="EyeMask"
         inkscape:connector-curvature="0"
         sodipodi:nodetypes="cccccccccc" />
      <path
         inkscape:label="#path1343"
         sodipodi:nodetypes="cccccc"
         id="Chest"
         d="m 797.73369,308.26666 c 6.52571,-26.81537 10.77082,-80.78429 9.20847,-87.36421 -40.1809,2.19112 -145.54525,-31.70336 -183.4301,-51.99565 53.72867,54.68467 47.6433,44.65306 60.262,79.52008 12.25186,17.03326 -9.54007,48.00647 -11.33239,66.94948 51.71039,53.36783 106.80721,61.3914 125.29202,-7.1097 z"
         style="fill:#693310;fill-opacity:1;stroke:none"
         inkscape:connector-curvature="0" />
      <path
         inkscape:label="#Tail"
         sodipodi:nodetypes="ccccc"
         id="TailUpper"
         d="M 433.63391,357.31581 C 312.12934,416.89137 184.60646,638.66398 50.639734,626.49825 49.31386,619.98394 188.32053,504.2143 227.12002,471.98791 c 30.53333,-25.32099 59.61775,-68.67477 60.09993,-81.71675 19.44777,-8.43288 123.67416,-33.67704 146.41396,-32.95535 z"
         style="fill:#262f28;fill-opacity:1;stroke:none"
         inkscape:connector-curvature="0" />
      <path
         inkscape:label="#path1339"
         sodipodi:nodetypes="ccccssccccsccccsc"
         id="LegLeft"
         d="m 515.5969,674.84337 c 5.89818,-0.0264 38.75506,7.1562 51.20985,12.64966 11.65639,17.98412 13.47713,16.40739 17.32354,-5.36583 -47.22092,-23.6905 -64.14042,-8.72681 -85.08621,-33.83575 -24.93472,-32.02307 -29.00421,-50.59132 -35.74761,-72.07513 -2.87406,-9.15649 -7.65703,-18.87234 -15.60913,-23.16782 -7.95211,-4.29548 -22.05743,4.41647 -17.42038,14.90584 8.93032,1.90249 29.00557,48.09543 58.57682,92.71467 -11.58275,-11.67918 -41.03179,-11.27525 -44.97907,-8.96281 -6.06019,9.59528 -12.04952,34.55316 3.56897,35.24976 -1.17486,-9.11476 -8.83489,-18.25009 1.44605,-21.15711 10.69169,-3.02317 40.13406,1.22987 48.95324,10.93926 7.03678,14.86926 28.39511,37.75529 68.04417,61.62629 2.8848,11.24921 -5.09007,16.70444 10.84544,6.02553 -1.51075,-6.73579 0.51961,-11.31621 -4.53224,-20.20738 0,0 -22.12596,-13.78144 -35.11745,-22.04386 -12.9915,-8.26242 -19.50435,-14.02333 -21.47599,-27.29532 z"
         style="fill:#1e211e"
         inkscape:connector-curvature="0" />
      <path
         inkscape:label="#path2515"
         sodipodi:nodetypes="scccccccsccccsccs"
         id="LegRight"
         d="m 755.75353,569.62036 c -3.40709,-13.54844 -11.17301,-15.16701 -51.38379,-41.73133 8.50992,1.93832 58.95728,31.56106 70.30956,43.74341 -5.98005,39.35029 9.98741,9.52056 6.71818,-7.62937 -8.4151,-8.28401 -54.16661,-40.31211 -67.25922,-47.49885 16.37637,6.23441 36.57305,9.20517 58.97859,25.0302 -1.25661,6.01957 1.53571,3.1726 -2.66967,8.13411 6.74736,-1.58848 9.59033,-1.14488 7.98726,-11.49315 -10.23454,-8.83304 -46.16175,-29.97318 -58.08391,-31.54514 -11.92216,-1.57197 -22.19252,-3.02119 -26.48372,-0.50411 -14.25234,11.68528 -59.89616,36.93299 -77.84046,44.537 -4.29155,5.33115 -0.0362,17.26226 3.59146,19.73944 -0.16755,-5.76446 -0.90283,-9.17847 2.80783,-16.01988 11.89947,-7.34648 41.52402,-17.36275 54.93517,-16.38121 26.82229,1.96307 50.539,17.10771 67.43824,31.53597 5.99099,7.45083 0.77138,11.73527 1.15706,17.6029 6.65937,-4.07223 11.01897,-12.66238 9.79742,-17.51999 z"
         style="fill:#1e211e;fill-opacity:1;stroke:none"
         inkscape:connector-curvature="0" />
      <g
         inkscape:label="#g2532"
         id="Beak"
         transform="matrix(-0.87637872,0,0,1,824.00691,0)">
        <path
           style="fill:#1e211e"
           d="m 104.97095,57.474269 c -36.118172,7.238325 -54.418214,7.429334 -84.595356,6.431724 -24.4628554,-15.640466 -42.777422,-30.94228 -56.4453,-48.063633 10.281628,0.444306 26.4461767,3.734805 50.502015,10.038875 24.055838,6.30407 52.977576,14.808728 90.538641,31.593034 z"
           id="BeakLower"
           sodipodi:nodetypes="cccsc"
           inkscape:label="#path2513"
           inkscape:connector-curvature="0" />
        <path
           sodipodi:nodetypes="cccsc"
           id="BeakUpper"
           d="M 104.97095,57.474269 C 53.5993,26.510806 53.5993,26.510806 23.618916,9.5243578 -5.3967576,8.4537588 -14.165207,12.391112 -35.86397,15.827093 c 27.2767542,4.0602 37.9734886,6.630202 53.795158,11.349642 26.877505,8.017281 45.17643,13.066709 87.039762,30.297534 z"
           style="fill:#879287;fill-opacity:1"
           inkscape:label="#path2530"
           inkscape:connector-curvature="0" />
      </g>
      <path
         transform="matrix(-0.96337302,0,0,1,846.91305,-1.785711)"
         d="m 202.14285,38.612183 a 23.75,22.678572 0 1 1 -47.5,0 23.75,22.678572 0 1 1 47.5,0 z"
         sodipodi:ry="22.678572"
         sodipodi:rx="23.75"
         sodipodi:cy="38.612183"
         sodipodi:cx="178.39285"
         id="path2541"
         style="fill:#f0f088;fill-opacity:1;stroke:none"
         sodipodi:type="arc" />
      <path
         style="fill:#000000;fill-opacity:1;stroke:none"
         d="m 675.18545,19.780202 c -9.02977,0 -16.29121,7.467753 -16.29121,16.698796 0,9.231046 7.26144,16.698796 16.29121,16.698796 9.02976,0 16.38324,-7.46775 16.38324,-16.698796 0,-9.231043 -7.35348,-16.698796 -16.38324,-16.698796 z"
         id="path2543"
         inkscape:connector-curvature="0" />
      <path
         style="fill:#262f28;fill-opacity:1"
         d="m 627.16292,171.18382 c 30.69944,22.30998 61.76303,55.75076 61.53035,98.26149 -4.60798,43.88095 -30.74331,65.63739 -82.10796,84.2332 -35.29353,18.20777 -85.73255,31.62897 -138.74876,46.7183 -85.65783,27.52826 -164.23659,38.86725 -248.46427,59.93977 -47.3675,5.52388 12.66464,-65.73311 26.05296,-85.1903 48.14967,-76.5828 109.99165,-144.31592 185.38235,-189.70306 46.81491,-29.74433 103.7985,-49.21192 157.78747,-32.12022 13.54285,3.98662 26.60264,9.94235 38.56786,17.86082 z"
         id="WingBackground"
         inkscape:connector-curvature="0"
         sodipodi:nodetypes="ccccccccc" />
      <path
         inkscape:connector-curvature="0"
         inkscape:label="#path1347"
         sodipodi:nodetypes="cccsccc"
         id="WingTip"
         d="m 214.32989,449.75551 c 40.61817,-25.61983 55.94861,-34.55567 98.77661,-54.64344 -11.63998,8.23883 -25.97386,12.53714 -45.58955,32.35034 17.51841,-4.16809 31.4362,-13.45758 72.94273,-21.67796 20.75325,-4.11019 -2.06982,3.8942 -10.00404,9.57159 47.11739,-4.73909 118.12979,-26.00761 122.39346,-25.24378 -35.27315,-93.70254 -179.88798,-3.95717 -238.51921,59.64325 z"
         style="fill:#9a947d;stroke:none" />
      <path
         sodipodi:nodetypes="ccc"
         inkscape:connector-curvature="0"
         id="WingStripe"
         d="M 608.48612,265.65179 C 422.07543,318.3885 375.54843,294.11116 205.37205,450.00465 436.75257,122.10221 634.19888,232.5018 608.48612,265.65179 z"
         style="fill:#f5efd7;fill-opacity:0.80327866;fill-rule:evenodd;stroke:none" />
      <path
         style="fill:#000000;fill-opacity:0"
         id="path3153"
         d="m 651.41539,-31.355433 c 16.20687,-7.290104 33.14823,-12.278785 49.85049,-17.851702 24.6883,-8.528755 49.74338,-15.347349 75.00326,-21.229876 9.15536,-2.117795 18.33386,-4.183544 27.66603,-4.904148 2.28768,-0.134898 4.58549,-0.233737 6.8759,-0.114826 0.79093,0.03337 1.58246,0.03431 2.3738,0.02964 0.45636,-0.014 0.91207,-0.014 1.36841,-0.0093 2.44985,0.08542 4.90127,0.08309 7.35202,0.08682 2.99343,0.0093 5.98675,-0.0093 8.98012,-0.02357 2.78454,-0.364666 3.91791,0.280857 6.3107,1.677815 2.74605,1.640753 5.17357,3.601432 7.36351,6.105925 2.32319,2.709382 4.2537,5.844088 5.68212,9.263362 0.92953,1.848024 0.93153,3.982575 1.35563,5.983047 0.32327,1.375253 1.08467,2.272997 2.08118,3.076173 1.74624,1.076004 3.61027,1.573187 5.56252,1.944435 0.31392,0.04924 0.62782,0.09849 0.94174,0.147734 0,0 -17.79491,14.224106 -17.79491,14.224106 l 0,0 c -0.31523,-0.07585 -0.63047,-0.151701 -0.9457,-0.227318 -2.18271,-0.591238 -4.353,-1.360993 -6.19991,-2.865448 -1.20806,-1.199233 -2.24565,-2.533689 -2.7297,-4.310833 -0.60886,-1.866135 -0.29105,-3.9889 -1.12424,-5.81844 -1.2295,-3.204605 -3.02931,-6.073997 -5.22781,-8.513632 -2.09389,-2.256846 -4.47191,-3.955759 -7.07177,-5.373418 -1.85669,-0.960268 -3.71714,-0.821473 -5.7323,-0.781354 -2.97455,-0.014 -5.94906,-0.03244 -8.92365,-0.02334 -2.52099,0.0047 -5.04254,0.0047 -7.56267,0.08822 -0.45618,0.0023 -0.91146,0.0047 -1.36741,-0.021 -0.80359,-0.02334 -1.60682,-0.05041 -2.4095,-0.101756 -2.13661,-0.09732 -4.27525,-0.06395 -6.41076,0.06208 -8.8882,0.661883 -17.67254,2.396621 -26.42566,4.2263 -24.99591,5.417225 -49.71096,12.170564 -74.0547,20.667345 -17.41844,5.998147 -35.09301,11.519883 -51.77541,19.908746 0,0 16.98867,-15.320322 16.98867,-15.320322 z"
         inkscape:connector-curvature="0" />
      <path
         inkscape:label="#path2505"
         sodipodi:nodetypes="ccccc"
         id="Beard"
         d="m 807.72618,195.26467 c 0.24767,-23.78131 1.7419,-84.65438 1.14966,-91.50407 -20.91443,4.44091 -59.69847,-1.27478 -74.12123,-7.873343 -12.81377,7.060853 -61.4849,62.480213 -61.12945,70.435353 45.272,16.66911 85.07692,28.27339 134.10102,28.94206 z"
         style="fill:#693310"
         inkscape:connector-curvature="0" />
      <path
         sodipodi:type="arc"
         style="fill:#ffffff;fill-opacity:1;fill-rule:nonzero"
         id="path3010"
         sodipodi:cx="615.57593"
         sodipodi:cy="225.53574"
         sodipodi:rx="4.4171963"
         sodipodi:ry="3.9641507"
         d="m 619.99312,225.53574 a 4.4171963,3.9641507 0 1 1 -8.83439,0 4.4171963,3.9641507 0 1 1 8.83439,0 z"
         transform="matrix(1.6362789,0,0,1.8670911,-327.2489,-390.76823)" />
    </g>
  </g>
</svg>
