<?xml version="1.0" encoding="UTF-8" standalone="no"?>
<!-- Created with Inkscape (http://www.inkscape.org/) -->

<svg
   xmlns:dc="http://purl.org/dc/elements/1.1/"
   xmlns:cc="http://creativecommons.org/ns#"
   xmlns:rdf="http://www.w3.org/1999/02/22-rdf-syntax-ns#"
   xmlns:svg="http://www.w3.org/2000/svg"
   xmlns="http://www.w3.org/2000/svg"
   xmlns:sodipodi="http://sodipodi.sourceforge.net/DTD/sodipodi-0.dtd"
   xmlns:inkscape="http://www.inkscape.org/namespaces/inkscape"
   width="792pt"
   height="612pt"
   id="svg2"
   sodipodi:version="0.32"
   inkscape:version="0.48.2 r9819"
   sodipodi:docname="logo-bird-monochrome-color.svg"
   version="1.0"
   inkscape:export-filename="/home/eduardo/workspace/logo/logo-bird-monochrome.png"
   inkscape:export-xdpi="299.92288"
   inkscape:export-ydpi="299.92288">
  <defs
     id="defs4">
    <inkscape:perspective
       sodipodi:type="inkscape:persp3d"
       inkscape:vp_x="0 : 382.5 : 1"
       inkscape:vp_y="0 : 1000 : 0"
       inkscape:vp_z="990 : 382.5 : 1"
       inkscape:persp3d-origin="495 : 255 : 1"
       id="perspective31" />
    <linearGradient
       id="linearGradient3038">
      <stop
         style="stop-color:#757769;stop-opacity:1;"
         offset="0"
         id="stop3040" />
      <stop
         style="stop-color:#fff8cb;stop-opacity:1;"
         offset="1"
         id="stop3042" />
    </linearGradient>
    <linearGradient
       id="linearGradient3038-2">
      <stop
         style="stop-color:#757769;stop-opacity:1;"
         offset="0"
         id="stop3040-7" />
      <stop
         style="stop-color:#fff8cb;stop-opacity:1;"
         offset="1"
         id="stop3042-0" />
    </linearGradient>
    <filter
       id="filter3032"
       inkscape:label="Drop shadow"
       width="1.5"
       height="1.5"
       x="-.25"
       y="-.25">
      <feGaussianBlur
         id="feGaussianBlur3034"
         in="SourceAlpha"
         stdDeviation="2"
         result="blur" />
      <feColorMatrix
         id="feColorMatrix3036"
         result="bluralpha"
         type="matrix"
         values="1 0 0 0 0 0 1 0 0 0 0 0 1 0 0 0 0 0 0.5 0 " />
      <feOffset
         id="feOffset3038"
         in="bluralpha"
         dx="4"
         dy="4"
         result="offsetBlur" />
      <feMerge
         id="feMerge3040">
        <feMergeNode
           id="feMergeNode3042"
           in="offsetBlur" />
        <feMergeNode
           id="feMergeNode3044"
           in="SourceGraphic" />
      </feMerge>
    </filter>
    <filter
       id="filter3937"
       inkscape:label="Drop shadow"
       width="1.5"
       height="1.5"
       x="-.25"
       y="-.25">
      <feGaussianBlur
         id="feGaussianBlur3939"
         in="SourceAlpha"
         stdDeviation="2"
         result="blur" />
      <feColorMatrix
         id="feColorMatrix3941"
         result="bluralpha"
         type="matrix"
         values="1 0 0 0 0 0 1 0 0 0 0 0 1 0 0 0 0 0 0.5 0 " />
      <feOffset
         id="feOffset3943"
         in="bluralpha"
         dx="4"
         dy="4"
         result="offsetBlur" />
      <feMerge
         id="feMerge3945">
        <feMergeNode
           id="feMergeNode3947"
           in="offsetBlur" />
        <feMergeNode
           id="feMergeNode3949"
           in="SourceGraphic" />
      </feMerge>
    </filter>
  </defs>
  <sodipodi:namedview
     id="base"
     pagecolor="#ffffff"
     bordercolor="#666666"
     borderopacity="1.0"
     inkscape:pageopacity="1"
     inkscape:pageshadow="2"
     inkscape:zoom="1.0195313"
     inkscape:cx="510.86363"
     inkscape:cy="429.26284"
     inkscape:document-units="px"
     inkscape:current-layer="layer1"
     inkscape:window-width="1366"
     inkscape:window-height="744"
     inkscape:window-x="0"
     inkscape:window-y="24"
     showgrid="false"
     inkscape:window-maximized="1"
     inkscape:object-nodes="true"
     inkscape:object-paths="true"
     inkscape:snap-intersection-paths="false"
     inkscape:snap-smooth-nodes="false"
     inkscape:snap-nodes="false" />
  <metadata
     id="metadata7">
    <rdf:RDF>
      <cc:Work
         rdf:about="">
        <dc:format>image/svg+xml</dc:format>
        <dc:type
           rdf:resource="http://purl.org/dc/dcmitype/StillImage" />
        <dc:title></dc:title>
      </cc:Work>
    </rdf:RDF>
  </metadata>
  <g
     inkscape:label="Layer 1"
     inkscape:groupmode="layer"
     id="layer1">
    <path
       style="fill:#808000;fill-opacity:1;stroke:#262f28;stroke-width:6;stroke-miterlimit:4;stroke-opacity:1;stroke-dasharray:none;filter:url(#filter3032)"
       d="m 636.43083,401.61109 c 9.97262,-30.303 11.8236,-52.68672 11.94803,-83.92696 -0.98503,-31.43442 2.88279,-63.60709 -0.88291,-94.74938 -12.15776,-28.65527 -45.69575,-32.11954 -70.718,-29.77239 -34.68037,6.12661 -55.75947,40.61448 -78.74654,66.63506 -21.16501,27.52307 -44.25462,53.04362 -68.39009,77.22324 -80.67956,113.61299 -104.43576,148.34253 -92.64837,151.85734 142.72358,25.16991 252.78272,44.12888 299.43788,-87.26691 z"
       id="Body"
       inkscape:connector-curvature="0"
       sodipodi:nodetypes="cccccccc" />
    <path
       inkscape:label="#Tail"
       sodipodi:nodetypes="ccccc"
       id="TailUpper"
       d="m 440.98596,405.69161 c -67.45154,32.38359 -98.37743,133.50082 -195.63467,133.82348 -0.73604,-3.541 59.45241,-53.97362 80.9914,-71.49097 16.95015,-13.76377 33.09595,-37.32966 33.36363,-44.41891 10.79616,-4.58388 68.65596,-18.30589 81.27964,-17.9136 z"
       style="fill:#008080;fill-opacity:1;stroke:none"
       inkscape:connector-curvature="0" />
    <g
       inkscape:label="#g2532"
       id="Beak"
       transform="matrix(-0.48650927,0,0,0.54357171,657.69602,211.46484)"
       style="stroke-width:11.66748524;stroke-miterlimit:4;stroke-dasharray:none">
      <path
         style="fill:#262f28;stroke-width:11.66748523999999954;stroke-miterlimit:4;stroke-dasharray:none;fill-opacity:1"
         d="m 104.97095,57.474269 c -36.118172,7.238325 -54.418214,7.429334 -84.595356,6.431724 -24.4628554,-15.640466 -42.777422,-30.94228 -56.4453,-48.063633 10.281628,0.444306 26.4461767,3.734805 50.502015,10.038875 24.055838,6.30407 52.977576,14.808728 90.538641,31.593034 z"
         id="BeakLower"
         sodipodi:nodetypes="cccsc"
         inkscape:label="#path2513"
         inkscape:connector-curvature="0" />
      <path
         sodipodi:nodetypes="cccsc"
         id="BeakUpper"
         d="M 104.97095,57.474269 C 53.5993,26.510806 53.5993,26.510806 23.618916,9.5243578 -5.3967576,8.4537588 -14.165207,12.391112 -35.86397,15.827093 c 27.2767542,4.0602 37.9734886,6.630202 53.795158,11.349642 26.877505,8.017281 45.17643,13.066709 87.039762,30.297534 z"
         style="fill:#879287;fill-opacity:1;stroke:none;stroke-width:3.88916182999999993;stroke-miterlimit:4;stroke-opacity:1;stroke-dasharray:none"
         inkscape:label="#path2530"
         inkscape:connector-curvature="0" />
    </g>
    <path
       style="fill:#008000;fill-opacity:1;stroke-width:6;stroke-miterlimit:4;stroke-dasharray:none;filter:url(#filter3937)"
       d="m 548.42086,304.51553 c 17.04236,12.12707 34.28687,30.30453 34.15771,53.41216 -2.55806,23.85244 -17.06672,35.67863 -45.58108,45.78679 -19.5927,9.89723 -47.59321,17.19261 -77.02441,25.39474 -47.55174,14.96359 -91.17363,21.12714 -137.93144,32.58157 -26.2954,3.00262 7.0306,-35.73066 14.46294,-46.30704 26.72961,-41.62824 61.06031,-78.44605 102.91239,-103.11722 25.98864,-16.16817 57.62227,-26.75021 87.59349,-17.45964 7.51812,2.16701 14.76808,5.40438 21.4104,9.70864 z"
       id="WingBackground"
       inkscape:connector-curvature="0"
       sodipodi:nodetypes="ccccccccc" />
    <path
       inkscape:connector-curvature="0"
       inkscape:label="#path1347"
       sodipodi:nodetypes="cccsccc"
       id="WingTip"
       d="m 319.24243,455.93922 c 22.54861,-13.92622 31.05908,-18.78349 54.83444,-29.70263 -6.46177,4.47839 -14.41902,6.81483 -25.30839,17.58473 9.7251,-2.26566 17.45136,-7.31516 40.49312,-11.78353 11.52088,-2.23418 -1.14903,2.11678 -5.5536,5.20285 26.15656,-2.57604 65.57809,-14.137 67.945,-13.72181 -19.58139,-50.93405 -99.86227,-2.151 -132.41057,32.42039 z"
       style="fill:#9a947d;stroke:none;fill-opacity:1" />
    <path
       sodipodi:nodetypes="ccc"
       inkscape:connector-curvature="0"
       id="WingStripe"
       d="M 538.0527,355.86564 C 434.56944,384.53183 408.74063,371.33535 314.26961,456.07464 442.71724,277.83615 552.32677,337.84624 538.0527,355.86564 z"
       style="fill:#f5efd7;fill-opacity:0.80392158;fill-rule:evenodd;stroke:none" />
  </g>
</svg>
