<?xml version="1.0" encoding="UTF-8" standalone="no"?>
<!-- Created with Inkscape (http://www.inkscape.org/) -->

<svg
   xmlns:dc="http://purl.org/dc/elements/1.1/"
   xmlns:cc="http://creativecommons.org/ns#"
   xmlns:rdf="http://www.w3.org/1999/02/22-rdf-syntax-ns#"
   xmlns:svg="http://www.w3.org/2000/svg"
   xmlns="http://www.w3.org/2000/svg"
   xmlns:sodipodi="http://sodipodi.sourceforge.net/DTD/sodipodi-0.dtd"
   xmlns:inkscape="http://www.inkscape.org/namespaces/inkscape"
   width="990"
   height="505"
   id="svg2"
   sodipodi:version="0.32"
   inkscape:version="0.47 r22583"
   sodipodi:docname="vector-logo-bird.svg"
   version="1.0"
   inkscape:export-filename="/home/eduardo/Descargas/ibatis-vector-logo-bird-simplified.png"
   inkscape:export-xdpi="300"
   inkscape:export-ydpi="300">
  <defs
     id="defs4">
    <inkscape:perspective
       sodipodi:type="inkscape:persp3d"
       inkscape:vp_x="0 : 382.5 : 1"
       inkscape:vp_y="0 : 1000 : 0"
       inkscape:vp_z="990 : 382.5 : 1"
       inkscape:persp3d-origin="495 : 255 : 1"
       id="perspective27" />
  </defs>
  <sodipodi:namedview
     id="base"
     pagecolor="#ffffff"
     bordercolor="#666666"
     borderopacity="1.0"
     inkscape:pageopacity="0.0"
     inkscape:pageshadow="2"
     inkscape:zoom="0.99405941"
     inkscape:cx="495"
     inkscape:cy="252.5"
     inkscape:document-units="px"
     inkscape:current-layer="BirdBatis"
     inkscape:window-width="1280"
     inkscape:window-height="724"
     inkscape:window-x="0"
     inkscape:window-y="51"
     showgrid="false"
     inkscape:window-maximized="1"
     inkscape:object-nodes="true" />
  <metadata
     id="metadata7">
    <rdf:RDF>
      <cc:Work
         rdf:about="">
        <dc:format>image/svg+xml</dc:format>
        <dc:type
           rdf:resource="http://purl.org/dc/dcmitype/StillImage" />
        <dc:title />
      </cc:Work>
    </rdf:RDF>
  </metadata>
  <g
     inkscape:label="Layer 1"
     inkscape:groupmode="layer"
     id="layer1"
     transform="translate(-31.749379,-81.647288)">
    <g
       id="BirdBatis"
       inkscape:label="#g2568"
       transform="matrix(0.428474,0,0,0.428474,290.0398,209.1822)">
      <path
         style="fill:#9a947d;stroke:none"
         d="m 693.10213,-138.02259 c -34.79116,-27.67714 -78.24949,-43.1771 -122.37623,-46.65539 -19.07456,-1.37363 -38.37151,-2.31743 -57.41106,-0.13011 -19.91658,3.13146 -38.92331,10.58326 -56.72685,19.87751 25.74849,-8.10836 52.71167,-0.82435 78.94201,-0.31051 29.95975,1.97542 59.36526,11.6858 85.13401,27.00826 12.35174,7.5171 23.74232,16.69863 33.32884,27.54634 11.58453,-10.96816 25.52931,-19.12831 39.10928,-27.3361 z"
         id="HeadStripe"
         inkscape:connector-curvature="0" />
      <path
         style="fill:#262f28;fill-opacity:1"
         d="m 270.6989,14.411502 c 31.78523,-32.37041 58.76083,-69.067181 89.85654,-102.013621 30.22615,-28.868231 65.69086,-55.427451 108.16137,-61.527581 24.09808,-3.48286 48.96591,-3.98208 72.98504,0.24858 27.05327,7.48258 52.4604,23.99284 68.29468,47.40719 7.49528,9.255966 5.89253,20.135986 -6.49586,22.733299 -55.18833,32.443083 -104.73935,74.4753032 -163.34179,101.011563 -28.75846,13.27025 -62.546,4.94769 -87.35526,-12.8645098 -11.30221,-5.64412 -18.93647,-19.9818702 -32.38086,-19.7978302 -18.43473,3.2121102 -34.4942,14.5507902 -49.72386,24.80291 z"
         id="EyeMask"
         inkscape:connector-curvature="0" />
      <path
         inkscape:label="#path1343"
         sodipodi:nodetypes="cccccc"
         id="Chest"
         d="m 709.39099,241.17781 c 1.98466,-38.05149 -0.55432,-92.56941 -2.83356,-100.98192 -58.61825,5.50503 -214.28003,-40.01248 -269.54867,-65.956428 78.38252,69.915038 68.75128,58.596578 87.16019,103.174498 17.87373,21.77724 -13.91761,61.37687 -16.53236,85.59574 48.4015,80.39793 174.78767,65.74762 201.7544,-21.83189 z"
         style="fill:#693310;fill-opacity:1;stroke:none"
         inkscape:connector-curvature="0" />
      <path
         inkscape:label="#path2505"
         sodipodi:nodetypes="cccccc"
         id="Beard"
         d="M 704.99754,107.41767 C 703.3311,75.661132 705.51098,12.028392 704.64698,3.2709822 676.16353,0.83774224 619.58312,-9.1734978 598.54235,-17.609838 c -16.25733,4.70945 -23.10541,26.3527702 -46.6648,51.42111 -16.60651,11.50934 -44.13696,27.57967 -42.51442,38.63136 57.15818,3.69242 137.67894,8.96547 195.63441,34.975038 z"
         style="fill:#693310"
         inkscape:connector-curvature="0" />
      <path
         inkscape:label="#Tail"
         sodipodi:nodetypes="ccccc"
         id="TailUpper"
         d="m 159.24989,316.62981 c -177.257949,76.1681 -474.14596,430.00238 -669.58445,414.44835 -1.93426,-8.32863 311.70697,-226.6368 368.30994,-267.83864 44.543791,-32.3732 86.973861,-87.80155 87.677271,-104.47588 28.37155,-10.78154 180.423109,-43.05652 213.597239,-42.13383 z"
         style="fill:#262f28;fill-opacity:1;stroke:none"
         inkscape:connector-curvature="0" />
      <g
         inkscape:label="#g2532"
         id="Beak"
         transform="matrix(-1.2785124,0,0,1.2785124,728.74881,-140.20289)">
        <path
           style="fill:#1e211e"
           d="m 106.92491,59.358682 c -36.118172,7.238325 -56.372174,5.544921 -86.549316,4.547311 -24.4628554,-15.640466 -42.777422,-30.94228 -56.4453,-48.063633 10.281628,0.444306 26.4461767,3.734805 50.502015,10.038875 24.055838,6.30407 54.931536,16.693141 92.492601,33.477447 z"
           id="BeakLower"
           sodipodi:nodetypes="cccsc"
           inkscape:label="#path2513"
           inkscape:connector-curvature="0" />
        <path
           sodipodi:nodetypes="cccsc"
           id="BeakUpper"
           d="M 106.46626,58.969584 C 72.681105,34.597414 48.995038,25.88613 23.618916,9.5243578 -5.3967576,8.4537588 -14.165207,12.391112 -35.86397,15.827093 c 27.2767542,4.0602 45.4299281,8.906922 53.795158,11.349642 23.871223,6.970607 46.671745,14.562024 88.535072,31.792849 z"
           style="fill:#879287;fill-opacity:1"
           inkscape:label="#path2530"
           inkscape:connector-curvature="0" />
      </g>
      <g
         inkscape:label="#g2545"
         id="Eye"
         transform="matrix(-1.2785124,0,0,1.2785124,728.74881,-140.20289)">
        <path
           sodipodi:type="arc"
           style="fill:#f0f088;fill-opacity:1;stroke:none"
           id="path2541"
           sodipodi:cx="178.39285"
           sodipodi:cy="38.612183"
           sodipodi:rx="23.75"
           sodipodi:ry="22.678572"
           d="m 202.14285,38.612183 c 0,12.525029 -10.63323,22.678571 -23.75,22.678571 -13.11676,0 -23.75,-10.153542 -23.75,-22.678571 0,-12.52503 10.63324,-22.678572 23.75,-22.678572 13.11677,0 23.75,10.153542 23.75,22.678572 z"
           transform="translate(-6.071427,-1.785711)" />
        <path
           sodipodi:type="arc"
           style="fill:#000000;fill-opacity:1;stroke:none"
           id="path2543"
           sodipodi:cx="175.35715"
           sodipodi:cy="39.326466"
           sodipodi:rx="11.785714"
           sodipodi:ry="11.607142"
           d="m 187.14286,39.326466 c 0,6.410447 -5.27664,11.607142 -11.78571,11.607142 -6.50907,0 -11.78572,-5.196695 -11.78572,-11.607142 0,-6.410448 5.27665,-11.607143 11.78572,-11.607143 6.50907,0 11.78571,5.196695 11.78571,11.607143 z"
           transform="translate(-3.214286,-2.857143)" />
      </g>
      <g
         inkscape:label="#g2560"
         id="Wing"
         transform="matrix(-1.2785124,0,0,1.2785124,728.74881,-140.20289)">
        <path
           style="fill:#262f28;fill-opacity:1"
           d="m 224.61064,171.18382 c -33.14272,21.46807 -67.14606,51.94367 -70.64059,93.83172 3.47071,47.75665 46.78488,86.97299 94.12087,88.66297 49.01244,10.69879 99.01895,1.3435 148.38415,0.65837 48.1149,2.53049 92.88828,22.09646 139.57266,32.13721 56.2592,13.99745 111.20484,35.42584 158.20509,69.94795 10.04963,9.06595 37.30027,20.82954 19.26881,-0.65181 C 670.90419,386.05636 622.30204,318.78309 561.52277,263.73855 504.72243,215.97035 441.02946,173.45936 369.09826,152.80504 320.88366,141.69487 267.92189,146.14113 224.61064,171.18382 z"
           id="WingBackground"
           inkscape:connector-curvature="0" />
        <path
           style="fill:#9a947d;stroke:none"
           d="m 685.42993,435.07639 c -43.42488,-29.82606 -59.89181,-40.35306 -106.40762,-64.91003 12.34997,9.43979 28.17312,15.24582 48.3617,37.05367 -19.45267,-6.01613 -34.27846,-16.74437 -80.54192,-29.35147 -23.13173,-6.30355 1.94059,4.09579 10.35228,10.59149 -26.43858,-5.12105 -134.5232,-51.52459 -139.44466,-51.2193 47.90361,-70.53998 207.79714,28.29481 267.68022,97.83564 z"
           id="WingTip"
           sodipodi:nodetypes="cccsccc"
           inkscape:label="#path1347"
           inkscape:connector-curvature="0" />
        <path
           style="fill:#f5efd7;fill-opacity:0.80327866;fill-rule:evenodd;stroke:none"
           d="M 245.92197,265.65179 C 458.62761,288.78278 534.14837,279.3083 705.899,450.00465 477.76924,117.87282 176.20694,255.76344 245.92197,265.65179 z"
           id="WingStripe"
           inkscape:connector-curvature="0"
           sodipodi:nodetypes="ccc" />
      </g>
      <path
         style="fill:#000000;fill-opacity:0"
         id="path3153"
         d="m 476.96227,-180.2912 c 23.64353,-9.32049 48.35856,-15.69858 72.72479,-22.82362 36.01673,-10.90412 72.56857,-19.62178 109.41913,-27.14266 13.35639,-2.70763 26.74653,-5.34872 40.36084,-6.27002 3.3374,-0.17247 6.68958,-0.29883 10.03095,-0.14681 1.15387,0.0427 2.3086,0.0439 3.46306,0.0379 0.66576,-0.0179 1.33057,-0.0179 1.9963,-0.0119 3.57399,0.10922 7.15025,0.10622 10.72556,0.11101 4.36699,0.0119 8.73384,-0.0119 13.10074,-0.0301 4.06224,-0.46623 5.71566,0.35908 9.20641,2.1451 4.00608,2.09773 7.5475,4.60448 10.74231,7.8065 3.38919,3.46398 6.20555,7.47174 8.2894,11.84333 1.35605,2.36272 1.35898,5.09177 1.97768,7.6494 0.4716,1.75828 1.58239,2.90605 3.03616,3.93292 2.54751,1.37569 5.26685,2.01134 8.11491,2.48599 0.45796,0.063 0.9159,0.12592 1.37386,0.18888 0,0 -25.96023,18.18569 -25.96023,18.18569 l 0,0 c -0.45988,-0.097 -0.91979,-0.19395 -1.37966,-0.29062 -3.18427,-0.75591 -6.35041,-1.74005 -9.04478,-3.66352 -1.76239,-1.53323 -3.27609,-3.23935 -3.98225,-5.51145 -0.88823,-2.38588 -0.42461,-5.09986 -1.64011,-7.43895 -1.79367,-4.09712 -4.41933,-7.76568 -7.62664,-10.88478 -3.05468,-2.88541 -6.52388,-5.05749 -10.31671,-6.86998 -2.70864,-1.22772 -5.42277,-1.05027 -8.36261,-0.99897 -4.33945,-0.0179 -8.67884,-0.0415 -13.01834,-0.0298 -3.67778,0.006 -7.35635,0.006 -11.03288,0.11279 -0.66549,0.003 -1.32967,0.006 -1.99484,-0.0268 -1.17233,-0.0298 -2.34413,-0.0644 -3.51512,-0.1301 -3.11701,-0.12443 -6.23698,-0.0818 -9.35238,0.0794 -12.96663,0.84623 -25.78175,3.06411 -38.5513,5.40338 -36.4655,6.92599 -72.52127,15.56021 -108.03534,26.42346 -25.41102,7.6687 -51.19573,14.72831 -75.53298,25.45357 0,0 24.78407,-19.58722 24.78407,-19.58722 z"
         inkscape:connector-curvature="0" />
      <g
         id="g2853"
         transform="translate(4.6677278,0)"
         style="fill:#333333">
        <path
           d="m 466.15963,542.21331 c -3.8e-4,6.87991 -13.14264,20.11037 -39.42682,39.69143 -26.10844,19.4047 -43.13164,29.10704 -51.06963,29.10704 -12.52512,0 -18.78754,-5.20398 -18.78727,-15.61196 -2.7e-4,-7.23264 3.17504,-18.52263 9.52594,-33.87001 l 41.27908,-99.75778 c 5.29187,-12.8775 7.93796,-22.75624 7.93829,-29.63626 -3.3e-4,-8.99654 -5.99814,-13.49489 -17.99345,-13.49509 -18.34655,2e-4 -39.16247,13.31886 -62.44784,39.95604 -18.8757,21.5217 -33.0764,43.30786 -42.60213,65.35854 -6.17441,17.99351 -16.40597,44.63084 -30.6947,79.91206 -1.94064,4.23376 -4.49853,6.35063 -7.67367,6.35063 -0.70579,0 -1.49962,-0.0882 -2.38149,-0.26461 -4.58672,-0.88203 -9.08508,-1.67586 -13.49508,-2.38148 -5.99796,-1.76406 -8.99686,-4.41015 -8.99672,-7.93829 -1.4e-4,-1.41124 0.17626,-2.55788 0.52922,-3.43992 l 37.83915,-97.6409 c 10.58419,-27.34284 15.87638,-47.27674 15.87657,-59.80175 -1.9e-4,-13.40669 -4.76316,-20.11012 -14.28891,-20.11032 -15.87673,2e-4 -34.75219,13.84808 -56.62643,41.54369 -17.28793,21.69811 -30.43018,42.95505 -39.42681,63.77089 -3.3518,7.93836 -11.55469,27.78405 -24.60869,59.53713 -8.11474,19.93393 -13.75973,29.90087 -16.935,29.90088 -4.4102,-10e-6 -10.84902,-2.20508 -19.3165,-6.61524 -3.17533,-1.58765 -4.76298,-3.88093 -4.76297,-6.87985 -1e-5,-1.23483 0.26459,-2.46967 0.79383,-3.70453 l 49.48198,-119.60349 c 7.7618,-18.69892 11.64273,-32.28219 11.64281,-40.74986 -8e-5,-7.9381 -3.17539,-11.90724 -9.52594,-11.90743 -5.46866,1.9e-4 -12.4367,6.43901 -20.90415,19.3165 -8.29114,12.87781 -13.31871,19.31664 -15.08274,19.31649 -1.05847,1.5e-4 -2.99894,-0.88188 -5.82141,-2.6461 -2.82252,-1.76391 -4.23377,-3.08695 -4.23375,-3.96914 -2e-5,-6.87968 8.20286,-19.66913 24.60868,-38.36837 16.58213,-18.87527 28.40134,-28.313 35.45767,-28.31322 15.87647,2.2e-4 23.81475,9.34975 23.81486,28.04861 -1.1e-4,10.93737 -2.99901,25.22627 -8.99672,42.86673 37.75081,-47.62951 71.53259,-71.44434 101.34543,-71.44456 17.46401,2.2e-4 26.19611,11.20201 26.19634,33.60541 -2.3e-4,6.70362 -1.41148,17.729 -4.23375,33.07618 40.39678,-44.45419 75.4134,-66.68137 105.04996,-66.68159 22.57966,2.2e-4 33.86965,12.08405 33.87002,36.2515 -3.7e-4,10.58456 -2.82286,22.66838 -8.46751,36.2515 l -42.07291,101.34543 c -1.23515,2.99896 -1.85257,5.73325 -1.85226,8.2029 -3.1e-4,3.35175 0.96992,5.02761 2.9107,5.02758 5.11547,3e-5 15.17062,-7.05621 30.16548,-21.16876 15.17059,-14.11244 23.81449,-21.16868 25.93173,-21.16876 0.52885,0.17648 1.23448,0.44109 2.11688,0.79383 4.23338,3.7046 6.35025,6.3507 6.35063,7.93828"
           style="font-size:541.92022704999999405px;font-style:normal;font-variant:normal;font-weight:normal;font-stretch:semi-condensed;text-align:center;line-height:125%;writing-mode:lr-tb;text-anchor:middle;fill:#333333;fill-opacity:1;stroke:none;font-family:Aegyptus;-inkscape-font-specification:Aegyptus Semi-Condensed"
           id="path2832" />
        <path
           d="m 702.4559,416.78842 c -2.2e-4,15.70034 -4.76319,37.4865 -14.28891,65.35854 -8.11489,23.99137 -16.9352,44.89549 -26.46095,62.71245 -25.93189,48.51176 -54.50968,91.37845 -85.73348,128.60021 -29.63632,35.28117 -52.39272,52.92178 -68.26924,52.9219 -7.93831,-1.2e-4 -14.46533,-2.64621 -19.58111,-7.93829 -5.11578,-5.11588 -7.67367,-11.64291 -7.67367,-19.5811 0,-6.52712 2.29328,-12.34852 6.87985,-17.46423 4.58655,-4.93944 10.14334,-7.40913 16.67039,-7.40906 4.05732,-7e-5 8.90849,1.49939 14.55353,4.49836 5.82136,3.17524 10.14331,4.7629 12.96586,4.76297 3.35167,-7e-5 6.96799,-1.49953 10.84899,-4.49836 5.11572,-4.05741 13.1422,-12.2603 24.07946,-24.60868 9.34944,-10.58442 15.34725,-20.63957 17.99345,-30.16549 1.94036,-7.05625 2.9106,-18.69906 2.9107,-34.92845 -10e-5,-33.16433 -2.11698,-62.27135 -6.35063,-87.32113 -8.8204,-52.0397 -20.90422,-78.05961 -36.2515,-78.0598 -8.82037,1.9e-4 -17.90528,6.70362 -27.25477,20.11032 -9.17316,13.23063 -14.37714,19.84586 -15.61196,19.84572 -1.76408,1.4e-4 -4.05736,-0.97009 -6.87985,-2.91071 -2.6461,-1.94032 -3.96915,-3.79258 -3.96914,-5.5568 -10e-6,-0.70547 0.1764,-1.49929 0.52922,-2.38148 5.82139,-14.11234 13.58326,-27.3428 23.28563,-39.69143 12.87762,-16.22916 24.87324,-24.34385 35.98689,-24.34407 26.63726,2.2e-4 45.86553,26.19654 57.68487,78.58902 7.58534,33.3409 11.37807,70.3862 11.37821,111.13598 32.635,-50.45212 48.95257,-95.7885 48.95275,-136.00927 -1.8e-4,-7.7617 -0.70581,-16.3174 -2.11687,-25.66712 -0.353,-2.29309 -0.52941,-3.35153 -0.52922,-3.17532 -1.9e-4,-16.58198 5.3802,-24.87307 16.14118,-24.87329 13.40666,2.2e-4 20.1101,9.34975 20.11032,28.04861"
           style="font-size:541.92022704999999405px;font-style:normal;font-variant:normal;font-weight:normal;font-stretch:semi-condensed;text-align:center;line-height:125%;writing-mode:lr-tb;text-anchor:middle;fill:#333333;fill-opacity:1;stroke:none;font-family:Aegyptus;-inkscape-font-specification:Aegyptus Semi-Condensed"
           id="path2834" />
        <path
           d="m 945.36737,438.751 c -2.4e-4,41.10281 -25.13812,82.82286 -75.4137,125.16029 -37.39827,31.40034 -71.44466,47.10049 -102.13926,47.10049 -12.17209,0 -22.05084,-2.9107 -29.63626,-8.73211 -8.46753,-6.35062 -12.70128,-15.43553 -12.70126,-27.25478 -2e-5,-4.93934 0.88201,-10.40793 2.6461,-16.40579 l 77.26597,-266.19714 c 1.05833,-3.70421 1.58755,-6.96773 1.58765,-9.79055 -1e-4,-7.76154 -4.93947,-12.96553 -14.81813,-15.61196 -9.87883,-2.64575 -14.81821,-4.85083 -14.81813,-6.61524 -8e-5,-6.87949 2.73422,-11.46605 8.20289,-13.75969 2.64601,-0.17604 6.08593,-0.44065 10.31977,-0.79383 4.93928,-0.52885 14.99443,-2.55752 30.16549,-6.08602 15.1708,-3.70416 23.02087,-5.55642 23.55024,-5.5568 3.70438,3.8e-4 5.55665,1.67624 5.5568,5.02758 -1.5e-4,1.58803 -5.29234,20.63989 -15.87657,57.15565 l -51.59885,176.22992 c 44.27786,-55.92061 84.14565,-83.88099 119.60349,-83.88121 11.819,2.2e-4 21.34494,5.55702 28.57782,16.6704 6.35039,9.70254 9.5257,20.81613 9.52594,33.34079 m -38.63298,2.6461 c -2.1e-4,-15.52357 -6.52723,-23.28544 -19.5811,-23.28564 -22.40377,2e-4 -49.0411,19.05206 -79.91207,57.15565 -30.16555,37.04543 -45.24828,67.12268 -45.24822,90.23184 -6e-5,17.28785 5.99775,25.93175 17.99345,25.93173 24.52037,2e-5 52.03973,-18.96364 82.55815,-56.89104 29.45967,-36.6924 44.18958,-67.73989 44.18979,-93.14254"
           style="font-size:541.92022704999999405px;font-style:normal;font-variant:normal;font-weight:normal;font-stretch:semi-condensed;text-align:center;line-height:125%;writing-mode:lr-tb;text-anchor:middle;fill:#333333;fill-opacity:1;stroke:none;font-family:Aegyptus;-inkscape-font-specification:Aegyptus Semi-Condensed"
           id="path2836" />
        <path
           d="m 1146.7353,542.47792 c -3e-4,0.8821 -0.6177,2.20515 -1.8523,3.96915 -9.3497,13.93615 -20.1105,26.9902 -32.2824,39.1622 -16.7587,16.5822 -30.342,24.87329 -40.7498,24.87329 -12.7014,0 -19.052,-8.20288 -19.0519,-24.60868 -10e-5,-13.23044 3.8808,-31.75308 11.6428,-55.56799 -38.4567,53.80395 -73.73789,80.70589 -105.84379,80.70589 -7.40908,0 -13.49509,-2.7343 -18.25805,-8.20289 -4.58657,-5.46859 -6.87985,-11.99561 -6.87985,-19.58111 0,-39.69135 18.34624,-78.67711 55.03877,-116.95739 36.69242,-38.27999 73.03212,-57.42006 109.01912,-57.42026 4.0572,2e-4 7.9381,0.26481 11.6428,0.79383 1.7639,-4.76276 3.528,-9.43753 5.2922,-14.0243 2.8223,-5.9976 6.174,-8.9965 10.0552,-8.99672 13.0538,2.2e-4 19.5809,2.46991 19.5811,7.40906 -2e-4,0.88225 -0.1767,1.85248 -0.5293,2.91071 -10.7609,28.75441 -21.5217,57.50861 -32.2823,86.26269 -14.9947,41.63198 -22.492,69.41594 -22.4918,83.35199 -2e-4,5.82144 1.7639,8.73214 5.2922,8.73211 6.174,3e-5 14.8179,-7.14441 25.9317,-21.43337 11.1134,-14.28884 17.1994,-21.43329 18.2581,-21.43337 1.2346,8e-5 2.9104,1.41133 5.0275,4.23375 2.2931,2.64617 3.4397,4.58664 3.44,5.82141 m -55.568,-95.52402 c -2e-4,-6.87968 -5.7334,-10.3196 -17.1997,-10.31977 -21.3452,1.7e-4 -44.5426,14.28907 -69.5922,42.86674 -25.04979,28.57792 -37.57463,55.12705 -37.57459,79.64745 -4e-5,11.46645 5.38035,17.19965 16.14118,17.19962 13.75963,3e-5 35.36941,-18.0816 64.82931,-54.24495 28.9305,-35.63395 43.3958,-60.68362 43.396,-75.14909"
           style="font-size:541.92022704999999405px;font-style:normal;font-variant:normal;font-weight:normal;font-stretch:semi-condensed;text-align:center;line-height:125%;writing-mode:lr-tb;text-anchor:middle;fill:#333333;fill-opacity:1;stroke:none;font-family:Aegyptus;-inkscape-font-specification:Aegyptus Semi-Condensed"
           id="path2838" />
        <path
           d="m 1317.9375,399.85341 c -2e-4,2.99912 -0.9704,6.61544 -2.9107,10.84899 -2.2934,4.93957 -4.6749,7.40926 -7.1445,7.40906 l -46.3066,0 -38.3684,131.24631 c -1.9405,6.70349 -2.9108,12.17209 -2.9107,16.40579 -10e-5,6.70348 2.646,10.05519 7.9383,10.05516 11.1135,3e-5 23.6383,-4.58653 37.5745,-13.7597 14.1124,-9.17307 20.8159,-13.75963 20.1104,-13.75969 1.0583,6e-5 2.8223,1.23491 5.2922,3.70453 2.6459,2.46975 3.969,4.23381 3.9691,5.29219 -10e-5,1.2349 -0.9704,2.82256 -2.9107,4.76297 -33.3409,32.63519 -60.8603,48.95276 -82.5582,48.95276 -18.1699,0 -27.2548,-8.02648 -27.2547,-24.07946 -10e-5,-6.17419 1.1466,-13.23044 3.4399,-21.16876 l 42.6021,-147.6521 -33.3408,0 c -2.9989,2e-4 -4.4984,-1.41105 -4.4984,-4.23375 0,-3.17511 0.882,-6.79144 2.6461,-10.84899 2.1169,-4.93916 4.5866,-7.40885 7.4091,-7.40906 l 34.3992,0 11.6429,-40.22064 c 1.4111,-4.76271 4.5864,-7.1442 9.5259,-7.14446 l 17.4642,0 c 4.0573,2.6e-4 6.0859,1.76432 6.086,5.29219 -10e-5,1.76432 -3.9692,15.78861 -11.9074,42.07291 l 45.7775,0 c 2.8223,2.1e-4 4.2335,1.41146 4.2337,4.23375"
           style="font-size:541.92022704999999405px;font-style:normal;font-variant:normal;font-weight:normal;font-stretch:semi-condensed;text-align:center;line-height:125%;writing-mode:lr-tb;text-anchor:middle;fill:#333333;fill-opacity:1;stroke:none;font-family:Aegyptus;-inkscape-font-specification:Aegyptus Semi-Condensed"
           id="path2840" />
        <path
           d="m 1449.1839,288.71743 c -10e-5,6.35094 -2.2934,11.81953 -6.8798,16.40578 -4.4103,4.41046 -9.7907,6.61554 -16.1412,6.61524 -6.3508,3e-4 -11.8193,-2.20478 -16.4058,-6.61524 -4.4103,-4.58625 -6.6153,-10.05484 -6.6152,-16.40578 -10e-5,-6.3503 2.2049,-11.73069 6.6152,-16.14118 4.5865,-4.58622 10.055,-6.8795 16.4058,-6.87985 6.3505,3.5e-4 11.7309,2.29363 16.1412,6.87985 4.5864,4.41049 6.8797,9.79088 6.8798,16.14118 m -7.1444,254.55432 c -2e-4,1.23491 -0.353,2.46976 -1.0585,3.70453 -7.9384,13.93615 -20.1986,27.60763 -36.7807,41.01447 -18.6991,15.34736 -34.8403,23.02103 -48.4235,23.02103 -15.7002,0 -23.5503,-6.96804 -23.5503,-20.90415 0,-7.40904 2.2051,-16.93497 6.6153,-28.57782 l 43.3959,-114.57591 c 2.646,-7.05608 3.9691,-12.52467 3.9692,-16.40579 -10e-5,-4.05716 -1.7642,-6.08583 -5.2922,-6.08602 -4.7631,1.9e-4 -11.3783,3.70472 -19.8457,11.1136 -8.4676,7.23283 -13.0542,10.84915 -13.7597,10.84899 -1.5877,1.6e-4 -3.6164,-1.14648 -6.0861,-3.43992 -2.2933,-2.46952 -3.4399,-4.49819 -3.4399,-6.08602 0,-1.76389 0.6174,-3.43975 1.8523,-5.02758 7.7618,-9.52575 17.9052,-18.69887 30.4301,-27.51939 14.818,-10.40775 26.9901,-15.61174 36.5161,-15.61196 13.4068,2.2e-4 20.1102,6.08624 20.1103,18.25806 -10e-5,8.99691 -3.44,22.66839 -10.3198,41.01447 l -39.1622,104.52074 c -2.9989,7.93834 -4.4984,13.49513 -4.4983,16.6704 -10e-5,4.4102 2.2932,6.61527 6.8798,6.61524 8.9967,3e-5 19.9338,-6.96801 32.8116,-20.90415 12.8775,-13.93603 19.4928,-20.90407 19.8457,-20.90415 1.2347,8e-5 3.1752,1.23492 5.8214,3.70453 2.646,2.46976 3.969,4.32203 3.9692,5.5568"
           style="font-size:541.92022704999999405px;font-style:normal;font-variant:normal;font-weight:normal;font-stretch:semi-condensed;text-align:center;line-height:125%;writing-mode:lr-tb;text-anchor:middle;fill:#333333;fill-opacity:1;stroke:none;font-family:Aegyptus;-inkscape-font-specification:Aegyptus Semi-Condensed"
           id="path2842" />
        <path
           d="m 1595.7776,412.55467 c -2e-4,12.17222 -6.2626,18.25823 -18.7873,18.25805 -4.5867,1.8e-4 -10.4963,-2.2049 -17.7289,-6.61524 -7.0563,-4.58637 -12.6131,-6.87965 -16.6704,-6.87984 -6.7035,1.9e-4 -13.0541,1.49964 -19.0518,4.49836 -7.4092,3.88112 -11.1137,8.82049 -11.1136,14.81813 -10e-5,7.93845 10.3197,22.66836 30.9593,44.18978 20.8158,21.34528 31.2238,38.72128 31.2239,52.12807 -10e-5,2.99898 -0.5293,6.52711 -1.5877,10.58438 -4.5866,17.46428 -14.73,32.98802 -30.4301,46.57127 -16.2294,13.93611 -33.1644,20.90415 -50.805,20.90415 -10.408,0 -19.3165,-2.38148 -26.7255,-7.14446 -8.8204,-5.46858 -13.2305,-13.05404 -13.2305,-22.75641 0,-12.70121 5.1158,-19.05184 15.3473,-19.05189 5.4686,5e-5 12.2603,3.52818 20.375,10.58438 8.291,6.87988 15.6119,10.3198 21.9626,10.31977 8.1146,3e-5 15.7001,-2.55786 22.7564,-7.67367 7.9382,-5.64496 11.9073,-12.3484 11.9074,-20.11032 -10e-5,-7.76182 -10.4081,-22.49173 -31.2239,-44.18979 -20.816,-21.69785 -31.224,-39.86769 -31.2239,-54.50955 -10e-5,-1.41109 0.441,-4.14539 1.323,-8.20289 3.7045,-17.28764 11.9956,-31.48834 24.8733,-42.60213 13.054,-11.28979 28.3131,-16.93479 45.7774,-16.93501 9.7023,2.2e-4 18.4344,1.67608 26.1964,5.02758 10.5842,4.23397 15.8764,10.49638 15.8766,18.78728"
           style="font-size:541.92022704999999405px;font-style:normal;font-variant:normal;font-weight:normal;font-stretch:semi-condensed;text-align:center;line-height:125%;writing-mode:lr-tb;text-anchor:middle;fill:#333333;fill-opacity:1;stroke:none;font-family:Aegyptus;-inkscape-font-specification:Aegyptus Semi-Condensed"
           id="path2844" />
      </g>
    </g>
  </g>
</svg>
