<?xml version="1.0" encoding="UTF-8" standalone="no"?>
<!-- Created with Inkscape (http://www.inkscape.org/) -->

<svg
   xmlns:dc="http://purl.org/dc/elements/1.1/"
   xmlns:cc="http://creativecommons.org/ns#"
   xmlns:rdf="http://www.w3.org/1999/02/22-rdf-syntax-ns#"
   xmlns:svg="http://www.w3.org/2000/svg"
   xmlns="http://www.w3.org/2000/svg"
   xmlns:sodipodi="http://sodipodi.sourceforge.net/DTD/sodipodi-0.dtd"
   xmlns:inkscape="http://www.inkscape.org/namespaces/inkscape"
   width="990"
   height="505"
   id="svg2"
   sodipodi:version="0.32"
   inkscape:version="0.47 r22583"
   sodipodi:docname="vector-logo-bird.svg"
   version="1.0"
   inkscape:export-filename="/home/eduardo/Descargas/ibatis-vector-logo-bird-simplified.png"
   inkscape:export-xdpi="300"
   inkscape:export-ydpi="300">
  <defs
     id="defs4">
    <inkscape:perspective
       sodipodi:type="inkscape:persp3d"
       inkscape:vp_x="0 : 382.5 : 1"
       inkscape:vp_y="0 : 1000 : 0"
       inkscape:vp_z="990 : 382.5 : 1"
       inkscape:persp3d-origin="495 : 255 : 1"
       id="perspective27" />
  </defs>
  <sodipodi:namedview
     id="base"
     pagecolor="#ffffff"
     bordercolor="#666666"
     borderopacity="1.0"
     inkscape:pageopacity="0.0"
     inkscape:pageshadow="2"
     inkscape:zoom="0.99405941"
     inkscape:cx="495"
     inkscape:cy="247.46106"
     inkscape:document-units="px"
     inkscape:current-layer="BirdBatis"
     inkscape:window-width="1280"
     inkscape:window-height="724"
     inkscape:window-x="0"
     inkscape:window-y="51"
     showgrid="false"
     inkscape:window-maximized="1"
     inkscape:object-nodes="true" />
  <metadata
     id="metadata7">
    <rdf:RDF>
      <cc:Work
         rdf:about="">
        <dc:format>image/svg+xml</dc:format>
        <dc:type
           rdf:resource="http://purl.org/dc/dcmitype/StillImage" />
        <dc:title />
      </cc:Work>
    </rdf:RDF>
  </metadata>
  <g
     inkscape:label="Layer 1"
     inkscape:groupmode="layer"
     id="layer1"
     transform="translate(-31.749379,-81.647288)">
    <g
       id="BirdBatis"
       inkscape:label="#g2568"
       transform="matrix(0.428474,0,0,0.428474,290.0398,209.1822)">
      <path
         style="fill:#9a947d;stroke:none"
         d="m 642.35132,-93.787691 c -34.79116,-27.677139 -78.24949,-43.177099 -122.37623,-46.655389 -19.07456,-1.37363 -38.37151,-2.31743 -57.41106,-0.13011 -19.91658,3.13146 -38.92331,10.58326 -56.72685,19.87751 25.74849,-8.10836 52.71167,-0.82435 78.94201,-0.31051 29.95975,1.97542 59.36526,11.6858 85.13401,27.008259 12.35174,7.5171 23.74232,16.69863 33.32884,27.54634 11.58453,-10.96816 25.52931,-19.12831 39.10928,-27.3361 z"
         id="HeadStripe"
         inkscape:connector-curvature="0" />
      <path
         style="fill:#262f28;fill-opacity:1"
         d="m 219.94809,58.646401 c 31.78523,-32.37041 58.76083,-69.067181 89.85654,-102.013621 30.22615,-28.868231 65.69086,-55.427451 108.16137,-61.52758 24.09808,-3.48286 48.96591,-3.98208 72.98504,0.24858 27.05327,7.482579 52.4604,23.992839 68.29468,47.407189 7.49528,9.255966 5.89253,20.135986 -6.49586,22.733299 -55.18833,32.443083 -104.73935,74.475303 -163.34179,101.011563 -28.75846,13.27025 -62.546,4.94769 -87.35526,-12.86451 -11.30221,-5.64412 -18.93647,-19.98187 -32.38086,-19.79783 -18.43473,3.21211 -34.4942,14.55079 -49.72386,24.80291 z"
         id="EyeMask"
         inkscape:connector-curvature="0" />
      <path
         inkscape:label="#path1343"
         sodipodi:nodetypes="cccccc"
         id="Chest"
         d="m 658.64018,285.41271 c 1.98466,-38.05149 -0.55432,-92.56941 -2.83356,-100.98192 -58.61825,5.50503 -214.28003,-40.01248 -269.54867,-65.95643 78.38252,69.91504 68.75128,58.59658 87.16019,103.1745 17.87373,21.77724 -13.91761,61.37687 -16.53236,85.59574 48.4015,80.39793 174.78767,65.74762 201.7544,-21.83189 z"
         style="fill:#693310;fill-opacity:1;stroke:none"
         inkscape:connector-curvature="0" />
      <path
         inkscape:label="#path2505"
         sodipodi:nodetypes="cccccc"
         id="Beard"
         d="m 654.24673,151.65257 c -1.66644,-31.75654 0.51344,-95.389279 -0.35056,-104.146689 -28.48345,-2.43324 -85.06386,-12.44448 -106.10463,-20.88082 -16.25733,4.70945 -23.10541,26.35277 -46.6648,51.42111 -16.60651,11.50934 -44.13696,27.579669 -42.51442,38.631359 57.15818,3.69242 137.67894,8.96547 195.63441,34.97504 z"
         style="fill:#693310"
         inkscape:connector-curvature="0" />
      <path
         inkscape:label="#Tail"
         sodipodi:nodetypes="ccccc"
         id="TailUpper"
         d="m 108.49908,360.86471 c -177.257931,76.1681 -474.14596,430.00238 -669.58445,414.44835 -1.93426,-8.32863 311.70697,-226.6368 368.30994,-267.83864 44.54379,-32.3732 86.97388,-87.80155 87.67729,-104.47588 28.371549,-10.78154 180.423098,-43.05652 213.59722,-42.13383 z"
         style="fill:#262f28;fill-opacity:1;stroke:none"
         inkscape:connector-curvature="0" />
      <g
         inkscape:label="#g2532"
         id="Beak"
         transform="matrix(-1.2785124,0,0,1.2785124,677.998,-95.967991)">
        <path
           style="fill:#1e211e"
           d="m 106.92491,59.358682 c -36.118172,7.238325 -56.372174,5.544921 -86.549316,4.547311 -24.4628554,-15.640466 -42.777422,-30.94228 -56.4453,-48.063633 10.281628,0.444306 26.4461767,3.734805 50.502015,10.038875 24.055838,6.30407 54.931536,16.693141 92.492601,33.477447 z"
           id="BeakLower"
           sodipodi:nodetypes="cccsc"
           inkscape:label="#path2513"
           inkscape:connector-curvature="0" />
        <path
           sodipodi:nodetypes="cccsc"
           id="BeakUpper"
           d="M 106.46626,58.969584 C 72.681105,34.597414 48.995038,25.88613 23.618916,9.5243578 -5.3967576,8.4537588 -14.165207,12.391112 -35.86397,15.827093 c 27.2767542,4.0602 45.4299281,8.906922 53.795158,11.349642 23.871223,6.970607 46.671745,14.562024 88.535072,31.792849 z"
           style="fill:#879287;fill-opacity:1"
           inkscape:label="#path2530"
           inkscape:connector-curvature="0" />
      </g>
      <g
         inkscape:label="#g2545"
         id="Eye"
         transform="matrix(-1.2785124,0,0,1.2785124,677.998,-95.967991)">
        <path
           sodipodi:type="arc"
           style="fill:#f0f088;fill-opacity:1;stroke:none"
           id="path2541"
           sodipodi:cx="178.39285"
           sodipodi:cy="38.612183"
           sodipodi:rx="23.75"
           sodipodi:ry="22.678572"
           d="m 202.14285,38.612183 c 0,12.525029 -10.63323,22.678571 -23.75,22.678571 -13.11676,0 -23.75,-10.153542 -23.75,-22.678571 0,-12.52503 10.63324,-22.678572 23.75,-22.678572 13.11677,0 23.75,10.153542 23.75,22.678572 z"
           transform="translate(-6.071427,-1.785711)" />
        <path
           sodipodi:type="arc"
           style="fill:#000000;fill-opacity:1;stroke:none"
           id="path2543"
           sodipodi:cx="175.35715"
           sodipodi:cy="39.326466"
           sodipodi:rx="11.785714"
           sodipodi:ry="11.607142"
           d="m 187.14286,39.326466 c 0,6.410447 -5.27664,11.607142 -11.78571,11.607142 -6.50907,0 -11.78572,-5.196695 -11.78572,-11.607142 0,-6.410448 5.27665,-11.607143 11.78572,-11.607143 6.50907,0 11.78571,5.196695 11.78571,11.607143 z"
           transform="translate(-3.214286,-2.857143)" />
      </g>
      <path
         inkscape:connector-curvature="0"
         id="WingBackground"
         d="m 390.83051,122.89265 c 42.37338,27.44719 85.84707,66.41062 90.31487,119.96501 -4.43734,61.05747 -59.81505,111.19605 -120.3347,113.35671 -62.66301,13.67854 -126.59695,1.71768 -189.71097,0.84173 -61.5155,3.23527 -118.758821,28.2506 -178.4453798,41.08783 -71.9280852,17.89591 -142.1767702,45.29237 -202.2671702,89.42932 -12.84858,11.59093 -47.68886,26.63082 -24.63541,-0.83335 54.48692,-89.13005 116.62538,-175.13976 194.332426,-245.51488 C 32.704115,180.15278 114.13637,125.80195 206.1013,99.395147 267.74426,85.190657 335.45654,90.875256 390.83051,122.89265 z"
         style="fill:#262f28;fill-opacity:1" />
      <path
         inkscape:connector-curvature="0"
         inkscape:label="#path1347"
         sodipodi:nodetypes="cccsccc"
         id="WingTip"
         d="m -198.33266,460.28257 c 55.51924,-38.13299 76.57242,-51.59189 136.043457,-82.98828 -15.78959,12.06889 -36.019683,19.49197 -61.831037,47.37358 24.870483,-7.6917 43.82544,-21.40789 102.973847,-37.52622 29.574204,-8.05917 -2.481068,5.23652 -13.235518,13.54135 33.8020521,-6.54733 171.989581,-65.87483 178.281731,-65.48451 -61.245364,-90.18624 -265.67122,36.17527 -342.23248,125.08408 z"
         style="fill:#9a947d;stroke:none" />
      <path
         sodipodi:nodetypes="ccc"
         inkscape:connector-curvature="0"
         id="WingStripe"
         d="M 363.58371,243.67112 C 91.63691,273.24438 -4.9173145,261.13113 -224.50262,479.36854 67.164102,54.733871 452.71524,231.02874 363.58371,243.67112 z"
         style="fill:#f5efd7;fill-opacity:0.80327866;fill-rule:evenodd;stroke:none" />
      <path
         style="fill:#000000;fill-opacity:0"
         id="path3153"
         d="m 426.21146,-136.0563 c 23.64353,-9.32049 48.35856,-15.69858 72.72479,-22.82362 36.01673,-10.90412 72.56857,-19.62178 109.41913,-27.14266 13.35639,-2.70763 26.74653,-5.34872 40.36084,-6.27002 3.3374,-0.17247 6.68958,-0.29883 10.03095,-0.14681 1.15387,0.0427 2.3086,0.0439 3.46306,0.0379 0.66576,-0.0179 1.33057,-0.0179 1.9963,-0.0119 3.57399,0.10922 7.15025,0.10622 10.72556,0.11101 4.36699,0.0119 8.73384,-0.0119 13.10074,-0.0301 4.06224,-0.46623 5.71566,0.35908 9.20641,2.1451 4.00608,2.09773 7.5475,4.60448 10.74231,7.8065 3.38919,3.46398 6.20555,7.47174 8.2894,11.84333 1.35605,2.36272 1.35898,5.09177 1.97768,7.6494 0.4716,1.75828 1.58239,2.90605 3.03616,3.93292 2.54751,1.37569 5.26685,2.01134 8.11491,2.48599 0.45796,0.063 0.9159,0.12592 1.37386,0.18888 0,0 -25.96023,18.18569 -25.96023,18.18569 l 0,0 c -0.45988,-0.097 -0.91979,-0.19395 -1.37966,-0.29062 -3.18427,-0.75591 -6.35041,-1.74005 -9.04478,-3.66352 -1.76239,-1.53323 -3.27609,-3.23935 -3.98225,-5.51145 -0.88823,-2.38588 -0.42461,-5.09986 -1.64011,-7.43895 -1.79367,-4.09712 -4.41933,-7.76568 -7.62664,-10.88478 -3.05468,-2.88541 -6.52388,-5.05749 -10.31671,-6.86998 -2.70864,-1.22772 -5.42277,-1.05027 -8.36261,-0.99897 -4.33945,-0.0179 -8.67884,-0.0415 -13.01834,-0.0298 -3.67778,0.006 -7.35635,0.006 -11.03288,0.11279 -0.66549,0.003 -1.32967,0.006 -1.99484,-0.0268 -1.17233,-0.0298 -2.34413,-0.0644 -3.51512,-0.1301 -3.11701,-0.12443 -6.23698,-0.0818 -9.35238,0.0794 -12.96663,0.84623 -25.78175,3.06411 -38.5513,5.40338 -36.4655,6.92599 -72.52127,15.56021 -108.03534,26.42346 -25.41102,7.6687 -51.19573,14.72831 -75.53298,25.45357 0,0 24.78407,-19.58722 24.78407,-19.58722 z"
         inkscape:connector-curvature="0" />
      <path
         style="font-size:463.45053101px;font-style:normal;font-variant:normal;font-weight:normal;font-stretch:normal;text-align:center;line-height:125%;writing-mode:lr-tb;text-anchor:middle;fill:#262f28;fill-opacity:1;stroke:none;font-family:Abyssinica SIL;-inkscape-font-specification:Abyssinica SIL"
         id="path2845"
         d="m 346.2423,665.87107 0,-18.10354 19.4613,-1.35776 c 2.86609,-0.30171 5.20446,-1.35775 7.01512,-3.16812 1.81005,-1.81033 2.71522,-4.1487 2.71553,-7.01512 l 0,-118.12558 c -3.1e-4,-7.24126 -0.67919,-13.72835 -2.03665,-19.4613 -1.35807,-5.88347 -3.69644,-10.86194 -7.01512,-14.93542 -3.16841,-4.0731 -7.39257,-7.24122 -12.67247,-9.50435 -5.28048,-2.26275 -11.76758,-3.39422 -19.4613,-3.39441 -3.9227,1.9e-4 -8.07142,0.37735 -12.44619,1.13147 -4.22441,0.60364 -8.52399,1.50882 -12.89877,2.71553 -4.22439,1.05623 -8.44855,2.41399 -12.67247,4.07329 -4.07352,1.50882 -7.92052,3.16831 -11.54101,4.97847 l 0,152.5223 c -2.1e-4,2.86642 0.90496,5.20479 2.71553,7.01512 1.81014,1.81037 4.14851,2.86641 7.01513,3.16812 l 19.4613,1.35776 0,18.10354 -101.6061,0 0,-18.10354 19.4613,-1.35776 c 2.86623,-0.30171 5.2046,-1.35775 7.01512,-3.16812 1.81018,-1.81033 2.71536,-4.1487 2.71553,-7.01512 l 0,-121.0674 c -1.7e-4,-6.48694 -0.75449,-12.44602 -2.26294,-17.87724 -1.35794,-5.58175 -3.69631,-10.25849 -7.01512,-14.03024 -3.16828,-3.92225 -7.39244,-6.9395 -12.67248,-9.05177 -5.12948,-2.26275 -11.39028,-3.39422 -18.78242,-3.39441 -4.37515,1.9e-4 -8.97646,0.45278 -13.80394,1.35776 -4.67686,0.75451 -9.20274,1.81055 -13.57765,3.16812 -4.37513,1.20709 -8.52385,2.64029 -12.44619,4.29959 -3.77166,1.50881 -7.0152,3.01744 -9.73065,4.52588 l 0,152.06971 c -8e-5,2.86642 0.90509,5.20479 2.71553,7.01512 1.81027,1.81037 4.14864,2.86641 7.01512,3.16812 l 19.46131,1.35776 0,18.10354 -104.774221,0 0,-18.10354 22.629421,-1.35776 c 2.86636,-0.30171 5.20473,-1.35775 7.01512,-3.16812 1.81031,-1.81033 2.71549,-4.1487 2.71553,-7.01512 l 0,-160.89518 -31.907482,0 0,-15.16171 56.120962,-17.65095 19.00871,0 0,23.08201 c 5.12925,-3.16792 10.7866,-6.41146 16.97207,-9.73065 6.33613,-3.31877 12.82322,-6.41146 19.4613,-9.27806 6.63784,-2.86618 13.27579,-5.20455 19.91389,-7.01513 6.78868,-1.81012 13.20034,-2.7153 19.23501,-2.71553 6.63779,2.3e-4 12.6723,0.98084 18.10353,2.94183 5.43088,1.81058 10.18305,4.29981 14.25654,7.46771 4.22396,3.01747 7.84466,6.48731 10.86212,10.40953 3.16791,3.77178 5.73258,7.54334 7.694,11.31471 4.67654,-2.86619 10.33388,-6.18517 16.97207,-9.95694 6.63773,-3.77136 13.65284,-7.2412 21.04536,-10.40954 7.39202,-3.31876 14.78429,-6.10972 22.17683,-8.37288 7.392,-2.26272 14.18082,-3.39419 20.36648,-3.39442 12.21958,2.3e-4 22.17652,2.26317 29.87084,6.78883 7.69367,4.37524 13.72818,10.03259 18.10353,16.97207 4.52554,6.78902 7.61823,14.40758 9.27806,22.85571 1.65914,8.44849 2.48889,16.59507 2.48924,24.43977 l 0,128.30882 c -3.5e-4,2.86642 0.90483,5.20479 2.71553,7.01512 1.96086,1.81037 4.29923,2.86641 7.01512,3.16812 l 22.40313,1.35776 0,18.10354 -103.86904,0" />
      <path
         style="font-size:463.45053101px;font-style:normal;font-variant:normal;font-weight:normal;font-stretch:normal;text-align:center;line-height:125%;writing-mode:lr-tb;text-anchor:middle;fill:#262f28;fill-opacity:1;stroke:none;font-family:Abyssinica SIL;-inkscape-font-specification:Abyssinica SIL"
         id="path2847"
         d="M 676.85814,463.33776 587.92452,680.1276 c -1.50876,3.77156 -3.62084,8.82546 -6.33624,15.16172 -2.71565,6.3362 -5.9592,13.04959 -9.73065,20.14018 -3.62082,7.24136 -7.69411,14.3319 -12.21989,21.27166 -4.37512,6.93961 -8.97643,12.82325 -13.80395,17.65094 -5.582,5.58183 -11.76737,9.88142 -18.55612,12.89877 -6.63803,3.16802 -13.87943,4.75208 -21.72425,4.75218 -5.4311,-10e-5 -10.2587,-0.75442 -14.48282,-2.26294 -4.22419,-1.35787 -7.76946,-3.24365 -10.63583,-5.65736 -2.86641,-2.4139 -5.05392,-5.28029 -6.56253,-8.59918 -1.50864,-3.1682 -2.26296,-6.48718 -2.26295,-9.95694 -10e-6,-5.28027 1.13146,-10.18331 3.39442,-14.70912 2.41378,-4.37509 6.26078,-8.7501 11.541,-13.12507 l 43.44849,19.91389 c 3.7715,-3.77164 7.61849,-8.7501 11.541,-14.93542 3.92235,-6.03456 7.61849,-12.44622 11.08842,-19.235 3.46975,-6.78886 6.63786,-13.57768 9.50436,-20.36648 2.86628,-6.63797 5.12922,-12.52162 6.78882,-17.65095 l -78.75038,-202.08072 -25.57125,-2.71553 0,-18.10354 102.51128,0 0,18.10354 -22.17683,1.35776 c -2.56475,0.30193 -4.6014,1.4334 -6.10995,3.39441 -1.5087,1.96142 -1.81043,4.22436 -0.90517,6.78883 l 53.85802,136.6817 54.98949,-136.6817 c 1.05585,-2.41361 0.90499,-4.60112 -0.45259,-6.56253 -1.35795,-2.11188 -3.31916,-3.31878 -5.88365,-3.62071 l -21.95054,-1.35776 0,-18.10354 82.59739,0 0,18.10354 -24.21348,2.71553" />
      <path
         style="font-size:463.45053101px;font-style:normal;font-variant:normal;font-weight:normal;font-stretch:normal;text-align:center;line-height:125%;writing-mode:lr-tb;text-anchor:middle;fill:#262f28;fill-opacity:1;stroke:none;font-family:Abyssinica SIL;-inkscape-font-specification:Abyssinica SIL"
         id="path2849"
         d="m 946.82709,543.4459 c -2.4e-4,17.50019 -2.5649,33.71793 -7.694,48.65326 -5.12956,14.78461 -13.12528,27.68337 -23.98719,38.69631 -10.71145,11.01301 -24.51539,19.61218 -41.41184,25.79754 -16.74592,6.18538 -36.73522,9.27806 -59.96796,9.27806 l -66.75679,0 0,-308.21271 -35.0756,0 0,-15.388 59.74167,-17.87725 18.55612,0 0,129.66658 c 2.71545,-1.20669 6.26072,-2.79074 10.63583,-4.75217 4.37492,-1.961 9.35339,-3.84679 14.93542,-5.65736 5.73267,-1.81013 11.84261,-3.39419 18.32983,-4.75218 6.48696,-1.35753 13.12492,-2.03642 19.91389,-2.03665 15.23698,2.3e-4 28.58832,2.86662 40.05407,8.59918 11.61624,5.73301 21.34688,13.50243 29.19196,23.30831 7.84464,9.80627 13.72828,21.1964 17.65094,34.17042 3.9222,12.82349 5.88341,26.3257 5.88365,40.50666 m -47.29549,9.27807 c -1.9e-4,-29.11638 -6.26099,-51.14233 -18.78241,-66.07791 -12.37092,-14.93522 -29.72012,-22.40293 -52.04767,-22.40313 -2.56479,2e-4 -5.58204,0.2265 -9.05177,0.67889 -3.46996,0.45278 -7.01523,1.05624 -10.63583,1.81035 -3.46994,0.75451 -6.93978,1.58426 -10.40953,2.48924 -3.31907,0.90537 -6.11003,1.73511 -8.37289,2.48923 l 0,171.9836 c 2.56458,0.15088 5.20468,0.22631 7.9203,0.22629 2.26285,0.15089 4.67665,0.22632 7.24142,0.2263 2.71542,2e-5 5.20466,2e-5 7.4677,0 13.7284,2e-5 25.94827,-1.58404 36.65966,-4.75218 10.71111,-3.16809 19.76287,-8.37285 27.15531,-15.6143 7.3921,-7.24137 13.04945,-16.67028 16.97206,-28.28678 3.92225,-11.61635 5.88346,-25.87287 5.88365,-42.7696" />
      <path
         style="font-size:463.45053101px;font-style:normal;font-variant:normal;font-weight:normal;font-stretch:normal;text-align:center;line-height:125%;writing-mode:lr-tb;text-anchor:middle;fill:#262f28;fill-opacity:1;stroke:none;font-family:Abyssinica SIL;-inkscape-font-specification:Abyssinica SIL"
         id="path2851"
         d="m 1122.8841,665.87107 -6.1099,-27.3816 c -8.1468,6.1854 -16.5197,11.69188 -25.1187,16.51948 -3.7717,2.11209 -7.7696,4.14873 -11.9936,6.10994 -4.2243,1.96122 -8.5993,3.69614 -13.1251,5.20477 -4.3751,1.65949 -8.901,2.94182 -13.5776,3.847 -4.526,0.90517 -9.0519,1.35776 -13.5777,1.35776 -8.4484,0 -16.3686,-1.4332 -23.7609,-4.29959 -7.2414,-2.86639 -13.5776,-7.01511 -19.00874,-12.44618 -5.43106,-5.43104 -9.73065,-11.99357 -12.89874,-19.68759 -3.01727,-7.69397 -4.5259,-16.444 -4.52589,-26.25013 -10e-6,-5.73272 0.52801,-11.16378 1.58406,-16.29318 1.20689,-5.12926 3.54526,-10.10773 7.01512,-14.93542 3.46982,-4.82752 8.29745,-9.42883 14.48289,-13.80395 6.3362,-4.52577 14.5582,-8.97622 24.6661,-13.35135 10.2585,-4.37491 22.7047,-8.67449 37.3385,-12.89877 14.7844,-4.37489 32.2845,-8.74991 52.5003,-13.12507 l 0,-19.91389 c -2e-4,-15.53869 -3.47,-27.00425 -10.4096,-34.39672 -6.9398,-7.54293 -17.8773,-11.3145 -32.8126,-11.31471 -8.1467,2.1e-4 -15.0864,0.75452 -20.8191,2.26294 -5.7329,1.50884 -9.7307,2.71574 -11.9936,3.62071 l 0,40.28037 -33.7178,0 c -2.1122,1.6e-4 -4.2242,-0.1507 -6.3363,-0.45259 -1.96124,-0.30156 -3.77164,-0.90501 -5.43104,-1.81035 -1.6596,-1.05588 -3.0173,-2.41364 -4.07333,-4.0733 -0.90521,-1.81018 -1.35779,-4.14855 -1.35777,-7.01512 -2e-5,-9.50417 2.8664,-17.65075 8.5992,-24.43977 5.73274,-6.93949 13.20044,-12.67227 22.40314,-17.19836 9.2026,-4.52567 19.5367,-7.84464 31.0023,-9.95695 11.4655,-2.11185 22.931,-3.16789 34.3967,-3.16812 14.3319,2.3e-4 26.1746,1.73515 35.5282,5.20477 9.5042,3.47007 16.9719,8.29767 22.4031,14.48283 5.5818,6.18558 9.5042,13.50242 11.7673,21.95054 2.2628,8.44849 3.3943,17.72655 3.3945,27.83419 l 0,129.89287 c -2e-4,2.86642 0.9049,5.20479 2.7155,7.01512 1.961,1.81037 4.2994,2.86641 7.0151,3.16812 l 22.4031,1.35776 0,18.10354 -68.5671,0 m -6.1099,-123.78293 c -20.8192,5.28032 -37.3387,10.48508 -49.5585,15.6143 -12.22,5.12944 -21.498,10.3342 -27.8342,15.6143 -6.1854,5.12942 -10.1833,10.40962 -11.9936,15.84059 -1.6595,5.28027 -2.4893,10.78676 -2.4892,16.51948 -10e-5,4.82767 0.7543,9.57984 2.2629,14.25654 1.6595,4.52592 3.9224,8.59921 6.7889,12.21988 3.0172,3.62074 6.6379,6.56256 10.8621,8.82548 4.3749,2.1121 9.3534,3.16814 14.9354,3.16812 6.1853,2e-5 12.5969,-1.13145 19.235,-3.39442 6.7887,-2.26291 12.9741,-4.75215 18.5561,-7.46771 6.487,-3.16808 12.8987,-6.86421 19.2351,-11.08841 l 0,-80.10815" />
      <path
         style="font-size:463.45053101px;font-style:normal;font-variant:normal;font-weight:normal;font-stretch:normal;text-align:center;line-height:125%;writing-mode:lr-tb;text-anchor:middle;fill:#262f28;fill-opacity:1;stroke:none;font-family:Abyssinica SIL;-inkscape-font-specification:Abyssinica SIL"
         id="path2853"
         d="m 1353.0253,656.14042 c -5.733,2.8664 -11.9938,5.43106 -18.7824,7.694 -5.733,1.96122 -12.3709,3.69614 -19.9139,5.20477 -7.5433,1.65948 -15.4636,2.48923 -23.7609,2.48923 -17.5002,0 -30.1726,-4.07329 -38.0175,-12.21988 -7.8449,-8.14658 -11.7673,-21.42249 -11.7673,-39.82778 l 0,-153.88006 -29.6445,0 0,-15.16171 31.6812,-14.93542 20.8191,-49.10584 20.3664,0 0,56.12096 65.3991,0 0,23.08201 -65.3991,0 0,129.44028 c 0,9.2027 0.7543,17.04755 2.263,23.5346 1.6594,6.33628 3.9978,11.54104 7.0151,15.6143 3.168,3.92246 7.015,6.78885 11.541,8.59918 4.6766,1.81038 10.1077,2.71555 16.2932,2.71553 4.5257,2e-5 8.6745,-0.37714 12.4462,-1.13147 3.9223,-0.75429 7.3167,-1.65947 10.1832,-2.71553 3.3188,-1.20688 6.4115,-2.56464 9.2781,-4.0733 l 0,18.55613" />
      <path
         style="font-size:463.45053101px;font-style:normal;font-variant:normal;font-weight:normal;font-stretch:normal;text-align:center;line-height:125%;writing-mode:lr-tb;text-anchor:middle;fill:#262f28;fill-opacity:1;stroke:none;font-family:Abyssinica SIL;-inkscape-font-specification:Abyssinica SIL"
         id="path2855"
         d="m 1458.0258,366.03125 c -10e-5,3.92273 -0.7544,7.69429 -2.2629,11.31471 -1.3579,3.47013 -3.3191,6.48738 -5.8836,9.05177 -2.5648,2.56494 -5.5821,4.60159 -9.0518,6.10994 -3.3191,1.5089 -6.9398,2.26321 -10.8621,2.26294 -3.9225,2.7e-4 -7.6941,-0.75404 -11.3147,-2.26294 -3.4699,-1.50835 -6.4872,-3.545 -9.0518,-6.10994 -2.5647,-2.56439 -4.6014,-5.58164 -6.11,-9.05177 -1.5086,-3.62042 -2.2629,-7.39198 -2.2629,-11.31471 0,-3.92213 0.7543,-7.61827 2.2629,-11.08842 1.5086,-3.46953 3.5453,-6.48678 6.11,-9.05177 2.5646,-2.56434 5.5819,-4.52556 9.0518,-5.88365 3.6206,-1.5083 7.3922,-2.26261 11.3147,-2.26294 3.9223,3.3e-4 7.543,0.75464 10.8621,2.26294 3.4697,1.35809 6.487,3.31931 9.0518,5.88365 2.5645,2.56499 4.5257,5.58224 5.8836,9.05177 1.5085,3.47015 2.2628,7.16629 2.2629,11.08842 m -85.0866,299.83982 0,-18.10354 22.6294,-1.35776 c 2.8664,-0.30171 5.2048,-1.35775 7.0152,-3.16812 1.8103,-1.81033 2.7155,-4.1487 2.7155,-7.01512 l 0,-165.42106 -31.9075,0 0,-16.29319 56.5736,-17.65095 18.3298,0 0,199.3652 c -10e-5,2.86642 0.9051,5.20479 2.7155,7.01512 1.9611,1.81037 4.2995,2.86641 7.0151,3.16812 l 23.7609,1.35776 0,18.10354 -108.8475,0" />
      <path
         style="font-size:463.45053101px;font-style:normal;font-variant:normal;font-weight:normal;font-stretch:normal;text-align:center;line-height:125%;writing-mode:lr-tb;text-anchor:middle;fill:#262f28;fill-opacity:1;stroke:none;font-family:Abyssinica SIL;-inkscape-font-specification:Abyssinica SIL"
         id="path2857"
         d="m 1665.9902,598.66169 c -2e-4,11.31477 -2.0368,21.498 -6.11,30.54972 -4.0734,9.05179 -9.8816,16.74579 -17.4246,23.08201 -7.5433,6.18538 -16.8213,10.93755 -27.8342,14.25653 -11.0131,3.31898 -23.3838,4.97847 -37.1122,4.97847 -7.0907,0 -14.0304,-0.45259 -20.8191,-1.35776 -6.638,-0.75432 -12.8234,-1.81036 -18.5561,-3.16812 -5.582,-1.2069 -10.5605,-2.48923 -14.9355,-3.847 -4.375,-1.35776 -7.694,-2.48923 -9.9569,-3.39441 l 0,-61.55203 23.5346,0 5.6573,39.37519 c 4.6767,3.01729 10.4095,5.95911 17.1984,8.82548 6.9396,2.71555 14.9353,4.07331 23.9872,4.07329 6.6379,2e-5 12.5215,-0.98059 17.6509,-2.94182 5.1293,-2.11206 9.4289,-4.82759 12.8988,-8.14659 3.6206,-3.31895 6.3361,-7.09052 8.1466,-11.31471 1.9611,-4.37498 2.9417,-8.90086 2.9418,-13.57766 -10e-5,-6.48704 -1.2824,-11.99352 -3.847,-16.51947 -2.5648,-4.67668 -6.2609,-8.8254 -11.0884,-12.44618 -4.8277,-3.77149 -10.7868,-7.39219 -17.8772,-10.86213 -6.9398,-3.46974 -14.8601,-7.39217 -23.7609,-11.76729 -8.4484,-4.07319 -15.9161,-8.07105 -22.4031,-11.9936 -6.4872,-4.07317 -11.9937,-8.37276 -16.5195,-12.89877 -4.3751,-4.67661 -7.6941,-9.73051 -9.957,-15.16171 -2.2629,-5.58177 -3.3944,-11.84257 -3.3944,-18.78242 0,-10.2585 1.8103,-19.53655 5.4311,-27.83418 3.7715,-8.29726 9.2026,-15.31237 16.2932,-21.04537 7.0905,-5.88343 15.7651,-10.40931 26.0238,-13.57765 10.4094,-3.16789 22.3276,-4.75195 35.7545,-4.75218 6.7887,2.3e-4 13.2758,0.37739 19.4613,1.13148 6.1852,0.75454 11.8426,1.65971 16.972,2.71553 5.1292,1.05626 9.6551,2.18773 13.5777,3.39441 3.9223,1.20712 7.015,2.33859 9.2781,3.39441 l 0,54.7632 -24.2135,0 -3.6207,-32.36007 c -3.3191,-2.56447 -8.2222,-4.97827 -14.7092,-7.24142 -6.4872,-2.26273 -13.3514,-3.3942 -20.5927,-3.39441 -12.8234,2.1e-4 -22.3278,2.94203 -28.5131,8.82547 -6.0346,5.73298 -9.0518,13.12525 -9.0518,22.17684 0,5.28037 0.8297,9.88168 2.4893,13.80394 1.8103,3.92259 4.6767,7.61873 8.5992,11.08842 4.0732,3.46999 9.3534,7.01526 15.8405,10.63583 6.6379,3.62084 14.8599,7.69413 24.6661,12.21988 8.1465,3.62084 15.6142,7.3924 22.4031,11.31471 6.7887,3.92255 12.6724,8.29757 17.651,13.12507 4.9783,4.82771 8.8253,10.18333 11.541,16.06689 2.8662,5.88373 4.2994,12.59712 4.2996,20.14018" />
    </g>
  </g>
</svg>
