<?xml version="1.0" encoding="UTF-8" standalone="no"?>
<!-- Created with Inkscape (http://www.inkscape.org/) -->

<svg
   xmlns:dc="http://purl.org/dc/elements/1.1/"
   xmlns:cc="http://creativecommons.org/ns#"
   xmlns:rdf="http://www.w3.org/1999/02/22-rdf-syntax-ns#"
   xmlns:svg="http://www.w3.org/2000/svg"
   xmlns="http://www.w3.org/2000/svg"
   xmlns:xlink="http://www.w3.org/1999/xlink"
   xmlns:sodipodi="http://sodipodi.sourceforge.net/DTD/sodipodi-0.dtd"
   xmlns:inkscape="http://www.inkscape.org/namespaces/inkscape"
   width="792pt"
   height="612pt"
   id="svg2"
   sodipodi:version="0.32"
   inkscape:version="0.48.2 r9819"
   sodipodi:docname="vector-logo-full-bird.svg"
   version="1.0"
   inkscape:export-filename="/home/eduardo/workspace/logo/logo-full-bird.png"
   inkscape:export-xdpi="300"
   inkscape:export-ydpi="300">
  <defs
     id="defs4">
    <linearGradient
       id="linearGradient3038">
      <stop
         style="stop-color:#757769;stop-opacity:1;"
         offset="0"
         id="stop3040" />
      <stop
         style="stop-color:#fff8cb;stop-opacity:1;"
         offset="1"
         id="stop3042" />
    </linearGradient>
    <linearGradient
       inkscape:collect="always"
       xlink:href="#linearGradient3038"
       id="linearGradient3006"
       x1="2.8356823"
       y1="315.94816"
       x2="915.59414"
       y2="315.94816"
       gradientUnits="userSpaceOnUse" />
    <linearGradient
       inkscape:collect="always"
       xlink:href="#linearGradient3038"
       id="linearGradient3029"
       gradientUnits="userSpaceOnUse"
       x1="2.8356823"
       y1="315.94816"
       x2="915.59414"
       y2="315.94816" />
    <linearGradient
       inkscape:collect="always"
       xlink:href="#linearGradient3038"
       id="linearGradient3027"
       gradientUnits="userSpaceOnUse"
       x1="2.8356823"
       y1="315.94816"
       x2="915.59414"
       y2="315.94816"
       gradientTransform="matrix(0.94276793,0,0,1,2.8982169,0)" />
  </defs>
  <sodipodi:namedview
     id="base"
     pagecolor="#ffffff"
     bordercolor="#666666"
     borderopacity="1.0"
     inkscape:pageopacity="0.0"
     inkscape:pageshadow="2"
     inkscape:zoom="1.1036412"
     inkscape:cx="603.53786"
     inkscape:cy="448.76048"
     inkscape:document-units="px"
     inkscape:current-layer="BirdBatis"
     inkscape:window-width="1366"
     inkscape:window-height="744"
     inkscape:window-x="0"
     inkscape:window-y="24"
     showgrid="false"
     inkscape:window-maximized="1"
     inkscape:object-nodes="true"
     inkscape:object-paths="true"
     inkscape:snap-intersection-paths="false"
     inkscape:snap-smooth-nodes="false"
     inkscape:snap-nodes="false" />
  <metadata
     id="metadata7">
    <rdf:RDF>
      <cc:Work
         rdf:about="">
        <dc:format>image/svg+xml</dc:format>
        <dc:type
           rdf:resource="http://purl.org/dc/dcmitype/StillImage" />
        <dc:title />
      </cc:Work>
    </rdf:RDF>
  </metadata>
  <g
     inkscape:label="Layer 1"
     inkscape:groupmode="layer"
     id="layer1">
    <g
       id="BirdBatis"
       inkscape:label="#g2568"
       transform="matrix(0.428474,0,0,0.428474,290.0398,209.1822)">
      <path
         style="fill:url(#linearGradient3027);fill-opacity:1"
         d="m 483.24906,574.97223 c 95.31294,12.8487 194.46272,-19.20938 270.76637,-79.76475 39.46555,-41.72205 57.75941,-95.95223 87.36902,-145.39853 19.32515,-55.74794 22.91202,-96.92691 23.15314,-154.39907 C 862.62877,137.58049 870.12391,78.39296 862.82667,21.101008 839.2671,-31.615644 774.27648,-37.988791 725.78783,-33.670794 658.58349,-22.399746 617.73596,41.047023 573.19113,88.916652 532.17712,139.55039 487.43359,186.50013 440.66337,230.98299 295.72501,521.19478 194.56949,536.36625 278.23369,512.15689 c 44.93178,-10.38328 95.85674,-5.04866 131.54609,28.23298 22.80522,15.01786 47.06885,28.42105 73.46928,34.58236 z"
         id="Body"
         inkscape:connector-curvature="0"
         sodipodi:nodetypes="ccccccccccc" />
      <path
         style="fill:#9a947d;stroke:none"
         d="M 860.32542,9.5243578 C 828.46468,-33.854524 743.71824,-55.490647 678.71675,-15.354464 c 53.88775,-10.124473 118.90222,1.057197 153.34413,41.86527 10.53603,-6.992824 17.2539,-10.566651 28.26454,-16.9864482 z"
         id="HeadStripe"
         inkscape:connector-curvature="0"
         sodipodi:nodetypes="cccc" />
      <path
         style="fill:#262f28;fill-opacity:1"
         d="m 545.94045,121.22773 c 24.12143,-25.811401 45.61553,-54.248818 69.61021,-80.157052 17.47383,-16.429879 33.55392,-34.62882 52.71275,-48.9432934 28.38934,-6.9673536 67.22364,-2.1613306 95.23175,11.6852109 20.74234,11.0407505 30.88185,22.1755835 43.62291,43.0227965 -15.64282,2.970338 -28.24169,14.395417 -41.86821,22.391373 -33.03485,21.512353 -65.42579,44.865975 -101.51544,60.335295 -25.54434,8.42969 -52.63024,-4.59355 -71.1022,-23.21616 -7.17988,-7.852099 -17.61973,-3.96802 -25.39942,0.40853 -7.53719,4.05758 -14.30024,9.48562 -21.29235,14.4733 z"
         id="EyeMask"
         inkscape:connector-curvature="0"
         sodipodi:nodetypes="cccccccccc" />
      <path
         inkscape:label="#path1343"
         sodipodi:nodetypes="cccccc"
         id="Chest"
         d="m 854.32906,308.26666 c 7.02006,-26.81537 11.58675,-80.78429 9.90605,-87.36421 -43.22477,2.19112 -156.57089,-31.70336 -197.32567,-51.99565 57.79883,54.68467 51.25247,44.65306 64.82709,79.52008 13.17999,17.03326 -10.26277,48.00647 -12.19087,66.94948 55.62766,53.36783 114.89829,61.3914 134.7834,-7.1097 z"
         style="fill:#693310;fill-opacity:1;stroke:none"
         inkscape:connector-curvature="0" />
      <path
         inkscape:label="#Tail"
         sodipodi:nodetypes="ccccc"
         id="TailUpper"
         d="M 462.64726,357.31581 C 331.93823,416.89137 194.75498,638.66398 50.639734,626.49825 49.21342,619.98394 198.7504,504.2143 240.48911,471.98791 c 32.84635,-25.32099 64.13404,-68.67477 64.65274,-81.71675 20.92102,-8.43288 133.04298,-33.67704 157.50541,-32.95535 z"
         style="fill:#262f28;fill-opacity:1;stroke:none"
         inkscape:connector-curvature="0" />
      <path
         inkscape:label="#path1339"
         sodipodi:nodetypes="ccccssccccsccccsc"
         id="LegLeft"
         d="m 550.81927,695.75189 c 6.34499,-0.0309 41.69092,8.38471 55.0892,14.82123 12.53941,21.07145 14.49808,19.22404 18.63587,-6.28698 -50.79809,-27.75745 -68.99931,-10.22495 -91.53183,-39.64434 -26.82362,-37.52047 -31.20139,-59.27633 -38.45563,-84.44826 -3.09179,-10.72838 -8.23708,-22.11215 -16.79159,-27.14504 -8.55451,-5.03288 -23.72837,5.17465 -18.74004,17.46473 9.60683,2.22909 31.20286,56.35197 63.01425,108.63099 -12.46019,-13.68415 -44.14012,-13.21087 -48.38642,-10.50146 -6.51927,11.2425 -12.96232,40.4849 3.83934,41.30109 -1.26386,-10.67949 -9.50417,-21.38308 1.55559,-24.78915 11.50163,-3.54216 43.17438,1.441 52.66164,12.8172 7.56985,17.42187 30.54616,44.23674 73.19879,72.20567 3.10334,13.18036 -5.47566,19.57209 11.66703,7.05994 -1.6252,-7.89213 0.55897,-13.25887 -4.87558,-23.67638 0,0 -23.80209,-16.1473 -37.77773,-25.82813 -13.97566,-9.68083 -20.98189,-16.43072 -23.10289,-31.98111 z"
         style="fill:#1e211e"
         inkscape:connector-curvature="0" />
      <path
         inkscape:label="#path2515"
         sodipodi:nodetypes="scccccccsccccsccs"
         id="LegRight"
         d="m 809.16873,569.62036 c -3.66519,-13.54844 -12.01941,-15.16701 -55.27632,-41.73133 9.15458,1.93832 63.42353,31.56106 75.6358,43.74341 -6.43307,39.35029 10.74399,9.52056 7.2271,-7.62937 -9.05257,-8.28401 -58.26994,-40.31211 -72.35437,-47.49885 17.61694,6.23441 39.3436,9.20517 63.44645,25.0302 -1.3518,6.01957 1.65205,3.1726 -2.8719,8.13411 7.25849,-1.58848 10.31683,-1.14488 8.59232,-11.49315 -11.00984,-8.83304 -49.65868,-29.97318 -62.484,-31.54514 -12.82531,-1.57197 -23.87369,-3.02119 -28.48996,-0.50411 -15.33202,11.68528 -64.43354,36.93299 -83.73719,44.537 -4.61666,5.33115 -0.0389,17.26226 3.86352,19.73944 -0.18024,-5.76446 -0.97122,-9.17847 3.02054,-16.01988 12.8009,-7.34648 44.66963,-17.36275 59.09673,-16.38121 28.85419,1.96307 54.36753,17.10771 72.54696,31.53597 6.44483,7.45083 0.82981,11.73527 1.24471,17.6029 7.16384,-4.07223 11.8537,-12.66238 10.53961,-17.51999 z"
         style="fill:#1e211e;fill-opacity:1;stroke:none"
         inkscape:connector-curvature="0" />
      <g
         inkscape:label="#g2532"
         id="Beak"
         transform="matrix(-0.94276793,0,0,1,882.59258,0)">
        <path
           style="fill:#1e211e"
           d="m 104.97095,57.474269 c -36.118172,7.238325 -54.418214,7.429334 -84.595356,6.431724 -24.4628554,-15.640466 -42.777422,-30.94228 -56.4453,-48.063633 10.281628,0.444306 26.4461767,3.734805 50.502015,10.038875 24.055838,6.30407 52.977576,14.808728 90.538641,31.593034 z"
           id="BeakLower"
           sodipodi:nodetypes="cccsc"
           inkscape:label="#path2513"
           inkscape:connector-curvature="0" />
        <path
           sodipodi:nodetypes="cccsc"
           id="BeakUpper"
           d="M 104.97095,57.474269 C 53.5993,26.510806 53.5993,26.510806 23.618916,9.5243578 -5.3967576,8.4537588 -14.165207,12.391112 -35.86397,15.827093 c 27.2767542,4.0602 37.9734886,6.630202 53.795158,11.349642 26.877505,8.017281 45.17643,13.066709 87.039762,30.297534 z"
           style="fill:#879287;fill-opacity:1"
           inkscape:label="#path2530"
           inkscape:connector-curvature="0" />
      </g>
      <path
         transform="matrix(-1.0363524,0,0,1,907.23395,-1.785711)"
         d="m 202.14285,38.612183 a 23.75,22.678572 0 1 1 -47.5,0 23.75,22.678572 0 1 1 47.5,0 z"
         sodipodi:ry="22.678572"
         sodipodi:rx="23.75"
         sodipodi:cy="38.612183"
         sodipodi:cx="178.39285"
         id="path2541"
         style="fill:#f0f088;fill-opacity:1;stroke:none"
         sodipodi:type="arc" />
      <path
         style="fill:#000000;fill-opacity:1;stroke:none"
         d="m 722.4973,19.780202 c -9.71381,0 -17.52534,7.467753 -17.52534,16.698796 0,9.231046 7.81153,16.698796 17.52534,16.698796 9.7138,0 17.62433,-7.46775 17.62433,-16.698796 0,-9.231043 -7.91053,-16.698796 -17.62433,-16.698796 z"
         id="path2543"
         inkscape:connector-curvature="0" />
      <path
         style="fill:#262f28;fill-opacity:1"
         d="m 670.83687,171.18382 c 33.02504,22.30998 66.44182,55.75076 66.19152,98.26149 -4.95705,43.88095 -33.07224,65.63739 -88.32797,84.2332 -37.96716,18.20777 -92.22713,31.62897 -149.25954,46.7183 -92.14675,27.52826 -176.67817,38.86725 -267.28643,59.93977 -50.95578,5.52388 13.62404,-65.73311 28.02657,-85.1903 51.79721,-76.5828 118.32396,-144.31592 199.42581,-189.70306 50.36133,-29.74433 111.66166,-49.21192 169.74051,-32.12022 14.56877,3.98662 28.61789,9.94235 41.48953,17.86082 z"
         id="WingBackground"
         inkscape:connector-curvature="0"
         sodipodi:nodetypes="ccccccccc" />
      <path
         inkscape:connector-curvature="0"
         inkscape:label="#path1347"
         sodipodi:nodetypes="cccsccc"
         id="WingTip"
         d="m 226.73008,449.75551 c 43.69516,-25.61983 60.18694,-34.55567 106.25933,-54.64344 -12.52175,8.23883 -27.94148,12.53714 -49.04314,32.35034 18.8455,-4.16809 33.81762,-13.45758 78.46843,-21.67796 22.3254,-4.11019 -2.22661,3.8942 -10.76188,9.57159 50.68672,-4.73909 127.0786,-26.00761 131.66526,-25.24378 -37.94524,-93.70254 -193.51522,-3.95717 -256.588,59.64325 z"
         style="fill:#9a947d;stroke:none" />
      <path
         sodipodi:nodetypes="ccc"
         inkscape:connector-curvature="0"
         id="WingStripe"
         d="M 650.74523,265.65179 C 450.21318,318.3885 400.16157,294.11116 217.09364,450.00465 466.00217,122.10221 678.40583,232.5018 650.74523,265.65179 z"
         style="fill:#f5efd7;fill-opacity:0.80327866;fill-rule:evenodd;stroke:none" />
      <path
         style="fill:#000000;fill-opacity:0"
         id="path3153"
         d="m 696.92656,-31.355433 c 17.43461,-7.290104 35.65934,-12.278785 53.62686,-17.851702 26.55854,-8.528755 53.51165,-15.347349 80.68506,-21.229876 9.84892,-2.117795 19.72273,-4.183544 29.76185,-4.904148 2.46098,-0.134898 4.93286,-0.233737 7.39677,-0.114826 0.85085,0.03337 1.70234,0.03431 2.55363,0.02964 0.49093,-0.014 0.98116,-0.014 1.47207,-0.0093 2.63544,0.08542 5.27256,0.08309 7.90897,0.08682 3.22019,0.0093 6.44027,-0.0093 9.6604,-0.02357 2.99548,-0.364666 4.2147,0.280857 6.78876,1.677815 2.95407,1.640753 5.56549,3.601432 7.92132,6.105925 2.49918,2.709382 4.57594,5.844088 6.11256,9.263362 0.99995,1.848024 1.0021,3.982575 1.45833,5.983047 0.34776,1.375253 1.16684,2.272997 2.23884,3.076173 1.87852,1.076004 3.88376,1.573187 5.9839,1.944435 0.3377,0.04924 0.67538,0.09849 1.01308,0.147734 0,0 -19.14294,14.224106 -19.14294,14.224106 l 0,0 c -0.33911,-0.07585 -0.67824,-0.151701 -1.01735,-0.227318 -2.34806,-0.591238 -4.68275,-1.360993 -6.66957,-2.865448 -1.29958,-1.199233 -2.41577,-2.533689 -2.93649,-4.310833 -0.65498,-1.866135 -0.3131,-3.9889 -1.20941,-5.81844 -1.32264,-3.204605 -3.25879,-6.073997 -5.62383,-8.513632 -2.25251,-2.256846 -4.81068,-3.955759 -7.60749,-5.373418 -1.99734,-0.960268 -3.99873,-0.821473 -6.16654,-0.781354 -3.19989,-0.014 -6.39973,-0.03244 -9.59965,-0.02334 -2.71197,0.0047 -5.42454,0.0047 -8.13558,0.08822 -0.49074,0.0023 -0.9805,0.0047 -1.47099,-0.021 -0.86447,-0.02334 -1.72855,-0.05041 -2.59203,-0.101756 -2.29847,-0.09732 -4.59912,-0.06395 -6.8964,0.06208 -9.56152,0.661883 -19.01131,2.396621 -28.42751,4.2263 -26.88946,5.417225 -53.47677,12.170564 -79.66465,20.667345 -18.73795,5.998147 -37.75144,11.519883 -55.6976,19.908746 0,0 18.27563,-15.320322 18.27563,-15.320322 z"
         inkscape:connector-curvature="0" />
      <path
         inkscape:label="#path2505"
         sodipodi:nodetypes="ccccc"
         id="Beard"
         d="m 865.07852,195.26467 c 0.26643,-23.78131 1.87386,-84.65438 1.23675,-91.50407 -22.49878,4.44091 -64.22087,-1.27478 -79.73621,-7.873343 -13.78446,7.060853 -66.14263,62.480213 -65.76025,70.435353 48.70153,16.66911 91.52184,28.27339 144.25971,28.94206 z"
         style="fill:#693310"
         inkscape:connector-curvature="0" />
      <path
         sodipodi:type="arc"
         style="fill:#ffffff;fill-opacity:1;fill-rule:nonzero"
         id="path3010"
         sodipodi:cx="615.57593"
         sodipodi:cy="225.53574"
         sodipodi:rx="4.4171963"
         sodipodi:ry="3.9641507"
         d="m 619.99312,225.53574 a 4.4171963,3.9641507 0 1 1 -8.83439,0 4.4171963,3.9641507 0 1 1 8.83439,0 z"
         transform="matrix(1.7602336,0,0,1.8670911,-355.87548,-390.76823)" />
    </g>
  </g>
</svg>
