<?xml version="1.0" encoding="UTF-8" standalone="no"?>
<!-- Created with Inkscape (http://www.inkscape.org/) -->

<svg
   xmlns:dc="http://purl.org/dc/elements/1.1/"
   xmlns:cc="http://creativecommons.org/ns#"
   xmlns:rdf="http://www.w3.org/1999/02/22-rdf-syntax-ns#"
   xmlns:svg="http://www.w3.org/2000/svg"
   xmlns="http://www.w3.org/2000/svg"
   xmlns:xlink="http://www.w3.org/1999/xlink"
   xmlns:sodipodi="http://sodipodi.sourceforge.net/DTD/sodipodi-0.dtd"
   xmlns:inkscape="http://www.inkscape.org/namespaces/inkscape"
   width="792pt"
   height="612pt"
   id="svg2"
   sodipodi:version="0.32"
   inkscape:version="0.48.2 r9819"
   sodipodi:docname="vector-logo-full-bird.svg"
   version="1.0"
   inkscape:export-filename="/home/eduardo/workspace/logo/logo-full-bird.png"
   inkscape:export-xdpi="300"
   inkscape:export-ydpi="300">
  <defs
     id="defs4">
    <linearGradient
       id="linearGradient3038">
      <stop
         style="stop-color:#757769;stop-opacity:1;"
         offset="0"
         id="stop3040" />
      <stop
         style="stop-color:#fff8cb;stop-opacity:1;"
         offset="1"
         id="stop3042" />
    </linearGradient>
    <linearGradient
       inkscape:collect="always"
       xlink:href="#linearGradient3038"
       id="linearGradient3006"
       x1="2.8356823"
       y1="315.94816"
       x2="915.59414"
       y2="315.94816"
       gradientUnits="userSpaceOnUse" />
    <linearGradient
       inkscape:collect="always"
       xlink:href="#linearGradient3038"
       id="linearGradient3029"
       gradientUnits="userSpaceOnUse"
       x1="2.8356823"
       y1="315.94816"
       x2="915.59414"
       y2="315.94816" />
  </defs>
  <sodipodi:namedview
     id="base"
     pagecolor="#ffffff"
     bordercolor="#666666"
     borderopacity="1.0"
     inkscape:pageopacity="0.0"
     inkscape:pageshadow="2"
     inkscape:zoom="1.1036412"
     inkscape:cx="603.53786"
     inkscape:cy="448.76048"
     inkscape:document-units="px"
     inkscape:current-layer="BirdBatis"
     inkscape:window-width="1366"
     inkscape:window-height="744"
     inkscape:window-x="0"
     inkscape:window-y="24"
     showgrid="false"
     inkscape:window-maximized="1"
     inkscape:object-nodes="true"
     inkscape:object-paths="true"
     inkscape:snap-intersection-paths="false"
     inkscape:snap-smooth-nodes="false"
     inkscape:snap-nodes="false" />
  <metadata
     id="metadata7">
    <rdf:RDF>
      <cc:Work
         rdf:about="">
        <dc:format>image/svg+xml</dc:format>
        <dc:type
           rdf:resource="http://purl.org/dc/dcmitype/StillImage" />
        <dc:title />
      </cc:Work>
    </rdf:RDF>
  </metadata>
  <g
     inkscape:label="Layer 1"
     inkscape:groupmode="layer"
     id="layer1">
    <g
       id="BirdBatis"
       inkscape:label="#g2568"
       transform="matrix(0.428474,0,0,0.428474,290.0398,209.1822)">
      <g
         id="g3006"
         transform="matrix(0.94276793,0,0,1,2.8982169,0)">
        <path
           sodipodi:nodetypes="ccccccccccc"
           inkscape:connector-curvature="0"
           id="Body"
           d="m 509.51122,574.97223 c 101.09905,12.8487 206.26786,-19.20938 287.20363,-79.76475 41.86137,-41.72205 61.26578,-95.95223 92.67288,-145.39853 20.49832,-55.74794 24.30293,-96.92691 24.55869,-154.39907 -2.0247,-57.82939 5.92544,-117.01692 -1.81479,-174.308872 C 887.14185,-31.615644 818.20588,-37.988791 766.77366,-33.670794 695.48958,-22.399746 652.16234,41.047023 604.91336,88.916652 561.40953,139.55039 513.94978,186.50013 464.34031,230.98299 310.60326,521.19478 203.30695,536.36625 292.05011,512.15689 c 47.65942,-10.38328 101.67585,-5.04866 139.53178,28.23298 24.18964,15.01786 49.92623,28.42105 77.92933,34.58236 z"
           style="fill:url(#linearGradient3029);fill-opacity:1" />
        <path
           sodipodi:nodetypes="cccc"
           inkscape:connector-curvature="0"
           id="HeadStripe"
           d="M 909.47854,9.5243578 C 875.68365,-33.854524 785.79256,-55.490647 716.84506,-15.354464 c 57.15908,-10.124473 126.12035,1.057197 162.6531,41.86527 11.17564,-6.992824 18.30133,-10.566651 29.98038,-16.9864482 z"
           style="fill:#9a947d;stroke:none" />
        <path
           sodipodi:nodetypes="cccccccccc"
           inkscape:connector-curvature="0"
           id="EyeMask"
           d="m 576.00839,121.22773 c 25.58575,-25.811401 48.38468,-54.248818 73.83599,-80.157052 18.53461,-16.429879 35.59086,-34.62882 55.91275,-48.9432934 30.11276,-6.9673536 71.30455,-2.1613306 101.01293,11.6852109 22.00154,11.0407505 32.75658,22.1755835 46.2711,43.0227965 -16.59243,2.970338 -29.95614,14.395417 -44.40987,22.391373 -35.04028,21.512353 -69.39756,44.865975 -107.67808,60.335295 -27.09505,8.42969 -55.82524,-4.59355 -75.41856,-23.21616 -7.61575,-7.852099 -18.68937,-3.96802 -26.94133,0.40853 -7.99475,4.05758 -15.16836,9.48562 -22.58493,14.4733 z"
           style="fill:#262f28;fill-opacity:1" />
        <path
           inkscape:connector-curvature="0"
           style="fill:#693310;fill-opacity:1;stroke:none"
           d="m 903.11817,308.26666 c 7.44622,-26.81537 12.29014,-80.78429 10.50741,-87.36421 -45.84879,2.19112 -166.07575,-31.70336 -209.30461,-51.99565 61.30759,54.68467 54.36382,44.65306 68.76251,79.52008 13.9801,17.03326 -10.88578,48.00647 -12.93093,66.94948 59.00461,53.36783 121.87335,61.3914 142.96562,-7.1097 z"
           id="Chest"
           sodipodi:nodetypes="cccccc"
           inkscape:label="#path1343" />
        <path
           inkscape:connector-curvature="0"
           style="fill:#262f28;fill-opacity:1;stroke:none"
           d="M 487.65876,357.31581 C 349.01486,416.89137 203.5037,638.66398 50.639734,626.49825 49.126834,619.98394 207.74167,504.2143 252.01419,471.98791 c 34.84033,-25.32099 68.02739,-68.67477 68.57757,-81.71675 22.19106,-8.43288 141.11955,-33.67704 167.067,-32.95535 z"
           id="TailUpper"
           sodipodi:nodetypes="ccccc"
           inkscape:label="#Tail" />
        <path
           inkscape:connector-curvature="0"
           style="fill:#1e211e"
           d="m 581.18338,695.75189 c 6.73017,-0.0309 44.22183,8.38471 58.43347,14.82123 13.30063,21.07145 15.37821,19.22404 19.76719,-6.28698 -53.88186,-27.75745 -73.18802,-10.22495 -97.0884,-39.64434 -28.45199,-37.52047 -33.09552,-59.27633 -40.79014,-84.44826 -3.27948,-10.72838 -8.73712,-22.11215 -17.81094,-27.14504 -9.07383,-5.03288 -25.16884,5.17465 -19.87769,17.46473 10.19003,2.22909 33.09708,56.35197 66.83962,108.63099 -13.2166,-13.68415 -46.8197,-13.21087 -51.32378,-10.50146 -6.91503,11.2425 -13.74922,40.4849 4.07241,41.30109 -1.34058,-10.67949 -10.08113,-21.38308 1.65002,-24.78915 12.19986,-3.54216 45.79535,1.441 55.85854,12.8172 8.02939,17.42187 32.40051,44.23674 77.64243,72.20567 3.29173,13.18036 -5.80807,19.57209 12.37529,7.05994 -1.72385,-7.89213 0.59291,-13.25887 -5.17155,-23.67638 0,0 -25.24703,-16.1473 -40.07109,-25.82813 -14.82407,-9.68083 -22.25562,-16.43072 -24.50538,-31.98111 z"
           id="LegLeft"
           sodipodi:nodetypes="ccccssccccsccccsc"
           inkscape:label="#path1339" />
        <path
           inkscape:connector-curvature="0"
           style="fill:#1e211e;fill-opacity:1;stroke:none"
           d="m 855.21631,569.62036 c -3.88769,-13.54844 -12.74906,-15.16701 -58.63194,-41.73133 9.71032,1.93832 67.27374,31.56106 80.22737,43.74341 -6.82359,39.35029 11.39622,9.52056 7.66584,-7.62937 -9.60212,-8.28401 -61.8073,-40.31211 -76.74675,-47.49885 18.6864,6.23441 41.73201,9.20517 67.29806,25.0302 -1.43387,6.01957 1.75234,3.1726 -3.04625,8.13411 7.69913,-1.58848 10.94313,-1.14488 9.11393,-11.49315 -11.6782,-8.83304 -52.67328,-29.97318 -66.27718,-31.54514 -13.60389,-1.57197 -25.32297,-3.02119 -30.21948,-0.50411 -16.26277,11.68528 -68.34507,36.93299 -88.82058,44.537 -4.89692,5.33115 -0.0413,17.26226 4.09807,19.73944 -0.19119,-5.76446 -1.03018,-9.17847 3.2039,-16.01988 13.578,-7.34648 47.38136,-17.36275 62.68428,-16.38121 30.60583,1.96307 57.66799,17.10771 76.95103,31.53597 6.83607,7.45083 0.88018,11.73527 1.32027,17.6029 7.59873,-4.07223 12.5733,-12.66238 11.17943,-17.51999 z"
           id="LegRight"
           sodipodi:nodetypes="scccccccsccccsccs"
           inkscape:label="#path2515" />
        <g
           transform="matrix(-1,0,0,1,933.09746,0)"
           id="Beak"
           inkscape:label="#g2532">
          <path
             inkscape:connector-curvature="0"
             inkscape:label="#path2513"
             sodipodi:nodetypes="cccsc"
             id="BeakLower"
             d="m 104.97095,57.474269 c -36.118172,7.238325 -54.418214,7.429334 -84.595356,6.431724 -24.4628554,-15.640466 -42.777422,-30.94228 -56.4453,-48.063633 10.281628,0.444306 26.4461767,3.734805 50.502015,10.038875 24.055838,6.30407 52.977576,14.808728 90.538641,31.593034 z"
             style="fill:#1e211e" />
          <path
             inkscape:connector-curvature="0"
             inkscape:label="#path2530"
             style="fill:#879287;fill-opacity:1"
             d="M 104.97095,57.474269 C 53.5993,26.510806 53.5993,26.510806 23.618916,9.5243578 -5.3967576,8.4537588 -14.165207,12.391112 -35.86397,15.827093 c 27.2767542,4.0602 37.9734886,6.630202 53.795158,11.349642 26.877505,8.017281 45.17643,13.066709 87.039762,30.297534 z"
             id="BeakUpper"
             sodipodi:nodetypes="cccsc" />
        </g>
        <path
           sodipodi:type="arc"
           style="fill:#f0f088;fill-opacity:1;stroke:none"
           id="path2541"
           sodipodi:cx="178.39285"
           sodipodi:cy="38.612183"
           sodipodi:rx="23.75"
           sodipodi:ry="22.678572"
           d="m 202.14285,38.612183 c 0,12.525029 -10.63323,22.678571 -23.75,22.678571 -13.11676,0 -23.75,-10.153542 -23.75,-22.678571 0,-12.52503 10.63324,-22.678572 23.75,-22.678572 13.11677,0 23.75,10.153542 23.75,22.678572 z"
           transform="matrix(-1.0992656,0,0,1,959.23472,-1.785711)" />
        <path
           inkscape:connector-curvature="0"
           id="path2543"
           d="m 763.28337,19.780202 c -10.3035,0 -18.58924,7.467753 -18.58924,16.698796 0,9.231046 8.28574,16.698796 18.58924,16.698796 10.30349,0 18.69424,-7.46775 18.69424,-16.698796 0,-9.231043 -8.39075,-16.698796 -18.69424,-16.698796 z"
           style="fill:#000000;fill-opacity:1;stroke:none" />
        <g
           transform="matrix(-1,0,0,1,933.09746,0)"
           id="Wing"
           inkscape:label="#g2560">
          <path
             inkscape:connector-curvature="0"
             id="WingBackground"
             d="m 224.61064,171.18382 c -33.2244,21.38629 -67.02753,52.00009 -70.64059,93.83172 3.34142,47.54988 46.96605,87.15511 94.12087,88.66297 53.05512,12.27466 107.6947,13.18976 161.83269,14.17189 99.3548,7.71921 202.28887,28.73559 284.32921,88.57164 6.61121,8.80731 36.80638,18.57376 19.26881,-0.65181 C 658.87255,366.44883 594.17086,280.01706 506.21206,221.00264 459.10023,188.77769 407.59058,159.59988 350.82338,149.37778 307.92446,143.12159 262.44311,149.2766 224.61064,171.18382 z"
             style="fill:#262f28;fill-opacity:1" />
          <path
             inkscape:connector-curvature="0"
             inkscape:label="#path1347"
             sodipodi:nodetypes="cccsccc"
             id="WingTip"
             d="m 685.42993,435.07639 c -43.42488,-29.82606 -59.89181,-40.35306 -106.40762,-64.91003 12.34997,9.43979 28.17312,15.24582 48.3617,37.05367 -19.45267,-6.01613 -34.27846,-16.74437 -80.54192,-29.35147 -23.13173,-6.30355 1.94059,4.09579 10.35228,10.59149 -26.43858,-5.12105 -134.5232,-51.52459 -139.44466,-51.2193 47.90361,-70.53998 207.79714,28.29481 267.68022,97.83564 z"
             style="fill:#9a947d;stroke:none" />
          <path
             sodipodi:nodetypes="ccc"
             inkscape:connector-curvature="0"
             id="WingStripe"
             d="M 245.92197,265.65179 C 458.62761,288.78278 534.14837,279.3083 705.899,450.00465 477.76924,117.87282 176.20694,255.76344 245.92197,265.65179 z"
             style="fill:#f5efd7;fill-opacity:0.80327866;fill-rule:evenodd;stroke:none" />
        </g>
        <path
           transform="matrix(2.3338639,0,0,2.3338639,-676.91342,-488.20278)"
           inkscape:connector-curvature="0"
           d="m 605.46537,195.74721 c 7.92377,-3.12362 16.20664,-5.26114 24.37261,-7.64899 12.07046,-3.65435 24.32025,-6.57594 36.67016,-9.09645 4.47619,-0.90742 8.96369,-1.79254 13.52632,-2.1013 1.11848,-0.0578 2.24191,-0.10015 3.36172,-0.0492 0.3867,0.0143 0.77369,0.0147 1.16059,0.0127 0.22312,-0.006 0.44592,-0.006 0.66903,-0.004 1.19777,0.0366 2.3963,0.0356 3.59451,0.0372 1.46353,0.004 2.92701,-0.004 4.39051,-0.0101 1.3614,-0.15625 1.91552,0.12034 3.08539,0.7189 1.34258,0.70302 2.52943,1.54312 3.60012,2.61623 1.13584,1.1609 2.0797,2.50404 2.77807,3.96911 0.45446,0.79183 0.45544,1.70643 0.66279,2.56358 0.15805,0.58926 0.53031,0.97392 1.01752,1.31806 0.85376,0.46104 1.76511,0.67407 2.71959,0.83314 0.15348,0.0211 0.30695,0.0422 0.46043,0.0633 0,0 -8.70018,6.09466 -8.70018,6.09466 l 0,0 c -0.15412,-0.0325 -0.30825,-0.065 -0.46237,-0.0974 -1.06716,-0.25333 -2.12824,-0.58315 -3.03122,-1.22777 -0.59064,-0.51384 -1.09793,-1.08562 -1.33459,-1.84708 -0.29768,-0.79959 -0.1423,-1.70914 -0.54966,-2.49305 -0.60112,-1.37309 -1.48107,-2.60255 -2.55595,-3.64787 -1.02373,-0.967 -2.18638,-1.69494 -3.45749,-2.30237 -0.90776,-0.41145 -1.81736,-0.35198 -2.8026,-0.33479 -1.4543,-0.006 -2.90858,-0.0139 -4.3629,-0.01 -1.23255,0.002 -2.46537,0.002 -3.6975,0.0378 -0.22303,10e-4 -0.44562,0.002 -0.66854,-0.009 -0.39289,-0.01 -0.7856,-0.0216 -1.17804,-0.0436 -1.04462,-0.0417 -2.09023,-0.0274 -3.13431,0.0266 -4.34557,0.2836 -8.64036,1.02689 -12.91988,1.81086 -12.22086,2.32114 -24.3044,5.21477 -36.2064,8.85542 -8.51612,2.57005 -17.15747,4.93597 -25.31373,8.53038 0,0 8.306,-6.56436 8.306,-6.56436 z"
           id="path3153"
           style="fill:#000000;fill-opacity:0" />
        <path
           inkscape:connector-curvature="0"
           style="fill:#693310"
           d="m 914.52019,195.26467 c 0.2826,-23.78131 1.98761,-84.65438 1.31183,-91.50407 -23.86461,4.44091 -68.11949,-1.27478 -84.57671,-7.873343 -14.62127,7.060853 -70.15792,62.480213 -69.75233,70.435353 51.65803,16.66911 97.07781,28.27339 153.01721,28.94206 z"
           id="Beard"
           sodipodi:nodetypes="ccccc"
           inkscape:label="#path2505" />
        <path
           transform="matrix(1.8670911,0,0,1.8670911,-380.55356,-390.76823)"
           d="m 619.99312,225.53574 c 0,2.18934 -1.97764,3.96415 -4.41719,3.96415 -2.43955,0 -4.4172,-1.77481 -4.4172,-3.96415 0,-2.18934 1.97765,-3.96415 4.4172,-3.96415 2.43955,0 4.41719,1.77481 4.41719,3.96415 z"
           sodipodi:ry="3.9641507"
           sodipodi:rx="4.4171963"
           sodipodi:cy="225.53574"
           sodipodi:cx="615.57593"
           id="path3010"
           style="fill:#ffffff;fill-opacity:1;fill-rule:nonzero"
           sodipodi:type="arc" />
      </g>
    </g>
  </g>
</svg>
