<?xml version="1.0" encoding="UTF-8" standalone="no"?>
<!-- Created with Inkscape (http://www.inkscape.org/) -->

<svg
   xmlns:dc="http://purl.org/dc/elements/1.1/"
   xmlns:cc="http://creativecommons.org/ns#"
   xmlns:rdf="http://www.w3.org/1999/02/22-rdf-syntax-ns#"
   xmlns:svg="http://www.w3.org/2000/svg"
   xmlns="http://www.w3.org/2000/svg"
   xmlns:xlink="http://www.w3.org/1999/xlink"
   xmlns:sodipodi="http://sodipodi.sourceforge.net/DTD/sodipodi-0.dtd"
   xmlns:inkscape="http://www.inkscape.org/namespaces/inkscape"
   width="792pt"
   height="612pt"
   id="svg2"
   sodipodi:version="0.32"
   inkscape:version="0.48.2 r9819"
   sodipodi:docname="vector-logo-bird-2.svg"
   version="1.0"
   inkscape:export-filename="/home/eduardo/workspace/logo/logo-bird-2.png"
   inkscape:export-xdpi="54.549999"
   inkscape:export-ydpi="54.549999">
  <defs
     id="defs4">
    <inkscape:perspective
       sodipodi:type="inkscape:persp3d"
       inkscape:vp_x="0 : 382.5 : 1"
       inkscape:vp_y="0 : 1000 : 0"
       inkscape:vp_z="990 : 382.5 : 1"
       inkscape:persp3d-origin="495 : 255 : 1"
       id="perspective31" />
    <linearGradient
       id="linearGradient3038">
      <stop
         style="stop-color:#757769;stop-opacity:1;"
         offset="0"
         id="stop3040" />
      <stop
         style="stop-color:#fff8cb;stop-opacity:1;"
         offset="1"
         id="stop3042" />
    </linearGradient>
    <linearGradient
       id="linearGradient3038-2">
      <stop
         style="stop-color:#757769;stop-opacity:1;"
         offset="0"
         id="stop3040-7" />
      <stop
         style="stop-color:#fff8cb;stop-opacity:1;"
         offset="1"
         id="stop3042-0" />
    </linearGradient>
    <linearGradient
       inkscape:collect="always"
       xlink:href="#linearGradient3038-2"
       id="linearGradient3060"
       gradientUnits="userSpaceOnUse"
       gradientTransform="matrix(0.87637872,0,0,1,-69.868853,-114.1935)"
       x1="2.8356824"
       y1="315.94815"
       x2="915.59412"
       y2="315.94815" />
  </defs>
  <sodipodi:namedview
     id="base"
     pagecolor="#ffffff"
     bordercolor="#666666"
     borderopacity="1.0"
     inkscape:pageopacity="1"
     inkscape:pageshadow="2"
     inkscape:zoom="0.50976563"
     inkscape:cx="508.41152"
     inkscape:cy="497.02136"
     inkscape:document-units="px"
     inkscape:current-layer="layer1"
     inkscape:window-width="1366"
     inkscape:window-height="744"
     inkscape:window-x="0"
     inkscape:window-y="24"
     showgrid="false"
     inkscape:window-maximized="1"
     inkscape:object-nodes="true"
     inkscape:object-paths="true"
     inkscape:snap-intersection-paths="false"
     inkscape:snap-smooth-nodes="false"
     inkscape:snap-nodes="false" />
  <metadata
     id="metadata7">
    <rdf:RDF>
      <cc:Work
         rdf:about="">
        <dc:format>image/svg+xml</dc:format>
        <dc:type
           rdf:resource="http://purl.org/dc/dcmitype/StillImage" />
        <dc:title></dc:title>
      </cc:Work>
    </rdf:RDF>
  </metadata>
  <g
     inkscape:label="Layer 1"
     inkscape:groupmode="layer"
     id="layer1">
    <path
       id="path3104"
       style="font-size:139.82249451000001272px;font-style:normal;font-variant:normal;font-weight:normal;font-stretch:normal;text-align:center;line-height:125%;writing-mode:lr-tb;text-anchor:middle;fill:#550000;fill-opacity:1;stroke:none;font-family:Abyssinica SIL;-inkscape-font-specification:Abyssinica SIL"
       d="m 327.97653,587.80646 0,-5.46182 5.87145,-0.40963 c 0.8647,-0.091 1.57018,-0.40963 2.11646,-0.95582 0.54608,-0.54618 0.81918,-1.25166 0.81927,-2.11646 l 0,-35.63835 c -9e-5,-2.18468 -0.20491,-4.14183 -0.61446,-5.87145 -0.40972,-1.77504 -1.11521,-3.27704 -2.11645,-4.506 -0.95591,-1.22885 -2.23033,-2.18467 -3.82327,-2.86745 -1.59312,-0.68267 -3.55026,-1.02403 -5.87145,-1.02409 -1.18348,6e-5 -2.43514,0.11384 -3.755,0.34136 -1.2745,0.18212 -2.57168,0.45521 -3.89155,0.81927 -1.27449,0.31867 -2.54891,0.7283 -3.82327,1.22891 -1.22897,0.45521 -2.38961,0.95588 -3.48191,1.502 l 0,46.0158 c -6e-5,0.8648 0.27303,1.57028 0.81928,2.11646 0.54611,0.54619 1.2516,0.86479 2.11645,0.95582 l 5.87145,0.40963 0,5.46182 -30.65444,0 0,-5.46182 5.87145,-0.40963 c 0.86474,-0.091 1.57022,-0.40963 2.11646,-0.95582 0.54613,-0.54618 0.81922,-1.25166 0.81927,-2.11646 l 0,-36.52589 c -5e-5,-1.95711 -0.22763,-3.75495 -0.68273,-5.39355 -0.40969,-1.684 -1.11517,-3.09497 -2.11645,-4.2329 -0.95587,-1.18334 -2.23029,-2.09364 -3.82327,-2.73091 -1.54756,-0.68267 -3.43644,-1.02403 -5.66664,-1.02409 -1.31998,6e-5 -2.70819,0.1366 -4.16463,0.40963 -1.41101,0.22764 -2.77646,0.54624 -4.09636,0.95582 -1.31997,0.36418 -2.57164,0.79657 -3.755,1.29718 -1.13791,0.45521 -2.11648,0.91036 -2.93573,1.36546 l 0,45.87925 c -3e-5,0.8648 0.27307,1.57028 0.81927,2.11646 0.54616,0.54619 1.25164,0.86479 2.11646,0.95582 l 5.87145,0.40963 0,5.46182 -31.61026,0 0,-5.46182 6.82727,-0.40963 c 0.86477,-0.091 1.57026,-0.40963 2.11645,-0.95582 0.54617,-0.54618 0.81926,-1.25166 0.81927,-2.11646 l 0,-48.54189 -9.62645,0 0,-4.57427 16.93163,-5.32527 5.73491,0 0,6.96382 c 1.54749,-0.95576 3.2543,-1.93433 5.12045,-2.93573 1.91161,-1.00127 3.86875,-1.93433 5.87146,-2.79918 2.00262,-0.86472 4.00529,-1.57021 6.00799,-2.11645 2.04814,-0.54612 3.98253,-0.81921 5.80318,-0.81928 2.00262,7e-5 3.82322,0.29592 5.46182,0.88755 1.63849,0.54625 3.07221,1.29725 4.30118,2.253 1.27436,0.91036 2.36673,1.95721 3.27709,3.14054 0.95575,1.13794 1.72951,2.27582 2.32127,3.41364 1.4109,-0.86473 3.11772,-1.86606 5.12045,-3.004 2.0026,-1.13782 4.11905,-2.18466 6.34936,-3.14055 2.23017,-1.00126 4.46041,-1.84329 6.69073,-2.52609 2.23016,-0.68266 4.27834,-1.02402 6.14454,-1.02409 3.68664,7e-5 6.69063,0.6828 9.012,2.04818 2.32117,1.32001 4.14178,3.02682 5.46182,5.12046 1.36535,2.04824 2.29841,4.34675 2.79918,6.89554 0.50056,2.5489 0.75089,5.00671 0.751,7.37345 l 0,38.71062 c -1.1e-4,0.8648 0.27298,1.57028 0.81927,2.11646 0.59159,0.54619 1.29707,0.86479 2.11645,0.95582 l 6.759,0.40963 0,5.46182 -31.33717,0" />
    <path
       id="path3106"
       style="font-size:139.82249451000001272px;font-style:normal;font-variant:normal;font-weight:normal;font-stretch:normal;text-align:center;line-height:125%;writing-mode:lr-tb;text-anchor:middle;fill:#550000;fill-opacity:1;stroke:none;font-family:Abyssinica SIL;-inkscape-font-specification:Abyssinica SIL"
       d="m 427.72295,526.70239 -26.83117,65.40525 c -0.45519,1.13787 -1.0924,2.66263 -1.91164,4.57427 -0.81931,1.91162 -1.79788,3.93705 -2.93573,6.07627 -1.09239,2.18471 -2.3213,4.32392 -3.68672,6.41763 -1.31997,2.09368 -2.70818,3.86876 -4.16464,5.32527 -1.68408,1.68404 -3.5502,2.98122 -5.59836,3.89155 -2.00268,0.95578 -4.18741,1.43369 -6.55418,1.43372 -1.63855,-3e-5 -3.09504,-0.2276 -4.36945,-0.68272 -1.27443,-0.40967 -2.34404,-0.97861 -3.20882,-1.70682 -0.86479,-0.72827 -1.52476,-1.59306 -1.97991,-2.59436 -0.45515,-0.95585 -0.68273,-1.95718 -0.68272,-3.004 -10e-6,-1.59305 0.34136,-3.07229 1.02409,-4.43773 0.72823,-1.31995 1.88887,-2.63989 3.48191,-3.95981 l 13.10835,6.00799 c 1.13786,-1.13789 2.2985,-2.63989 3.48191,-4.50599 1.18337,-1.82062 2.29849,-3.75502 3.34536,-5.80318 1.04682,-2.04819 2.00264,-4.09637 2.86746,-6.14455 0.86475,-2.00267 1.54748,-3.77775 2.04818,-5.32527 l -23.7589,-60.96752 -7.71482,-0.81927 0,-5.46182 30.92754,0 0,5.46182 -6.69073,0.40963 c -0.77378,0.0911 -1.38823,0.43246 -1.84336,1.02409 -0.45518,0.59176 -0.54621,1.27449 -0.27309,2.04818 l 16.2489,41.23672 16.59027,-41.23672 c 0.31855,-0.72818 0.27303,-1.38815 -0.13655,-1.9799 -0.40969,-0.63715 -1.00138,-1.00128 -1.77509,-1.09237 l -6.62245,-0.40963 0,-5.46182 24.91954,0 0,5.46182 -7.30518,0.81927" />
    <path
       id="path3108"
       style="font-size:139.82249451000001272px;font-style:normal;font-variant:normal;font-weight:normal;font-stretch:normal;text-align:center;line-height:125%;writing-mode:lr-tb;text-anchor:middle;fill:#550000;fill-opacity:1;stroke:none;font-family:Abyssinica SIL;-inkscape-font-specification:Abyssinica SIL"
       d="m 509.17228,550.87093 c -7e-5,5.27978 -0.77383,10.17265 -2.32127,14.67863 -1.54759,4.4605 -3.95989,8.35204 -7.23691,11.67463 -3.23163,3.32261 -7.39626,5.91697 -12.4939,7.78309 -5.05223,1.86612 -11.08298,2.79918 -18.09227,2.79918 l -20.14045,0 0,-92.98742 -10.58227,0 0,-4.64255 18.024,-5.39354 5.59836,0 0,39.12026 c 0.81925,-0.36406 1.88885,-0.84197 3.20882,-1.43373 1.3199,-0.59163 2.8219,-1.16057 4.50599,-1.70682 1.72954,-0.54611 3.57291,-1.02402 5.53009,-1.43372 1.95711,-0.40957 3.95978,-0.61439 6.008,-0.61446 4.59698,7e-5 8.62507,0.86486 12.08427,2.59437 3.5046,1.72964 6.44033,4.07366 8.80718,7.03208 2.36672,2.95854 4.14181,6.39493 5.32527,10.30918 1.18332,3.86883 1.77502,7.94243 1.77509,12.22082 m -14.269,2.79918 c -5e-5,-8.78438 -1.88893,-15.42958 -5.66663,-19.93563 -3.73229,-4.50594 -8.96653,-6.75894 -15.70272,-6.759 -0.7738,6e-5 -1.6841,0.0683 -2.73091,0.20482 -1.04688,0.1366 -2.11649,0.31866 -3.20882,0.54618 -1.04688,0.22763 -2.09372,0.47797 -3.14054,0.751 -1.00136,0.27315 -1.84339,0.52348 -2.52609,0.751 l 0,51.88725 c 0.77373,0.0455 1.57024,0.0683 2.38954,0.0683 0.6827,0.0455 1.41094,0.0683 2.18473,0.0683 0.81924,0 1.57024,0 2.253,0 4.14184,0 7.82856,-0.4779 11.06018,-1.43373 3.23152,-0.95581 5.96243,-2.52608 8.19272,-4.71082 2.23019,-2.18471 3.937,-5.0294 5.12045,-8.53408 1.18334,-3.50464 1.77504,-7.80582 1.77509,-12.90354" />
    <path
       id="path3110"
       style="font-size:139.82249451000001272px;font-style:normal;font-variant:normal;font-weight:normal;font-stretch:normal;text-align:center;line-height:125%;writing-mode:lr-tb;text-anchor:middle;fill:#550000;fill-opacity:1;stroke:none;font-family:Abyssinica SIL;-inkscape-font-specification:Abyssinica SIL"
       d="m 562.28845,587.80646 -1.84337,-8.261 c -2.45786,1.86613 -4.98394,3.52743 -7.57827,4.98391 -1.13791,0.63721 -2.34406,1.25167 -3.61845,1.84336 -1.27446,0.5917 -2.59439,1.11512 -3.95982,1.57027 -1.31996,0.50067 -2.68542,0.88755 -4.09636,1.16064 -1.36548,0.27309 -2.73093,0.40963 -4.09636,0.40964 -2.54887,-10e-6 -4.93841,-0.4324 -7.16863,-1.29719 -2.18474,-0.86478 -4.09638,-2.11645 -5.73491,-3.75499 -1.63855,-1.63854 -2.93573,-3.61845 -3.89154,-5.93973 -0.91031,-2.32126 -1.36546,-4.96114 -1.36546,-7.91963 0,-1.72956 0.1593,-3.3681 0.47791,-4.91564 0.36412,-1.54749 1.0696,-3.04949 2.11645,-4.506 1.04684,-1.45645 2.50333,-2.84466 4.36946,-4.16463 1.91162,-1.36542 4.39219,-2.70812 7.44172,-4.02809 3.09501,-1.3199 6.85,-2.61708 11.265,-3.89154 4.46045,-1.3199 9.7402,-2.63984 15.83926,-3.95982 l 0,-6.008 c -4e-5,-4.688 -1.04689,-8.14715 -3.14054,-10.37745 -2.09374,-2.2757 -5.39358,-3.41357 -9.89954,-3.41364 -2.45785,7e-5 -4.55154,0.22764 -6.28109,0.68273 -1.7296,0.45521 -2.93575,0.81934 -3.61845,1.09237 l 0,12.15254 -10.17264,0 c -0.63722,4e-5 -1.27443,-0.0455 -1.91163,-0.13655 -0.59171,-0.091 -1.13789,-0.27304 -1.63855,-0.54618 -0.50067,-0.31856 -0.91031,-0.72819 -1.22891,-1.22891 -0.27309,-0.54613 -0.40964,-1.25161 -0.40963,-2.11645 -10e-6,-2.8674 0.86478,-5.32522 2.59436,-7.37346 1.72956,-2.09363 3.98256,-3.8232 6.759,-5.18872 2.7764,-1.36539 5.89419,-2.36672 9.35336,-3.004 3.45912,-0.63714 6.91827,-0.95575 10.37745,-0.95582 4.3239,7e-5 7.89683,0.5235 10.71881,1.57027 2.86741,1.04692 5.1204,2.5034 6.759,4.36946 1.68401,1.86618 2.8674,4.07366 3.55018,6.62245 0.68267,2.5489 1.02403,5.34808 1.02409,8.39754 l 0,39.18853 c -6e-5,0.8648 0.27303,1.57028 0.81928,2.11646 0.59163,0.54619 1.29712,0.86479 2.11645,0.95582 l 6.759,0.40963 0,5.46182 -20.68663,0 m -1.84337,-37.34517 c -6.28112,1.59306 -11.26503,3.16334 -14.95172,4.71082 -3.68675,1.54754 -6.48593,3.11781 -8.39754,4.71081 -1.86614,1.54754 -3.07229,3.14057 -3.61845,4.77909 -0.50069,1.59305 -0.75102,3.25435 -0.751,4.98391 -2e-5,1.4565 0.22755,2.89023 0.68272,4.30118 0.50065,1.36547 1.18338,2.59437 2.04819,3.68672 0.91028,1.09238 2.00264,1.97992 3.27709,2.66264 1.31991,0.63722 2.82191,0.95582 4.50599,0.95582 1.86609,0 3.80048,-0.34136 5.80318,-1.02409 2.04815,-0.68272 3.91427,-1.43372 5.59836,-2.253 1.95711,-0.95581 3.8915,-2.07093 5.80318,-3.34536 l 0,-24.16854" />
    <path
       id="path3112"
       style="font-size:139.82249451000001272px;font-style:normal;font-variant:normal;font-weight:normal;font-stretch:normal;text-align:center;line-height:125%;writing-mode:lr-tb;text-anchor:middle;fill:#550000;fill-opacity:1;stroke:none;font-family:Abyssinica SIL;-inkscape-font-specification:Abyssinica SIL"
       d="m 631.72178,584.87073 c -1.72962,0.86479 -3.6185,1.63855 -5.66664,2.32127 -1.72961,0.5917 -3.73228,1.11512 -6.008,1.57028 -2.27578,0.50066 -4.66533,0.75099 -7.16863,0.751 -5.27978,-10e-6 -9.10304,-1.22891 -11.46981,-3.68673 -2.3668,-2.45781 -3.5502,-6.46314 -3.55018,-12.016 l 0,-46.42543 -8.94373,0 0,-4.57428 9.55818,-4.50599 6.28109,-14.81518 6.14454,0 0,16.93163 19.73081,0 0,6.96382 -19.73081,0 0,39.05198 c -2e-5,2.77644 0.22755,5.14323 0.68273,7.10036 0.50064,1.91165 1.20612,3.48192 2.11645,4.71082 0.95579,1.1834 2.11643,2.04819 3.48191,2.59436 1.41094,0.54619 3.04948,0.81928 4.91564,0.81927 1.36541,10e-6 2.61708,-0.11378 3.75499,-0.34136 1.18336,-0.22757 2.20745,-0.50066 3.07228,-0.81927 1.00128,-0.36412 1.93434,-0.77375 2.79918,-1.22891 l 0,5.59836" />
    <path
       id="path3114"
       style="font-size:139.82249451000001272px;font-style:normal;font-variant:normal;font-weight:normal;font-stretch:normal;text-align:center;line-height:125%;writing-mode:lr-tb;text-anchor:middle;fill:#550000;fill-opacity:1;stroke:none;font-family:Abyssinica SIL;-inkscape-font-specification:Abyssinica SIL"
       d="m 663.40031,497.34513 c -3e-5,1.18348 -0.2276,2.32136 -0.68272,3.41363 -0.40967,1.04694 -1.00137,1.95724 -1.77509,2.73091 -0.77379,0.77384 -1.68409,1.38829 -2.73091,1.84336 -1.00136,0.45524 -2.09372,0.68281 -3.27709,0.68273 -1.18342,8e-5 -2.32129,-0.22749 -3.41364,-0.68273 -1.04686,-0.45507 -1.95717,-1.06952 -2.73091,-1.84336 -0.77377,-0.77367 -1.38822,-1.68397 -1.84336,-2.73091 -0.45516,-1.09227 -0.68274,-2.23015 -0.68273,-3.41363 -10e-6,-1.18331 0.22757,-2.29842 0.68273,-3.34537 0.45514,-1.04675 1.06959,-1.95705 1.84336,-2.7309 0.77374,-0.77366 1.68405,-1.36536 2.73091,-1.77509 1.09235,-0.45506 2.23022,-0.68263 3.41364,-0.68273 1.18337,1e-4 2.27573,0.22767 3.27709,0.68273 1.04682,0.40973 1.95712,1.00143 2.73091,1.77509 0.77372,0.77385 1.36542,1.68415 1.77509,2.7309 0.45512,1.04695 0.68269,2.16206 0.68272,3.34537 m -25.67053,90.46133 0,-5.46182 6.82727,-0.40963 c 0.86477,-0.091 1.57026,-0.40963 2.11645,-0.95582 0.54617,-0.54618 0.81926,-1.25166 0.81927,-2.11646 l 0,-49.90734 -9.62645,0 0,-4.91564 17.06818,-5.32527 5.53009,0 0,60.14825 c -3e-5,0.8648 0.27306,1.57028 0.81927,2.11646 0.59167,0.54619 1.29715,0.86479 2.11645,0.95582 l 7.16864,0.40963 0,5.46182 -32.83917,0" />
    <path
       id="path3116"
       style="font-size:139.82249451000001272px;font-style:normal;font-variant:normal;font-weight:normal;font-stretch:normal;text-align:center;line-height:125%;writing-mode:lr-tb;text-anchor:middle;fill:#550000;fill-opacity:1;stroke:none;font-family:Abyssinica SIL;-inkscape-font-specification:Abyssinica SIL"
       d="m 726.14292,567.52946 c -5e-5,3.41366 -0.6145,6.48593 -1.84336,9.21682 -1.22896,2.73092 -2.98129,5.05219 -5.257,6.96382 -2.2758,1.86612 -5.07498,3.29984 -8.39754,4.30118 -3.32264,1.00133 -7.05488,1.50199 -11.19673,1.502 -2.13923,-10e-6 -4.23292,-0.13655 -6.28108,-0.40964 -2.00269,-0.22758 -3.8688,-0.54618 -5.59837,-0.95582 -1.68407,-0.36412 -3.18606,-0.751 -4.50599,-1.16063 -1.31995,-0.40964 -2.32128,-0.751 -3.004,-1.0241 l 0,-18.57017 7.10036,0 1.70682,11.87945 c 1.41095,0.91031 3.14052,1.79785 5.18872,2.66264 2.09368,0.81927 4.50598,1.22891 7.23691,1.2289 2.00264,10e-6 3.77772,-0.29584 5.32527,-0.88754 1.54748,-0.63721 2.84466,-1.45648 3.89154,-2.45782 1.09233,-1.00132 1.9116,-2.1392 2.45782,-3.41363 0.59166,-1.31993 0.88751,-2.68538 0.88754,-4.09637 -3e-5,-1.95713 -0.38691,-3.61843 -1.16063,-4.9839 -0.77379,-1.41095 -1.88891,-2.66262 -3.34536,-3.755 -1.45652,-1.13785 -3.25437,-2.23022 -5.39355,-3.27709 -2.09372,-1.04682 -4.48326,-2.23021 -7.16863,-3.55018 -2.54887,-1.22888 -4.80186,-2.43503 -6.759,-3.61846 -1.95716,-1.22887 -3.61846,-2.52605 -4.98391,-3.89154 -1.31994,-1.41093 -2.32127,-2.93568 -3.00399,-4.57427 -0.68274,-1.68402 -1.0241,-3.57289 -1.02409,-5.66663 -10e-6,-3.09498 0.54617,-5.89416 1.63854,-8.39755 1.13787,-2.50327 2.77641,-4.61972 4.91563,-6.34936 2.1392,-1.77502 4.75632,-3.14048 7.85137,-4.09636 3.14052,-0.95575 6.73621,-1.43366 10.78708,-1.43373 2.04815,7e-5 4.0053,0.11386 5.87145,0.34137 1.86609,0.22764 3.5729,0.50073 5.12046,0.81927 1.54747,0.31867 2.91292,0.66004 4.09636,1.02409 1.18335,0.36419 2.11641,0.70555 2.79918,1.02409 l 0,16.52199 -7.30518,0 -1.09236,-9.76299 c -1.00137,-0.7737 -2.48061,-1.50194 -4.43773,-2.18473 -1.95718,-0.68266 -4.02812,-1.02403 -6.21281,-1.02409 -3.86882,6e-5 -6.73627,0.88761 -8.60236,2.66264 -1.82063,1.72963 -2.73093,3.95987 -2.73091,6.69072 -2e-5,1.59308 0.25031,2.98129 0.751,4.16464 0.54616,1.18344 1.41095,2.29856 2.59436,3.34536 1.22889,1.04689 2.82191,2.11649 4.77909,3.20881 2.00264,1.09241 4.48321,2.32132 7.44172,3.68673 2.45778,1.0924 4.71078,2.23028 6.759,3.41364 2.04814,1.18342 3.82323,2.50336 5.32527,3.95981 1.50195,1.45652 2.66259,3.0723 3.48191,4.84736 0.86474,1.77512 1.29713,3.80054 1.29718,6.07627" />
    <rect
       style="color:#000000;fill:#262f28;fill-opacity:1;fill-rule:nonzero;stroke:none;stroke-width:2;marker:none;visibility:visible;display:inline;overflow:visible;enable-background:accumulate"
       id="rect2969"
       width="498"
       height="12"
       x="-735.23267"
       y="462.58575"
       ry="6"
       transform="scale(-1,1)" />
    <rect
       ry="6"
       y="632.58575"
       x="-739.23267"
       height="12"
       width="498"
       id="rect2971"
       style="color:#000000;fill:#262f28;fill-opacity:1;fill-rule:nonzero;stroke:none;stroke-width:2;marker:none;visibility:visible;display:inline;overflow:visible;enable-background:accumulate"
       transform="scale(-1,1)" />
    <g
       id="g3888"
       transform="matrix(0.55513588,0,0,0.54357171,255.27312,186.24219)">
      <g
         id="g3870">
        <path
           style="fill:url(#linearGradient3060);fill-opacity:1"
           d="M 709.57163,235.61545 C 727.53592,179.86751 730.8702,138.68854 731.09434,81.21638 729.31994,23.38699 736.28728,-35.80054 729.5039,-93.092492 707.60339,-145.80914 647.18937,-152.18229 602.11527,-147.86429 539.64342,-136.59325 501.67235,-73.146477 460.26434,-25.276848 422.13852,25.35689 380.5458,72.30663 337.06912,116.78949 202.33724,407.00128 108.30503,422.17275 186.07765,397.96339 c 257.09666,46.30467 439.4512,79.37875 523.49398,-162.34794 z"
           id="Body"
           inkscape:connector-curvature="0"
           sodipodi:nodetypes="cccccccc" />
        <path
           style="fill:#9a947d;stroke:none"
           d="m 727.17879,-104.66914 c -29.61712,-43.37888 -108.39576,-65.01501 -168.81988,-24.87882 50.093,-10.12448 110.52919,1.05719 142.54571,41.865266 9.79409,-6.992824 16.03889,-10.566651 26.27417,-16.986446 z"
           id="HeadStripe"
           inkscape:connector-curvature="0"
           sodipodi:nodetypes="cccc" />
        <path
           style="fill:#262f28;fill-opacity:1"
           d="m 434.93264,7.03423 c 22.42281,-25.811401 42.40331,-54.248818 64.7083,-80.157052 16.24333,-16.429879 31.19107,-34.628818 49.00074,-48.943298 26.39018,-6.96735 62.48979,-2.16133 88.52559,11.68522 19.28167,11.040746 28.70716,22.175579 40.551,43.022792 -14.54126,2.970338 -26.25292,14.395417 -38.91987,22.391373 -30.70855,21.512353 -60.81854,44.865975 -94.36678,60.335295 -23.74552,8.42969 -48.92404,-4.59355 -66.09522,-23.21616 -6.67428,-7.852099 -16.37896,-3.96802 -23.6108,0.40853 -7.00643,4.05758 -13.29323,9.48562 -19.79296,14.4733 z"
           id="EyeMask"
           inkscape:connector-curvature="0"
           sodipodi:nodetypes="cccccccccc" />
        <path
           inkscape:label="#path1343"
           sodipodi:nodetypes="cccccc"
           id="Chest"
           d="m 721.60469,194.07316 c 6.52571,-26.81537 10.77082,-80.78429 9.20847,-87.36421 -40.1809,2.19112 -145.54525,-31.70336 -183.4301,-51.99565 53.72867,54.68467 47.6433,44.65306 60.262,79.52008 12.25186,17.03326 -9.54007,48.00647 -11.33239,66.94948 51.71039,53.36783 106.80721,61.3914 125.29202,-7.1097 z"
           style="fill:#693310;fill-opacity:1;stroke:none"
           inkscape:connector-curvature="0" />
        <path
           inkscape:label="#Tail"
           sodipodi:nodetypes="ccccc"
           id="TailUpper"
           d="M 357.50491,243.12231 C 236.00034,302.69787 165.29942,472.13446 31.332693,459.96873 30.006819,453.45442 112.19153,390.0208 150.99102,357.79441 c 30.53333,-25.32099 59.61775,-68.67477 60.09993,-81.71675 19.44777,-8.43288 123.67416,-33.67704 146.41396,-32.95535 z"
           style="fill:#262f28;fill-opacity:1;stroke:none"
           inkscape:connector-curvature="0" />
        <g
           inkscape:label="#g2532"
           id="Beak"
           transform="matrix(-0.87637872,0,0,1,747.87791,-114.1935)">
          <path
             style="fill:#1e211e"
             d="m 104.97095,57.474269 c -36.118172,7.238325 -54.418214,7.429334 -84.595356,6.431724 -24.4628554,-15.640466 -42.777422,-30.94228 -56.4453,-48.063633 10.281628,0.444306 26.4461767,3.734805 50.502015,10.038875 24.055838,6.30407 52.977576,14.808728 90.538641,31.593034 z"
             id="BeakLower"
             sodipodi:nodetypes="cccsc"
             inkscape:label="#path2513"
             inkscape:connector-curvature="0" />
          <path
             sodipodi:nodetypes="cccsc"
             id="BeakUpper"
             d="M 104.97095,57.474269 C 53.5993,26.510806 53.5993,26.510806 23.618916,9.5243578 -5.3967576,8.4537588 -14.165207,12.391112 -35.86397,15.827093 c 27.2767542,4.0602 37.9734886,6.630202 53.795158,11.349642 26.877505,8.017281 45.17643,13.066709 87.039762,30.297534 z"
             style="fill:#879287;fill-opacity:1"
             inkscape:label="#path2530"
             inkscape:connector-curvature="0" />
        </g>
        <path
           transform="matrix(-0.96337302,0,0,1,770.78405,-115.97921)"
           d="m 202.14285,38.612183 c 0,12.525029 -10.63323,22.678571 -23.75,22.678571 -13.11676,0 -23.75,-10.153542 -23.75,-22.678571 0,-12.52503 10.63324,-22.678572 23.75,-22.678572 13.11677,0 23.75,10.153542 23.75,22.678572 z"
           sodipodi:ry="22.678572"
           sodipodi:rx="23.75"
           sodipodi:cy="38.612183"
           sodipodi:cx="178.39285"
           id="path2541"
           style="fill:#f0f088;fill-opacity:1;stroke:none"
           sodipodi:type="arc" />
        <path
           style="fill:#000000;fill-opacity:1;stroke:none"
           d="m 599.05645,-94.413298 c -9.02977,0 -16.29121,7.467753 -16.29121,16.698796 0,9.231046 7.26144,16.698796 16.29121,16.698796 9.02976,0 16.38324,-7.46775 16.38324,-16.698796 0,-9.231043 -7.35348,-16.698796 -16.38324,-16.698796 z"
           id="path2543"
           inkscape:connector-curvature="0" />
        <path
           style="fill:#262f28;fill-opacity:1"
           d="m 551.03392,56.99032 c 30.69944,22.30998 61.76303,55.75076 61.53035,98.26149 -4.60798,43.88095 -30.74331,65.63739 -82.10796,84.2332 -35.29353,18.20777 -85.73255,31.62897 -138.74876,46.7183 -85.65783,27.52826 -164.23659,38.86725 -248.46427,59.93977 -47.367502,5.52388 12.66464,-65.73311 26.05296,-85.1903 C 217.44591,184.36998 279.28789,116.63686 354.67859,71.24972 401.4935,41.50539 458.47709,22.0378 512.46606,39.1295 c 13.54285,3.98662 26.60264,9.94235 38.56786,17.86082 z"
           id="WingBackground"
           inkscape:connector-curvature="0"
           sodipodi:nodetypes="ccccccccc" />
        <path
           inkscape:connector-curvature="0"
           inkscape:label="#path1347"
           sodipodi:nodetypes="cccsccc"
           id="WingTip"
           d="m 138.20089,335.56201 c 40.61817,-25.61983 55.94861,-34.55567 98.77661,-54.64344 -11.63998,8.23883 -25.97386,12.53714 -45.58955,32.35034 17.51841,-4.16809 31.4362,-13.45758 72.94273,-21.67796 20.75325,-4.11019 -2.06982,3.8942 -10.00404,9.57159 47.11739,-4.73909 118.12979,-26.00761 122.39346,-25.24378 -35.27315,-93.70254 -179.88798,-3.95717 -238.51921,59.64325 z"
           style="fill:#9a947d;stroke:none" />
        <path
           sodipodi:nodetypes="ccc"
           inkscape:connector-curvature="0"
           id="WingStripe"
           d="M 532.35712,151.45829 C 345.94643,204.195 299.41943,179.91766 129.24305,335.81115 360.62357,7.90871 558.06988,118.3083 532.35712,151.45829 z"
           style="fill:#f5efd7;fill-opacity:0.80327866;fill-rule:evenodd;stroke:none" />
        <path
           style="fill:#000000;fill-opacity:0"
           id="path3153-7"
           d="m 575.28639,-145.54893 c 16.20687,-7.29011 33.14823,-12.27879 49.85049,-17.8517 24.6883,-8.52876 49.74338,-15.34735 75.00326,-21.22988 9.15536,-2.1178 18.33386,-4.18354 27.66603,-4.90415 2.28768,-0.1349 4.58549,-0.23374 6.8759,-0.11482 0.79093,0.0334 1.58246,0.0343 2.3738,0.0296 0.45636,-0.014 0.91207,-0.014 1.36841,-0.009 2.44985,0.0854 4.90127,0.0831 7.35202,0.0868 2.99343,0.009 5.98675,-0.009 8.98012,-0.0236 2.78454,-0.36467 3.91791,0.28085 6.3107,1.67781 2.74605,1.64075 5.17357,3.60143 7.36351,6.10593 2.32319,2.70938 4.2537,5.84408 5.68212,9.26336 0.92953,1.84802 0.93153,3.98257 1.35563,5.98304 0.32327,1.37526 1.08467,2.273 2.08118,3.07618 1.74624,1.076 3.61027,1.57318 5.56252,1.94443 0.31392,0.0492 0.62782,0.0985 0.94174,0.14774 0,0 -17.79491,14.2241 -17.79491,14.2241 l 0,0 c -0.31523,-0.0759 -0.63047,-0.1517 -0.9457,-0.22732 -2.18271,-0.59123 -4.353,-1.36099 -6.19991,-2.86544 -1.20806,-1.19924 -2.24565,-2.53369 -2.7297,-4.31084 -0.60886,-1.86613 -0.29105,-3.9889 -1.12424,-5.81844 -1.2295,-3.2046 -3.02931,-6.07399 -5.22781,-8.51363 -2.09389,-2.25684 -4.47191,-3.95576 -7.07177,-5.37342 -1.85669,-0.96026 -3.71714,-0.82147 -5.7323,-0.78135 -2.97455,-0.014 -5.94906,-0.0324 -8.92365,-0.0233 -2.52099,0.005 -5.04254,0.005 -7.56267,0.0882 -0.45618,0.002 -0.91146,0.005 -1.36741,-0.021 -0.80359,-0.0233 -1.60682,-0.0504 -2.4095,-0.10176 -2.13661,-0.0973 -4.27525,-0.064 -6.41076,0.0621 -8.8882,0.66189 -17.67254,2.39662 -26.42566,4.2263 -24.99591,5.41723 -49.71096,12.17057 -74.0547,20.66735 -17.41844,5.99814 -35.09301,11.51988 -51.77541,19.90874 0,0 16.98867,-15.32032 16.98867,-15.32032 z"
           inkscape:connector-curvature="0" />
        <path
           inkscape:label="#path2505"
           sodipodi:nodetypes="ccccc"
           id="Beard"
           d="m 731.59718,81.07117 c 0.24767,-23.78131 1.7419,-84.65438 1.14966,-91.50407 -20.91443,4.44091 -59.69847,-1.27478 -74.12123,-7.873343 -12.81377,7.060853 -61.4849,62.480213 -61.12945,70.435353 45.272,16.66911 85.07692,28.27339 134.10102,28.94206 z"
           style="fill:#693310"
           inkscape:connector-curvature="0" />
        <path
           sodipodi:type="arc"
           style="fill:#ffffff;fill-opacity:1;fill-rule:nonzero"
           id="path3010"
           sodipodi:cx="615.57593"
           sodipodi:cy="225.53574"
           sodipodi:rx="4.4171963"
           sodipodi:ry="3.9641507"
           d="m 619.99312,225.53574 c 0,2.18934 -1.97764,3.96415 -4.41719,3.96415 -2.43955,0 -4.4172,-1.77481 -4.4172,-3.96415 0,-2.18934 1.97765,-3.96415 4.4172,-3.96415 2.43955,0 4.41719,1.77481 4.41719,3.96415 z"
           transform="matrix(1.6362789,0,0,1.8670911,-403.3779,-504.96173)" />
      </g>
    </g>
  </g>
</svg>
