<?xml version="1.0" encoding="UTF-8" standalone="no"?>
<!-- Created with Inkscape (http://www.inkscape.org/) -->

<svg
   xmlns:dc="http://purl.org/dc/elements/1.1/"
   xmlns:cc="http://creativecommons.org/ns#"
   xmlns:rdf="http://www.w3.org/1999/02/22-rdf-syntax-ns#"
   xmlns:svg="http://www.w3.org/2000/svg"
   xmlns="http://www.w3.org/2000/svg"
   xmlns:sodipodi="http://sodipodi.sourceforge.net/DTD/sodipodi-0.dtd"
   xmlns:inkscape="http://www.inkscape.org/namespaces/inkscape"
   width="792pt"
   height="612pt"
   id="svg2"
   sodipodi:version="0.32"
   inkscape:version="0.47 r22583"
   sodipodi:docname="vector-logo-bird-3.svg"
   version="1.0"
   inkscape:export-filename="/home/mnesarco/monochrome.png"
   inkscape:export-xdpi="54.549999"
   inkscape:export-ydpi="54.549999">
  <defs
     id="defs4">
    <inkscape:perspective
       sodipodi:type="inkscape:persp3d"
       inkscape:vp_x="0 : 382.5 : 1"
       inkscape:vp_y="0 : 1000 : 0"
       inkscape:vp_z="990 : 382.5 : 1"
       inkscape:persp3d-origin="495 : 255 : 1"
       id="perspective31" />
    <linearGradient
       id="linearGradient3038">
      <stop
         style="stop-color:#757769;stop-opacity:1;"
         offset="0"
         id="stop3040" />
      <stop
         style="stop-color:#fff8cb;stop-opacity:1;"
         offset="1"
         id="stop3042" />
    </linearGradient>
  </defs>
  <sodipodi:namedview
     id="base"
     pagecolor="#ffffff"
     bordercolor="#666666"
     borderopacity="1.0"
     inkscape:pageopacity="1"
     inkscape:pageshadow="2"
     inkscape:zoom="0.67460151"
     inkscape:cx="469.31747"
     inkscape:cy="379.9615"
     inkscape:document-units="px"
     inkscape:current-layer="layer1"
     inkscape:window-width="1280"
     inkscape:window-height="724"
     inkscape:window-x="0"
     inkscape:window-y="51"
     showgrid="false"
     inkscape:window-maximized="1"
     inkscape:object-nodes="true"
     inkscape:object-paths="true"
     inkscape:snap-intersection-paths="false"
     inkscape:snap-smooth-nodes="false"
     inkscape:snap-nodes="false" />
  <metadata
     id="metadata7">
    <rdf:RDF>
      <cc:Work
         rdf:about="">
        <dc:format>image/svg+xml</dc:format>
        <dc:type
           rdf:resource="http://purl.org/dc/dcmitype/StillImage" />
        <dc:title></dc:title>
      </cc:Work>
    </rdf:RDF>
  </metadata>
  <g
     inkscape:label="Layer 1"
     inkscape:groupmode="layer"
     id="layer1">
    <path
       inkscape:connector-curvature="0"
       d="m -421.3949,3.2429941 c 9.38791,-3.70079903 19.20128,-6.2332876 28.87615,-9.0623619 14.30083,-4.3295972 28.81412,-7.7910352 43.44603,-10.7772822 5.3033,-1.075092 10.61999,-2.123763 16.0257,-2.489576 1.32515,-0.06848 2.65617,-0.118655 3.98289,-0.05829 0.45816,0.01694 0.91666,0.01742 1.37505,0.01505 0.26434,-0.0071 0.52831,-0.0071 0.79265,-0.0047 1.41909,0.04336 2.83909,0.04218 4.2587,0.04407 1.73396,0.0047 3.46786,-0.0047 5.20178,-0.01197 1.61296,-0.185121 2.26947,0.142577 3.65551,0.851738 1.59066,0.832923 2.99681,1.828256 4.26534,3.099654 1.34572,1.37541 2.46399,2.966734 3.2914,4.702518 0.53844,0.9381431 0.5396,2.0217419 0.78526,3.0372751 0.18726,0.6981429 0.6283,1.1538799 1.20554,1.5616097 1.01152,0.5462305 2.09126,0.7986239 3.22211,0.9870867 0.18184,0.024999 0.36367,0.049998 0.54551,0.074997 0,0 -10.30779,7.2208246 -10.30779,7.2208246 l 0,0 c -0.1826,-0.038505 -0.36521,-0.077011 -0.54781,-0.1153975 -1.26435,-0.30014 -2.52149,-0.6909038 -3.59132,-1.45463597 -0.69978,-0.60878679 -1.30081,-1.28621967 -1.5812,-2.18838143 -0.35268,-0.9473373 -0.16859,-2.024953 -0.65122,-2.953713 -0.7122,-1.6268081 -1.75474,-3.0834463 -3.02824,-4.3219194 -1.21289,-1.1456812 -2.59037,-2.0081293 -4.09636,-2.7277993 -1.07549,-0.487477 -2.15317,-0.417019 -3.32046,-0.396652 -1.72302,-0.0071 -3.44602,-0.01647 -5.16907,-0.01185 -1.4603,0.0024 -2.92092,0.0024 -4.38072,0.04479 -0.26424,0.0012 -0.52796,0.0024 -0.79207,-0.01066 -0.46549,-0.01185 -0.93077,-0.02559 -1.39572,-0.05166 -1.23764,-0.04941 -2.47646,-0.03246 -3.71347,0.03152 -5.14853,0.336004 -10.23691,1.216638 -15.3072,2.1454691 -14.47901,2.7500377 -28.79534,6.1783494 -42.89658,10.49171474 -10.08971,3.04494106 -20.3278,5.84803316 -29.99117,10.10661416 0,0 9.84078,-7.7773151 9.84078,-7.7773151 z"
       id="path3153"
       style="fill:#000000;fill-opacity:0" />
    <g
       id="g3773"
       style="fill:#000000">
      <path
         d="m 327.97653,587.80646 0,-5.46182 5.87145,-0.40963 c 0.8647,-0.091 1.57018,-0.40963 2.11646,-0.95582 0.54608,-0.54618 0.81918,-1.25166 0.81927,-2.11646 l 0,-35.63835 c -9e-5,-2.18468 -0.20491,-4.14183 -0.61446,-5.87145 -0.40972,-1.77504 -1.11521,-3.27704 -2.11645,-4.506 -0.95591,-1.22885 -2.23033,-2.18467 -3.82327,-2.86745 -1.59312,-0.68267 -3.55026,-1.02403 -5.87145,-1.02409 -1.18348,6e-5 -2.43514,0.11384 -3.755,0.34136 -1.2745,0.18212 -2.57168,0.45521 -3.89155,0.81927 -1.27449,0.31867 -2.54891,0.7283 -3.82327,1.22891 -1.22897,0.45521 -2.38961,0.95588 -3.48191,1.502 l 0,46.0158 c -6e-5,0.8648 0.27303,1.57028 0.81928,2.11646 0.54611,0.54619 1.2516,0.86479 2.11645,0.95582 l 5.87145,0.40963 0,5.46182 -30.65444,0 0,-5.46182 5.87145,-0.40963 c 0.86474,-0.091 1.57022,-0.40963 2.11646,-0.95582 0.54613,-0.54618 0.81922,-1.25166 0.81927,-2.11646 l 0,-36.52589 c -5e-5,-1.95711 -0.22763,-3.75495 -0.68273,-5.39355 -0.40969,-1.684 -1.11517,-3.09497 -2.11645,-4.2329 -0.95587,-1.18334 -2.23029,-2.09364 -3.82327,-2.73091 -1.54756,-0.68267 -3.43644,-1.02403 -5.66664,-1.02409 -1.31998,6e-5 -2.70819,0.1366 -4.16463,0.40963 -1.41101,0.22764 -2.77646,0.54624 -4.09636,0.95582 -1.31997,0.36418 -2.57164,0.79657 -3.755,1.29718 -1.13791,0.45521 -2.11648,0.91036 -2.93573,1.36546 l 0,45.87925 c -3e-5,0.8648 0.27307,1.57028 0.81927,2.11646 0.54616,0.54619 1.25164,0.86479 2.11646,0.95582 l 5.87145,0.40963 0,5.46182 -31.61026,0 0,-5.46182 6.82727,-0.40963 c 0.86477,-0.091 1.57026,-0.40963 2.11645,-0.95582 0.54617,-0.54618 0.81926,-1.25166 0.81927,-2.11646 l 0,-48.54189 -9.62645,0 0,-4.57427 16.93163,-5.32527 5.73491,0 0,6.96382 c 1.54749,-0.95576 3.2543,-1.93433 5.12045,-2.93573 1.91161,-1.00127 3.86875,-1.93433 5.87146,-2.79918 2.00262,-0.86472 4.00529,-1.57021 6.00799,-2.11645 2.04814,-0.54612 3.98253,-0.81921 5.80318,-0.81928 2.00262,7e-5 3.82322,0.29592 5.46182,0.88755 1.63849,0.54625 3.07221,1.29725 4.30118,2.253 1.27436,0.91036 2.36673,1.95721 3.27709,3.14054 0.95575,1.13794 1.72951,2.27582 2.32127,3.41364 1.4109,-0.86473 3.11772,-1.86606 5.12045,-3.004 2.0026,-1.13782 4.11905,-2.18466 6.34936,-3.14055 2.23017,-1.00126 4.46041,-1.84329 6.69073,-2.52609 2.23016,-0.68266 4.27834,-1.02402 6.14454,-1.02409 3.68664,7e-5 6.69063,0.6828 9.012,2.04818 2.32117,1.32001 4.14178,3.02682 5.46182,5.12046 1.36535,2.04824 2.29841,4.34675 2.79918,6.89554 0.50056,2.5489 0.75089,5.00671 0.751,7.37345 l 0,38.71062 c -1.1e-4,0.8648 0.27298,1.57028 0.81927,2.11646 0.59159,0.54619 1.29707,0.86479 2.11645,0.95582 l 6.759,0.40963 0,5.46182 -31.33717,0"
         style="font-size:139.82249451000001272px;font-style:normal;font-variant:normal;font-weight:normal;font-stretch:normal;text-align:center;line-height:125%;writing-mode:lr-tb;text-anchor:middle;fill:#000000;fill-opacity:1;stroke:none;font-family:Abyssinica SIL;-inkscape-font-specification:Abyssinica SIL"
         id="path3104" />
      <path
         d="m 427.72295,526.70239 -26.83117,65.40525 c -0.45519,1.13787 -1.0924,2.66263 -1.91164,4.57427 -0.81931,1.91162 -1.79788,3.93705 -2.93573,6.07627 -1.09239,2.18471 -2.3213,4.32392 -3.68672,6.41763 -1.31997,2.09368 -2.70818,3.86876 -4.16464,5.32527 -1.68408,1.68404 -3.5502,2.98122 -5.59836,3.89155 -2.00268,0.95578 -4.18741,1.43369 -6.55418,1.43372 -1.63855,-3e-5 -3.09504,-0.2276 -4.36945,-0.68272 -1.27443,-0.40967 -2.34404,-0.97861 -3.20882,-1.70682 -0.86479,-0.72827 -1.52476,-1.59306 -1.97991,-2.59436 -0.45515,-0.95585 -0.68273,-1.95718 -0.68272,-3.004 -10e-6,-1.59305 0.34136,-3.07229 1.02409,-4.43773 0.72823,-1.31995 1.88887,-2.63989 3.48191,-3.95981 l 13.10835,6.00799 c 1.13786,-1.13789 2.2985,-2.63989 3.48191,-4.50599 1.18337,-1.82062 2.29849,-3.75502 3.34536,-5.80318 1.04682,-2.04819 2.00264,-4.09637 2.86746,-6.14455 0.86475,-2.00267 1.54748,-3.77775 2.04818,-5.32527 l -23.7589,-60.96752 -7.71482,-0.81927 0,-5.46182 30.92754,0 0,5.46182 -6.69073,0.40963 c -0.77378,0.0911 -1.38823,0.43246 -1.84336,1.02409 -0.45518,0.59176 -0.54621,1.27449 -0.27309,2.04818 l 16.2489,41.23672 16.59027,-41.23672 c 0.31855,-0.72818 0.27303,-1.38815 -0.13655,-1.9799 -0.40969,-0.63715 -1.00138,-1.00128 -1.77509,-1.09237 l -6.62245,-0.40963 0,-5.46182 24.91954,0 0,5.46182 -7.30518,0.81927"
         style="font-size:139.82249451000001272px;font-style:normal;font-variant:normal;font-weight:normal;font-stretch:normal;text-align:center;line-height:125%;writing-mode:lr-tb;text-anchor:middle;fill:#000000;fill-opacity:1;stroke:none;font-family:Abyssinica SIL;-inkscape-font-specification:Abyssinica SIL"
         id="path3106" />
      <path
         d="m 509.17228,550.87093 c -7e-5,5.27978 -0.77383,10.17265 -2.32127,14.67863 -1.54759,4.4605 -3.95989,8.35204 -7.23691,11.67463 -3.23163,3.32261 -7.39626,5.91697 -12.4939,7.78309 -5.05223,1.86612 -11.08298,2.79918 -18.09227,2.79918 l -20.14045,0 0,-92.98742 -10.58227,0 0,-4.64255 18.024,-5.39354 5.59836,0 0,39.12026 c 0.81925,-0.36406 1.88885,-0.84197 3.20882,-1.43373 1.3199,-0.59163 2.8219,-1.16057 4.50599,-1.70682 1.72954,-0.54611 3.57291,-1.02402 5.53009,-1.43372 1.95711,-0.40957 3.95978,-0.61439 6.008,-0.61446 4.59698,7e-5 8.62507,0.86486 12.08427,2.59437 3.5046,1.72964 6.44033,4.07366 8.80718,7.03208 2.36672,2.95854 4.14181,6.39493 5.32527,10.30918 1.18332,3.86883 1.77502,7.94243 1.77509,12.22082 m -14.269,2.79918 c -5e-5,-8.78438 -1.88893,-15.42958 -5.66663,-19.93563 -3.73229,-4.50594 -8.96653,-6.75894 -15.70272,-6.759 -0.7738,6e-5 -1.6841,0.0683 -2.73091,0.20482 -1.04688,0.1366 -2.11649,0.31866 -3.20882,0.54618 -1.04688,0.22763 -2.09372,0.47797 -3.14054,0.751 -1.00136,0.27315 -1.84339,0.52348 -2.52609,0.751 l 0,51.88725 c 0.77373,0.0455 1.57024,0.0683 2.38954,0.0683 0.6827,0.0455 1.41094,0.0683 2.18473,0.0683 0.81924,0 1.57024,0 2.253,0 4.14184,0 7.82856,-0.4779 11.06018,-1.43373 3.23152,-0.95581 5.96243,-2.52608 8.19272,-4.71082 2.23019,-2.18471 3.937,-5.0294 5.12045,-8.53408 1.18334,-3.50464 1.77504,-7.80582 1.77509,-12.90354"
         style="font-size:139.82249451000001272px;font-style:normal;font-variant:normal;font-weight:normal;font-stretch:normal;text-align:center;line-height:125%;writing-mode:lr-tb;text-anchor:middle;fill:#000000;fill-opacity:1;stroke:none;font-family:Abyssinica SIL;-inkscape-font-specification:Abyssinica SIL"
         id="path3108" />
      <path
         d="m 562.28845,587.80646 -1.84337,-8.261 c -2.45786,1.86613 -4.98394,3.52743 -7.57827,4.98391 -1.13791,0.63721 -2.34406,1.25167 -3.61845,1.84336 -1.27446,0.5917 -2.59439,1.11512 -3.95982,1.57027 -1.31996,0.50067 -2.68542,0.88755 -4.09636,1.16064 -1.36548,0.27309 -2.73093,0.40963 -4.09636,0.40964 -2.54887,-10e-6 -4.93841,-0.4324 -7.16863,-1.29719 -2.18474,-0.86478 -4.09638,-2.11645 -5.73491,-3.75499 -1.63855,-1.63854 -2.93573,-3.61845 -3.89154,-5.93973 -0.91031,-2.32126 -1.36546,-4.96114 -1.36546,-7.91963 0,-1.72956 0.1593,-3.3681 0.47791,-4.91564 0.36412,-1.54749 1.0696,-3.04949 2.11645,-4.506 1.04684,-1.45645 2.50333,-2.84466 4.36946,-4.16463 1.91162,-1.36542 4.39219,-2.70812 7.44172,-4.02809 3.09501,-1.3199 6.85,-2.61708 11.265,-3.89154 4.46045,-1.3199 9.7402,-2.63984 15.83926,-3.95982 l 0,-6.008 c -4e-5,-4.688 -1.04689,-8.14715 -3.14054,-10.37745 -2.09374,-2.2757 -5.39358,-3.41357 -9.89954,-3.41364 -2.45785,7e-5 -4.55154,0.22764 -6.28109,0.68273 -1.7296,0.45521 -2.93575,0.81934 -3.61845,1.09237 l 0,12.15254 -10.17264,0 c -0.63722,4e-5 -1.27443,-0.0455 -1.91163,-0.13655 -0.59171,-0.091 -1.13789,-0.27304 -1.63855,-0.54618 -0.50067,-0.31856 -0.91031,-0.72819 -1.22891,-1.22891 -0.27309,-0.54613 -0.40964,-1.25161 -0.40963,-2.11645 -10e-6,-2.8674 0.86478,-5.32522 2.59436,-7.37346 1.72956,-2.09363 3.98256,-3.8232 6.759,-5.18872 2.7764,-1.36539 5.89419,-2.36672 9.35336,-3.004 3.45912,-0.63714 6.91827,-0.95575 10.37745,-0.95582 4.3239,7e-5 7.89683,0.5235 10.71881,1.57027 2.86741,1.04692 5.1204,2.5034 6.759,4.36946 1.68401,1.86618 2.8674,4.07366 3.55018,6.62245 0.68267,2.5489 1.02403,5.34808 1.02409,8.39754 l 0,39.18853 c -6e-5,0.8648 0.27303,1.57028 0.81928,2.11646 0.59163,0.54619 1.29712,0.86479 2.11645,0.95582 l 6.759,0.40963 0,5.46182 -20.68663,0 m -1.84337,-37.34517 c -6.28112,1.59306 -11.26503,3.16334 -14.95172,4.71082 -3.68675,1.54754 -6.48593,3.11781 -8.39754,4.71081 -1.86614,1.54754 -3.07229,3.14057 -3.61845,4.77909 -0.50069,1.59305 -0.75102,3.25435 -0.751,4.98391 -2e-5,1.4565 0.22755,2.89023 0.68272,4.30118 0.50065,1.36547 1.18338,2.59437 2.04819,3.68672 0.91028,1.09238 2.00264,1.97992 3.27709,2.66264 1.31991,0.63722 2.82191,0.95582 4.50599,0.95582 1.86609,0 3.80048,-0.34136 5.80318,-1.02409 2.04815,-0.68272 3.91427,-1.43372 5.59836,-2.253 1.95711,-0.95581 3.8915,-2.07093 5.80318,-3.34536 l 0,-24.16854"
         style="font-size:139.82249451000001272px;font-style:normal;font-variant:normal;font-weight:normal;font-stretch:normal;text-align:center;line-height:125%;writing-mode:lr-tb;text-anchor:middle;fill:#000000;fill-opacity:1;stroke:none;font-family:Abyssinica SIL;-inkscape-font-specification:Abyssinica SIL"
         id="path3110" />
      <path
         d="m 631.72178,584.87073 c -1.72962,0.86479 -3.6185,1.63855 -5.66664,2.32127 -1.72961,0.5917 -3.73228,1.11512 -6.008,1.57028 -2.27578,0.50066 -4.66533,0.75099 -7.16863,0.751 -5.27978,-10e-6 -9.10304,-1.22891 -11.46981,-3.68673 -2.3668,-2.45781 -3.5502,-6.46314 -3.55018,-12.016 l 0,-46.42543 -8.94373,0 0,-4.57428 9.55818,-4.50599 6.28109,-14.81518 6.14454,0 0,16.93163 19.73081,0 0,6.96382 -19.73081,0 0,39.05198 c -2e-5,2.77644 0.22755,5.14323 0.68273,7.10036 0.50064,1.91165 1.20612,3.48192 2.11645,4.71082 0.95579,1.1834 2.11643,2.04819 3.48191,2.59436 1.41094,0.54619 3.04948,0.81928 4.91564,0.81927 1.36541,10e-6 2.61708,-0.11378 3.75499,-0.34136 1.18336,-0.22757 2.20745,-0.50066 3.07228,-0.81927 1.00128,-0.36412 1.93434,-0.77375 2.79918,-1.22891 l 0,5.59836"
         style="font-size:139.82249451000001272px;font-style:normal;font-variant:normal;font-weight:normal;font-stretch:normal;text-align:center;line-height:125%;writing-mode:lr-tb;text-anchor:middle;fill:#000000;fill-opacity:1;stroke:none;font-family:Abyssinica SIL;-inkscape-font-specification:Abyssinica SIL"
         id="path3112" />
      <path
         d="m 663.40031,497.34513 c -3e-5,1.18348 -0.2276,2.32136 -0.68272,3.41363 -0.40967,1.04694 -1.00137,1.95724 -1.77509,2.73091 -0.77379,0.77384 -1.68409,1.38829 -2.73091,1.84336 -1.00136,0.45524 -2.09372,0.68281 -3.27709,0.68273 -1.18342,8e-5 -2.32129,-0.22749 -3.41364,-0.68273 -1.04686,-0.45507 -1.95717,-1.06952 -2.73091,-1.84336 -0.77377,-0.77367 -1.38822,-1.68397 -1.84336,-2.73091 -0.45516,-1.09227 -0.68274,-2.23015 -0.68273,-3.41363 -10e-6,-1.18331 0.22757,-2.29842 0.68273,-3.34537 0.45514,-1.04675 1.06959,-1.95705 1.84336,-2.7309 0.77374,-0.77366 1.68405,-1.36536 2.73091,-1.77509 1.09235,-0.45506 2.23022,-0.68263 3.41364,-0.68273 1.18337,1e-4 2.27573,0.22767 3.27709,0.68273 1.04682,0.40973 1.95712,1.00143 2.73091,1.77509 0.77372,0.77385 1.36542,1.68415 1.77509,2.7309 0.45512,1.04695 0.68269,2.16206 0.68272,3.34537 m -25.67053,90.46133 0,-5.46182 6.82727,-0.40963 c 0.86477,-0.091 1.57026,-0.40963 2.11645,-0.95582 0.54617,-0.54618 0.81926,-1.25166 0.81927,-2.11646 l 0,-49.90734 -9.62645,0 0,-4.91564 17.06818,-5.32527 5.53009,0 0,60.14825 c -3e-5,0.8648 0.27306,1.57028 0.81927,2.11646 0.59167,0.54619 1.29715,0.86479 2.11645,0.95582 l 7.16864,0.40963 0,5.46182 -32.83917,0"
         style="font-size:139.82249451000001272px;font-style:normal;font-variant:normal;font-weight:normal;font-stretch:normal;text-align:center;line-height:125%;writing-mode:lr-tb;text-anchor:middle;fill:#000000;fill-opacity:1;stroke:none;font-family:Abyssinica SIL;-inkscape-font-specification:Abyssinica SIL"
         id="path3114" />
      <path
         d="m 726.14292,567.52946 c -5e-5,3.41366 -0.6145,6.48593 -1.84336,9.21682 -1.22896,2.73092 -2.98129,5.05219 -5.257,6.96382 -2.2758,1.86612 -5.07498,3.29984 -8.39754,4.30118 -3.32264,1.00133 -7.05488,1.50199 -11.19673,1.502 -2.13923,-10e-6 -4.23292,-0.13655 -6.28108,-0.40964 -2.00269,-0.22758 -3.8688,-0.54618 -5.59837,-0.95582 -1.68407,-0.36412 -3.18606,-0.751 -4.50599,-1.16063 -1.31995,-0.40964 -2.32128,-0.751 -3.004,-1.0241 l 0,-18.57017 7.10036,0 1.70682,11.87945 c 1.41095,0.91031 3.14052,1.79785 5.18872,2.66264 2.09368,0.81927 4.50598,1.22891 7.23691,1.2289 2.00264,10e-6 3.77772,-0.29584 5.32527,-0.88754 1.54748,-0.63721 2.84466,-1.45648 3.89154,-2.45782 1.09233,-1.00132 1.9116,-2.1392 2.45782,-3.41363 0.59166,-1.31993 0.88751,-2.68538 0.88754,-4.09637 -3e-5,-1.95713 -0.38691,-3.61843 -1.16063,-4.9839 -0.77379,-1.41095 -1.88891,-2.66262 -3.34536,-3.755 -1.45652,-1.13785 -3.25437,-2.23022 -5.39355,-3.27709 -2.09372,-1.04682 -4.48326,-2.23021 -7.16863,-3.55018 -2.54887,-1.22888 -4.80186,-2.43503 -6.759,-3.61846 -1.95716,-1.22887 -3.61846,-2.52605 -4.98391,-3.89154 -1.31994,-1.41093 -2.32127,-2.93568 -3.00399,-4.57427 -0.68274,-1.68402 -1.0241,-3.57289 -1.02409,-5.66663 -10e-6,-3.09498 0.54617,-5.89416 1.63854,-8.39755 1.13787,-2.50327 2.77641,-4.61972 4.91563,-6.34936 2.1392,-1.77502 4.75632,-3.14048 7.85137,-4.09636 3.14052,-0.95575 6.73621,-1.43366 10.78708,-1.43373 2.04815,7e-5 4.0053,0.11386 5.87145,0.34137 1.86609,0.22764 3.5729,0.50073 5.12046,0.81927 1.54747,0.31867 2.91292,0.66004 4.09636,1.02409 1.18335,0.36419 2.11641,0.70555 2.79918,1.02409 l 0,16.52199 -7.30518,0 -1.09236,-9.76299 c -1.00137,-0.7737 -2.48061,-1.50194 -4.43773,-2.18473 -1.95718,-0.68266 -4.02812,-1.02403 -6.21281,-1.02409 -3.86882,6e-5 -6.73627,0.88761 -8.60236,2.66264 -1.82063,1.72963 -2.73093,3.95987 -2.73091,6.69072 -2e-5,1.59308 0.25031,2.98129 0.751,4.16464 0.54616,1.18344 1.41095,2.29856 2.59436,3.34536 1.22889,1.04689 2.82191,2.11649 4.77909,3.20881 2.00264,1.09241 4.48321,2.32132 7.44172,3.68673 2.45778,1.0924 4.71078,2.23028 6.759,3.41364 2.04814,1.18342 3.82323,2.50336 5.32527,3.95981 1.50195,1.45652 2.66259,3.0723 3.48191,4.84736 0.86474,1.77512 1.29713,3.80054 1.29718,6.07627"
         style="font-size:139.82249451000001272px;font-style:normal;font-variant:normal;font-weight:normal;font-stretch:normal;text-align:center;line-height:125%;writing-mode:lr-tb;text-anchor:middle;fill:#000000;fill-opacity:1;stroke:none;font-family:Abyssinica SIL;-inkscape-font-specification:Abyssinica SIL"
         id="path3116" />
    </g>
    <rect
       style="color:#000000;fill:#000000;fill-opacity:1;fill-rule:nonzero;stroke:none;stroke-width:2;marker:none;visibility:visible;display:inline;overflow:visible;enable-background:accumulate"
       id="rect2969"
       width="498"
       height="12"
       x="-735.23267"
       y="462.58575"
       ry="6"
       transform="scale(-1,1)" />
    <rect
       ry="6"
       y="632.58575"
       x="-739.23267"
       height="12"
       width="498"
       id="rect2971"
       style="color:#000000;fill:#000000;fill-opacity:1;fill-rule:nonzero;stroke:none;stroke-width:2;marker:none;visibility:visible;display:inline;overflow:visible;enable-background:accumulate"
       transform="scale(-1,1)" />
    <path
       style="fill:#ffffff;fill-opacity:1;stroke:#000000"
       d="m 446.78,450.62916 c 82.79806,18.32607 172.10055,-38.05327 194.65066,-119.15747 16.40318,-50.06791 9.4769,-103.61711 10.91496,-155.25977 -10.23933,-36.31881 -58.9403,-41.9354 -89.33075,-29.99264 -44.4439,19.3096 -67.85385,64.59511 -103.29738,95.3828 -39.25088,38.33077 -79.44541,76.63578 -108.88739,123.34913 -38.97317,50.13334 -97.15985,78.982 -146.92114,116.10096 -20.50342,25.21801 24.04532,-9.04947 32.76904,-13.64609 40.63638,-26.12281 86.10131,-55.00455 136.47558,-50.14594 26.8943,5.61672 46.45329,28.52972 73.62642,33.36902 z"
       id="path2920" />
    <path
       style="fill:#000000;stroke:none"
       d="m 649.8222,163.58127 c -17.15588,-22.02116 -62.78882,-33.00467 -97.7898,-12.62966 29.01663,-5.13965 64.02461,0.53669 82.57035,21.25278 5.67328,-3.54989 9.29061,-5.36413 15.21945,-8.62312 z"
       id="path2922"
       inkscape:connector-curvature="0"
       sodipodi:nodetypes="cccc" />
    <path
       style="fill:#000000;fill-opacity:1"
       d="m 480.53709,220.28715 c 12.98853,-13.10308 24.56233,-27.53925 37.48261,-40.69149 8.88584,-8.93851 17.24543,-17.87818 28.38394,-24.84591 15.28665,-3.53696 36.19754,-1.09719 51.27891,5.93196 11.16901,5.60481 16.62878,11.25737 23.48938,21.84039 -8.4231,1.50789 -15.20714,7.30779 -22.54453,11.36692 -17.7881,10.92068 -35.22946,22.77607 -54.66245,30.62903 -13.75472,4.2793 -28.33952,-2.33191 -38.28601,-11.78562 -3.86611,-3.98609 -9.4876,-2.01435 -13.67668,0.20739 -4.05851,2.05982 -7.70017,4.81535 -11.46517,7.34733 z"
       id="path2924"
       inkscape:connector-curvature="0"
       sodipodi:nodetypes="cccccccccc" />
    <path
       inkscape:label="#path1343"
       sodipodi:nodetypes="cccccc"
       id="path2926"
       d="m 646.59337,315.23689 c 3.78005,-13.61274 6.23906,-41.0099 5.33406,-44.35017 -23.275,1.11231 -84.30785,-16.09412 -106.25285,-26.39544 31.12261,27.76051 27.59763,22.66799 34.90708,40.36813 7.09695,8.64688 -5.52613,24.37034 -6.56435,33.9867 29.95351,27.09202 61.86864,31.16516 72.57606,-3.60922 z"
       style="fill:#000000;fill-opacity:1;stroke:none"
       inkscape:connector-curvature="0" />
    <path
       inkscape:label="#Tail"
       sodipodi:nodetypes="ccccc"
       id="path2928"
       d="m 435.68667,340.13654 c -70.38216,30.24336 -188.2647,170.73702 -265.86563,164.56113 -0.76802,-3.30697 123.76657,-89.98855 146.24138,-106.34818 17.68659,-12.85413 34.5339,-34.86254 34.81319,-41.48326 11.26523,-4.28093 71.63891,-17.09605 84.81106,-16.72969 z"
       style="fill:#000000;fill-opacity:1;stroke:none"
       inkscape:connector-curvature="0" />
    <path
       inkscape:connector-curvature="0"
       inkscape:label="#path2513"
       sodipodi:nodetypes="cccsc"
       id="path2932"
       d="m 608.52409,187.9229 c 18.33528,3.67451 27.62524,3.77148 42.94457,3.26504 12.4185,-7.93983 21.71583,-15.70775 28.65429,-24.39935 -5.21944,0.22555 -13.42532,1.89596 -25.6372,5.0962 -12.21187,3.20024 -26.8939,7.51761 -45.96166,16.03811 z"
       style="fill:#000000" />
    <path
       inkscape:connector-curvature="0"
       inkscape:label="#path2530"
       style="fill:#ffffff;fill-opacity:1;stroke:#000000"
       d="m 608.52409,187.9229 c 26.07866,-15.71851 26.07866,-15.71851 41.29811,-24.34163 14.72972,-0.54349 19.18099,1.4553 30.19631,3.19957 -13.84697,2.06114 -19.27713,3.3658 -27.30895,5.76161 -13.64429,4.06995 -22.93368,6.63327 -44.18547,15.38045 z"
       id="path2934"
       sodipodi:nodetypes="cccsc" />
    <path
       transform="matrix(-0.55803884,0,0,0.50764696,675.08077,157.83975)"
       d="m 202.14285,38.612183 a 23.75,22.678572 0 1 1 -47.5,0 23.75,22.678572 0 1 1 47.5,0 z"
       sodipodi:ry="22.678572"
       sodipodi:rx="23.75"
       sodipodi:cy="38.612183"
       sodipodi:cx="178.39285"
       id="path2938"
       style="fill:#ffffff;fill-opacity:1;stroke:none"
       sodipodi:type="arc" />
    <path
       transform="matrix(-0.83257539,0,0,0.75739238,721.52867,147.65554)"
       d="m 187.14286,39.326466 a 11.785714,11.607142 0 1 1 -23.57143,0 11.785714,11.607142 0 1 1 23.57143,0 z"
       sodipodi:ry="11.607142"
       sodipodi:rx="11.785714"
       sodipodi:cy="39.326466"
       sodipodi:cx="175.35715"
       id="path2940"
       style="fill:#000000;fill-opacity:1;stroke:none"
       sodipodi:type="arc" />
    <path
       inkscape:connector-curvature="0"
       id="path2944"
       d="m 547.78936,245.64721 c 16.8248,10.8982 34.08649,26.36904 35.86048,47.63338 -1.76189,24.24352 -23.7502,44.15158 -47.78017,45.00949 -24.88102,5.43121 -50.26667,0.68202 -75.32676,0.33422 -24.42539,1.2846 -47.15446,11.2172 -70.85364,16.31436 -28.55981,7.10576 -56.4528,17.98382 -80.31233,35.50886 -5.10167,4.6023 -18.93537,10.57405 -9.78176,-0.33089 21.63462,-35.39003 46.30735,-69.5411 77.16176,-97.4843 28.83452,-24.24938 61.16807,-45.82995 97.68372,-56.31506 24.476,-5.64004 51.36188,-3.38291 73.3487,9.32994 z"
       style="fill:#000000;fill-opacity:1" />
    <path
       inkscape:connector-curvature="0"
       inkscape:label="#path1347"
       sodipodi:nodetypes="cccsccc"
       id="path2946"
       d="m 315.85585,378.64676 c 20.99016,-14.41694 28.94973,-19.50535 51.43394,-31.37538 -5.96957,4.56289 -13.61795,7.36933 -23.37646,17.91053 9.40278,-2.908 16.56908,-8.09368 38.93132,-14.18753 11.18112,-3.04693 -0.93802,1.97976 -5.00395,5.11957 12.77954,-2.47535 65.02409,-24.90529 67.40296,-24.75773 -23.15503,-34.09669 -100.4423,13.67679 -129.38781,47.29054 z"
       style="fill:#ffffff;stroke:none" />
    <path
       style="fill:#000000;fill-opacity:0"
       id="path2950"
       d="m 561.83774,142.82877 c 9.38791,-3.7008 19.20128,-6.23329 28.87615,-9.06236 14.30083,-4.3296 28.81412,-7.79104 43.44603,-10.77729 5.3033,-1.07509 10.61999,-2.12376 16.0257,-2.48957 1.32515,-0.0685 2.65617,-0.11866 3.98289,-0.0583 0.45816,0.0169 0.91666,0.0174 1.37505,0.015 0.26434,-0.007 0.52831,-0.007 0.79265,-0.005 1.41909,0.0434 2.83909,0.0422 4.2587,0.0441 1.73396,0.005 3.46786,-0.005 5.20178,-0.012 1.61296,-0.18512 2.26947,0.14258 3.65551,0.85174 1.59066,0.83292 2.99681,1.82825 4.26534,3.09965 1.34572,1.37541 2.46399,2.96674 3.2914,4.70252 0.53844,0.93814 0.5396,2.02174 0.78526,3.03728 0.18726,0.69814 0.6283,1.15388 1.20554,1.56161 1.01152,0.54623 2.09126,0.79862 3.22211,0.98708 0.18184,0.025 0.36367,0.05 0.54551,0.075 0,0 -10.30779,7.22082 -10.30779,7.22082 l 0,0 c -0.1826,-0.0385 -0.36521,-0.077 -0.54781,-0.11539 -1.26435,-0.30014 -2.52149,-0.69091 -3.59132,-1.45464 -0.69978,-0.60879 -1.30081,-1.28622 -1.5812,-2.18838 -0.35268,-0.94734 -0.16859,-2.02495 -0.65122,-2.95371 -0.7122,-1.62681 -1.75474,-3.08345 -3.02824,-4.32192 -1.21289,-1.14568 -2.59037,-2.00813 -4.09636,-2.7278 -1.07549,-0.48748 -2.15317,-0.41702 -3.32046,-0.39666 -1.72302,-0.007 -3.44602,-0.0165 -5.16907,-0.0118 -1.4603,0.002 -2.92092,0.002 -4.38072,0.0448 -0.26424,10e-4 -0.52796,0.002 -0.79207,-0.0107 -0.46549,-0.0118 -0.93077,-0.0256 -1.39572,-0.0517 -1.23764,-0.0494 -2.47646,-0.0325 -3.71347,0.0315 -5.14853,0.336 -10.23691,1.21663 -15.3072,2.14547 -14.47901,2.75003 -28.79534,6.17835 -42.89658,10.49171 -10.08971,3.04494 -20.3278,5.84803 -29.99117,10.10662 0,0 9.84078,-7.77732 9.84078,-7.77732 z"
       inkscape:connector-curvature="0" />
    <path
       inkscape:label="#path2505"
       sodipodi:nodetypes="ccccc"
       id="path2952"
       d="m 652.38157,257.87178 c 0.14347,-12.07251 1.00901,-42.97454 0.66595,-46.45177 -12.1148,2.25442 -34.58065,-0.64714 -42.93511,-3.99688 -7.42244,3.58443 -35.61545,31.71789 -35.40956,35.7563 26.22404,8.46202 49.28126,14.3529 77.67872,14.69235 z"
       style="fill:#000000"
       inkscape:connector-curvature="0" />
    <path
       sodipodi:nodetypes="ccc"
       inkscape:connector-curvature="0"
       id="path2948"
       d="M 536.97073,293.60358 C 428.99136,305.34596 390.65347,300.53627 303.46479,387.18975 419.27417,218.58404 572.36135,288.58379 536.97073,293.60358 z"
       style="fill:#ffffff;fill-opacity:1;fill-rule:evenodd;stroke:none" />
    <path
       sodipodi:type="arc"
       style="fill:#ffffff;fill-opacity:1;stroke:none"
       id="path3766"
       sodipodi:cx="175.35715"
       sodipodi:cy="39.326466"
       sodipodi:rx="11.785714"
       sodipodi:ry="11.607142"
       d="m 187.14286,39.326466 a 11.785714,11.607142 0 1 1 -23.57143,0 11.785714,11.607142 0 1 1 23.57143,0 z"
       transform="matrix(-0.4379291,0,0,0.39838334,654.81874,159.35965)" />
  </g>
</svg>
