<?xml version="1.0" encoding="UTF-8" standalone="no"?>
<!-- Created with Inkscape (http://www.inkscape.org/) -->

<svg
   xmlns:dc="http://purl.org/dc/elements/1.1/"
   xmlns:cc="http://creativecommons.org/ns#"
   xmlns:rdf="http://www.w3.org/1999/02/22-rdf-syntax-ns#"
   xmlns:svg="http://www.w3.org/2000/svg"
   xmlns="http://www.w3.org/2000/svg"
   xmlns:sodipodi="http://sodipodi.sourceforge.net/DTD/sodipodi-0.dtd"
   xmlns:inkscape="http://www.inkscape.org/namespaces/inkscape"
   width="792pt"
   height="612pt"
   id="svg2"
   sodipodi:version="0.32"
   inkscape:version="0.48.2 r9819"
   sodipodi:docname="vector-logo-bird-2.svg"
   version="1.0"
   inkscape:export-filename="/home/eduardo/workspace/logo/logo-bird-2.png"
   inkscape:export-xdpi="54.549999"
   inkscape:export-ydpi="54.549999">
  <defs
     id="defs4">
    <inkscape:perspective
       sodipodi:type="inkscape:persp3d"
       inkscape:vp_x="0 : 382.5 : 1"
       inkscape:vp_y="0 : 1000 : 0"
       inkscape:vp_z="990 : 382.5 : 1"
       inkscape:persp3d-origin="495 : 255 : 1"
       id="perspective31" />
    <linearGradient
       id="linearGradient3038">
      <stop
         style="stop-color:#757769;stop-opacity:1;"
         offset="0"
         id="stop3040" />
      <stop
         style="stop-color:#fff8cb;stop-opacity:1;"
         offset="1"
         id="stop3042" />
    </linearGradient>
    <linearGradient
       id="linearGradient3038-2">
      <stop
         style="stop-color:#757769;stop-opacity:1;"
         offset="0"
         id="stop3040-7" />
      <stop
         style="stop-color:#fff8cb;stop-opacity:1;"
         offset="1"
         id="stop3042-0" />
    </linearGradient>
  </defs>
  <sodipodi:namedview
     id="base"
     pagecolor="#ffffff"
     bordercolor="#666666"
     borderopacity="1.0"
     inkscape:pageopacity="1"
     inkscape:pageshadow="2"
     inkscape:zoom="2.8836699"
     inkscape:cx="508.41152"
     inkscape:cy="471.70804"
     inkscape:document-units="px"
     inkscape:current-layer="layer1"
     inkscape:window-width="1366"
     inkscape:window-height="744"
     inkscape:window-x="0"
     inkscape:window-y="24"
     showgrid="false"
     inkscape:window-maximized="1"
     inkscape:object-nodes="true"
     inkscape:object-paths="true"
     inkscape:snap-intersection-paths="false"
     inkscape:snap-smooth-nodes="false"
     inkscape:snap-nodes="false" />
  <metadata
     id="metadata7">
    <rdf:RDF>
      <cc:Work
         rdf:about="">
        <dc:format>image/svg+xml</dc:format>
        <dc:type
           rdf:resource="http://purl.org/dc/dcmitype/StillImage" />
        <dc:title></dc:title>
      </cc:Work>
    </rdf:RDF>
  </metadata>
  <g
     inkscape:label="Layer 1"
     inkscape:groupmode="layer"
     id="layer1">
    <path
       id="path3104"
       style="font-size:139.82249451000001272px;font-style:normal;font-variant:normal;font-weight:normal;font-stretch:normal;text-align:center;line-height:125%;writing-mode:lr-tb;text-anchor:middle;fill:#550000;fill-opacity:1;stroke:none;font-family:Abyssinica SIL;-inkscape-font-specification:Abyssinica SIL"
       d="m 327.97653,587.80646 0,-5.46182 5.87145,-0.40963 c 0.8647,-0.091 1.57018,-0.40963 2.11646,-0.95582 0.54608,-0.54618 0.81918,-1.25166 0.81927,-2.11646 l 0,-35.63835 c -9e-5,-2.18468 -0.20491,-4.14183 -0.61446,-5.87145 -0.40972,-1.77504 -1.11521,-3.27704 -2.11645,-4.506 -0.95591,-1.22885 -2.23033,-2.18467 -3.82327,-2.86745 -1.59312,-0.68267 -3.55026,-1.02403 -5.87145,-1.02409 -1.18348,6e-5 -2.43514,0.11384 -3.755,0.34136 -1.2745,0.18212 -2.57168,0.45521 -3.89155,0.81927 -1.27449,0.31867 -2.54891,0.7283 -3.82327,1.22891 -1.22897,0.45521 -2.38961,0.95588 -3.48191,1.502 l 0,46.0158 c -6e-5,0.8648 0.27303,1.57028 0.81928,2.11646 0.54611,0.54619 1.2516,0.86479 2.11645,0.95582 l 5.87145,0.40963 0,5.46182 -30.65444,0 0,-5.46182 5.87145,-0.40963 c 0.86474,-0.091 1.57022,-0.40963 2.11646,-0.95582 0.54613,-0.54618 0.81922,-1.25166 0.81927,-2.11646 l 0,-36.52589 c -5e-5,-1.95711 -0.22763,-3.75495 -0.68273,-5.39355 -0.40969,-1.684 -1.11517,-3.09497 -2.11645,-4.2329 -0.95587,-1.18334 -2.23029,-2.09364 -3.82327,-2.73091 -1.54756,-0.68267 -3.43644,-1.02403 -5.66664,-1.02409 -1.31998,6e-5 -2.70819,0.1366 -4.16463,0.40963 -1.41101,0.22764 -2.77646,0.54624 -4.09636,0.95582 -1.31997,0.36418 -2.57164,0.79657 -3.755,1.29718 -1.13791,0.45521 -2.11648,0.91036 -2.93573,1.36546 l 0,45.87925 c -3e-5,0.8648 0.27307,1.57028 0.81927,2.11646 0.54616,0.54619 1.25164,0.86479 2.11646,0.95582 l 5.87145,0.40963 0,5.46182 -31.61026,0 0,-5.46182 6.82727,-0.40963 c 0.86477,-0.091 1.57026,-0.40963 2.11645,-0.95582 0.54617,-0.54618 0.81926,-1.25166 0.81927,-2.11646 l 0,-48.54189 -9.62645,0 0,-4.57427 16.93163,-5.32527 5.73491,0 0,6.96382 c 1.54749,-0.95576 3.2543,-1.93433 5.12045,-2.93573 1.91161,-1.00127 3.86875,-1.93433 5.87146,-2.79918 2.00262,-0.86472 4.00529,-1.57021 6.00799,-2.11645 2.04814,-0.54612 3.98253,-0.81921 5.80318,-0.81928 2.00262,7e-5 3.82322,0.29592 5.46182,0.88755 1.63849,0.54625 3.07221,1.29725 4.30118,2.253 1.27436,0.91036 2.36673,1.95721 3.27709,3.14054 0.95575,1.13794 1.72951,2.27582 2.32127,3.41364 1.4109,-0.86473 3.11772,-1.86606 5.12045,-3.004 2.0026,-1.13782 4.11905,-2.18466 6.34936,-3.14055 2.23017,-1.00126 4.46041,-1.84329 6.69073,-2.52609 2.23016,-0.68266 4.27834,-1.02402 6.14454,-1.02409 3.68664,7e-5 6.69063,0.6828 9.012,2.04818 2.32117,1.32001 4.14178,3.02682 5.46182,5.12046 1.36535,2.04824 2.29841,4.34675 2.79918,6.89554 0.50056,2.5489 0.75089,5.00671 0.751,7.37345 l 0,38.71062 c -1.1e-4,0.8648 0.27298,1.57028 0.81927,2.11646 0.59159,0.54619 1.29707,0.86479 2.11645,0.95582 l 6.759,0.40963 0,5.46182 -31.33717,0" />
    <path
       id="path3106"
       style="font-size:139.82249451000001272px;font-style:normal;font-variant:normal;font-weight:normal;font-stretch:normal;text-align:center;line-height:125%;writing-mode:lr-tb;text-anchor:middle;fill:#550000;fill-opacity:1;stroke:none;font-family:Abyssinica SIL;-inkscape-font-specification:Abyssinica SIL"
       d="m 427.72295,526.70239 -26.83117,65.40525 c -0.45519,1.13787 -1.0924,2.66263 -1.91164,4.57427 -0.81931,1.91162 -1.79788,3.93705 -2.93573,6.07627 -1.09239,2.18471 -2.3213,4.32392 -3.68672,6.41763 -1.31997,2.09368 -2.70818,3.86876 -4.16464,5.32527 -1.68408,1.68404 -3.5502,2.98122 -5.59836,3.89155 -2.00268,0.95578 -4.18741,1.43369 -6.55418,1.43372 -1.63855,-3e-5 -3.09504,-0.2276 -4.36945,-0.68272 -1.27443,-0.40967 -2.34404,-0.97861 -3.20882,-1.70682 -0.86479,-0.72827 -1.52476,-1.59306 -1.97991,-2.59436 -0.45515,-0.95585 -0.68273,-1.95718 -0.68272,-3.004 -10e-6,-1.59305 0.34136,-3.07229 1.02409,-4.43773 0.72823,-1.31995 1.88887,-2.63989 3.48191,-3.95981 l 13.10835,6.00799 c 1.13786,-1.13789 2.2985,-2.63989 3.48191,-4.50599 1.18337,-1.82062 2.29849,-3.75502 3.34536,-5.80318 1.04682,-2.04819 2.00264,-4.09637 2.86746,-6.14455 0.86475,-2.00267 1.54748,-3.77775 2.04818,-5.32527 l -23.7589,-60.96752 -7.71482,-0.81927 0,-5.46182 30.92754,0 0,5.46182 -6.69073,0.40963 c -0.77378,0.0911 -1.38823,0.43246 -1.84336,1.02409 -0.45518,0.59176 -0.54621,1.27449 -0.27309,2.04818 l 16.2489,41.23672 16.59027,-41.23672 c 0.31855,-0.72818 0.27303,-1.38815 -0.13655,-1.9799 -0.40969,-0.63715 -1.00138,-1.00128 -1.77509,-1.09237 l -6.62245,-0.40963 0,-5.46182 24.91954,0 0,5.46182 -7.30518,0.81927" />
    <path
       id="path3108"
       style="font-size:139.82249451000001272px;font-style:normal;font-variant:normal;font-weight:normal;font-stretch:normal;text-align:center;line-height:125%;writing-mode:lr-tb;text-anchor:middle;fill:#550000;fill-opacity:1;stroke:none;font-family:Abyssinica SIL;-inkscape-font-specification:Abyssinica SIL"
       d="m 509.17228,550.87093 c -7e-5,5.27978 -0.77383,10.17265 -2.32127,14.67863 -1.54759,4.4605 -3.95989,8.35204 -7.23691,11.67463 -3.23163,3.32261 -7.39626,5.91697 -12.4939,7.78309 -5.05223,1.86612 -11.08298,2.79918 -18.09227,2.79918 l -20.14045,0 0,-92.98742 -10.58227,0 0,-4.64255 18.024,-5.39354 5.59836,0 0,39.12026 c 0.81925,-0.36406 1.88885,-0.84197 3.20882,-1.43373 1.3199,-0.59163 2.8219,-1.16057 4.50599,-1.70682 1.72954,-0.54611 3.57291,-1.02402 5.53009,-1.43372 1.95711,-0.40957 3.95978,-0.61439 6.008,-0.61446 4.59698,7e-5 8.62507,0.86486 12.08427,2.59437 3.5046,1.72964 6.44033,4.07366 8.80718,7.03208 2.36672,2.95854 4.14181,6.39493 5.32527,10.30918 1.18332,3.86883 1.77502,7.94243 1.77509,12.22082 m -14.269,2.79918 c -5e-5,-8.78438 -1.88893,-15.42958 -5.66663,-19.93563 -3.73229,-4.50594 -8.96653,-6.75894 -15.70272,-6.759 -0.7738,6e-5 -1.6841,0.0683 -2.73091,0.20482 -1.04688,0.1366 -2.11649,0.31866 -3.20882,0.54618 -1.04688,0.22763 -2.09372,0.47797 -3.14054,0.751 -1.00136,0.27315 -1.84339,0.52348 -2.52609,0.751 l 0,51.88725 c 0.77373,0.0455 1.57024,0.0683 2.38954,0.0683 0.6827,0.0455 1.41094,0.0683 2.18473,0.0683 0.81924,0 1.57024,0 2.253,0 4.14184,0 7.82856,-0.4779 11.06018,-1.43373 3.23152,-0.95581 5.96243,-2.52608 8.19272,-4.71082 2.23019,-2.18471 3.937,-5.0294 5.12045,-8.53408 1.18334,-3.50464 1.77504,-7.80582 1.77509,-12.90354" />
    <path
       id="path3110"
       style="font-size:139.82249451000001272px;font-style:normal;font-variant:normal;font-weight:normal;font-stretch:normal;text-align:center;line-height:125%;writing-mode:lr-tb;text-anchor:middle;fill:#550000;fill-opacity:1;stroke:none;font-family:Abyssinica SIL;-inkscape-font-specification:Abyssinica SIL"
       d="m 562.28845,587.80646 -1.84337,-8.261 c -2.45786,1.86613 -4.98394,3.52743 -7.57827,4.98391 -1.13791,0.63721 -2.34406,1.25167 -3.61845,1.84336 -1.27446,0.5917 -2.59439,1.11512 -3.95982,1.57027 -1.31996,0.50067 -2.68542,0.88755 -4.09636,1.16064 -1.36548,0.27309 -2.73093,0.40963 -4.09636,0.40964 -2.54887,-10e-6 -4.93841,-0.4324 -7.16863,-1.29719 -2.18474,-0.86478 -4.09638,-2.11645 -5.73491,-3.75499 -1.63855,-1.63854 -2.93573,-3.61845 -3.89154,-5.93973 -0.91031,-2.32126 -1.36546,-4.96114 -1.36546,-7.91963 0,-1.72956 0.1593,-3.3681 0.47791,-4.91564 0.36412,-1.54749 1.0696,-3.04949 2.11645,-4.506 1.04684,-1.45645 2.50333,-2.84466 4.36946,-4.16463 1.91162,-1.36542 4.39219,-2.70812 7.44172,-4.02809 3.09501,-1.3199 6.85,-2.61708 11.265,-3.89154 4.46045,-1.3199 9.7402,-2.63984 15.83926,-3.95982 l 0,-6.008 c -4e-5,-4.688 -1.04689,-8.14715 -3.14054,-10.37745 -2.09374,-2.2757 -5.39358,-3.41357 -9.89954,-3.41364 -2.45785,7e-5 -4.55154,0.22764 -6.28109,0.68273 -1.7296,0.45521 -2.93575,0.81934 -3.61845,1.09237 l 0,12.15254 -10.17264,0 c -0.63722,4e-5 -1.27443,-0.0455 -1.91163,-0.13655 -0.59171,-0.091 -1.13789,-0.27304 -1.63855,-0.54618 -0.50067,-0.31856 -0.91031,-0.72819 -1.22891,-1.22891 -0.27309,-0.54613 -0.40964,-1.25161 -0.40963,-2.11645 -10e-6,-2.8674 0.86478,-5.32522 2.59436,-7.37346 1.72956,-2.09363 3.98256,-3.8232 6.759,-5.18872 2.7764,-1.36539 5.89419,-2.36672 9.35336,-3.004 3.45912,-0.63714 6.91827,-0.95575 10.37745,-0.95582 4.3239,7e-5 7.89683,0.5235 10.71881,1.57027 2.86741,1.04692 5.1204,2.5034 6.759,4.36946 1.68401,1.86618 2.8674,4.07366 3.55018,6.62245 0.68267,2.5489 1.02403,5.34808 1.02409,8.39754 l 0,39.18853 c -6e-5,0.8648 0.27303,1.57028 0.81928,2.11646 0.59163,0.54619 1.29712,0.86479 2.11645,0.95582 l 6.759,0.40963 0,5.46182 -20.68663,0 m -1.84337,-37.34517 c -6.28112,1.59306 -11.26503,3.16334 -14.95172,4.71082 -3.68675,1.54754 -6.48593,3.11781 -8.39754,4.71081 -1.86614,1.54754 -3.07229,3.14057 -3.61845,4.77909 -0.50069,1.59305 -0.75102,3.25435 -0.751,4.98391 -2e-5,1.4565 0.22755,2.89023 0.68272,4.30118 0.50065,1.36547 1.18338,2.59437 2.04819,3.68672 0.91028,1.09238 2.00264,1.97992 3.27709,2.66264 1.31991,0.63722 2.82191,0.95582 4.50599,0.95582 1.86609,0 3.80048,-0.34136 5.80318,-1.02409 2.04815,-0.68272 3.91427,-1.43372 5.59836,-2.253 1.95711,-0.95581 3.8915,-2.07093 5.80318,-3.34536 l 0,-24.16854" />
    <path
       id="path3112"
       style="font-size:139.82249451000001272px;font-style:normal;font-variant:normal;font-weight:normal;font-stretch:normal;text-align:center;line-height:125%;writing-mode:lr-tb;text-anchor:middle;fill:#550000;fill-opacity:1;stroke:none;font-family:Abyssinica SIL;-inkscape-font-specification:Abyssinica SIL"
       d="m 631.72178,584.87073 c -1.72962,0.86479 -3.6185,1.63855 -5.66664,2.32127 -1.72961,0.5917 -3.73228,1.11512 -6.008,1.57028 -2.27578,0.50066 -4.66533,0.75099 -7.16863,0.751 -5.27978,-10e-6 -9.10304,-1.22891 -11.46981,-3.68673 -2.3668,-2.45781 -3.5502,-6.46314 -3.55018,-12.016 l 0,-46.42543 -8.94373,0 0,-4.57428 9.55818,-4.50599 6.28109,-14.81518 6.14454,0 0,16.93163 19.73081,0 0,6.96382 -19.73081,0 0,39.05198 c -2e-5,2.77644 0.22755,5.14323 0.68273,7.10036 0.50064,1.91165 1.20612,3.48192 2.11645,4.71082 0.95579,1.1834 2.11643,2.04819 3.48191,2.59436 1.41094,0.54619 3.04948,0.81928 4.91564,0.81927 1.36541,10e-6 2.61708,-0.11378 3.75499,-0.34136 1.18336,-0.22757 2.20745,-0.50066 3.07228,-0.81927 1.00128,-0.36412 1.93434,-0.77375 2.79918,-1.22891 l 0,5.59836" />
    <path
       id="path3114"
       style="font-size:139.82249451000001272px;font-style:normal;font-variant:normal;font-weight:normal;font-stretch:normal;text-align:center;line-height:125%;writing-mode:lr-tb;text-anchor:middle;fill:#550000;fill-opacity:1;stroke:none;font-family:Abyssinica SIL;-inkscape-font-specification:Abyssinica SIL"
       d="m 663.40031,497.34513 c -3e-5,1.18348 -0.2276,2.32136 -0.68272,3.41363 -0.40967,1.04694 -1.00137,1.95724 -1.77509,2.73091 -0.77379,0.77384 -1.68409,1.38829 -2.73091,1.84336 -1.00136,0.45524 -2.09372,0.68281 -3.27709,0.68273 -1.18342,8e-5 -2.32129,-0.22749 -3.41364,-0.68273 -1.04686,-0.45507 -1.95717,-1.06952 -2.73091,-1.84336 -0.77377,-0.77367 -1.38822,-1.68397 -1.84336,-2.73091 -0.45516,-1.09227 -0.68274,-2.23015 -0.68273,-3.41363 -10e-6,-1.18331 0.22757,-2.29842 0.68273,-3.34537 0.45514,-1.04675 1.06959,-1.95705 1.84336,-2.7309 0.77374,-0.77366 1.68405,-1.36536 2.73091,-1.77509 1.09235,-0.45506 2.23022,-0.68263 3.41364,-0.68273 1.18337,1e-4 2.27573,0.22767 3.27709,0.68273 1.04682,0.40973 1.95712,1.00143 2.73091,1.77509 0.77372,0.77385 1.36542,1.68415 1.77509,2.7309 0.45512,1.04695 0.68269,2.16206 0.68272,3.34537 m -25.67053,90.46133 0,-5.46182 6.82727,-0.40963 c 0.86477,-0.091 1.57026,-0.40963 2.11645,-0.95582 0.54617,-0.54618 0.81926,-1.25166 0.81927,-2.11646 l 0,-49.90734 -9.62645,0 0,-4.91564 17.06818,-5.32527 5.53009,0 0,60.14825 c -3e-5,0.8648 0.27306,1.57028 0.81927,2.11646 0.59167,0.54619 1.29715,0.86479 2.11645,0.95582 l 7.16864,0.40963 0,5.46182 -32.83917,0" />
    <path
       id="path3116"
       style="font-size:139.82249451000001272px;font-style:normal;font-variant:normal;font-weight:normal;font-stretch:normal;text-align:center;line-height:125%;writing-mode:lr-tb;text-anchor:middle;fill:#550000;fill-opacity:1;stroke:none;font-family:Abyssinica SIL;-inkscape-font-specification:Abyssinica SIL"
       d="m 726.14292,567.52946 c -5e-5,3.41366 -0.6145,6.48593 -1.84336,9.21682 -1.22896,2.73092 -2.98129,5.05219 -5.257,6.96382 -2.2758,1.86612 -5.07498,3.29984 -8.39754,4.30118 -3.32264,1.00133 -7.05488,1.50199 -11.19673,1.502 -2.13923,-10e-6 -4.23292,-0.13655 -6.28108,-0.40964 -2.00269,-0.22758 -3.8688,-0.54618 -5.59837,-0.95582 -1.68407,-0.36412 -3.18606,-0.751 -4.50599,-1.16063 -1.31995,-0.40964 -2.32128,-0.751 -3.004,-1.0241 l 0,-18.57017 7.10036,0 1.70682,11.87945 c 1.41095,0.91031 3.14052,1.79785 5.18872,2.66264 2.09368,0.81927 4.50598,1.22891 7.23691,1.2289 2.00264,10e-6 3.77772,-0.29584 5.32527,-0.88754 1.54748,-0.63721 2.84466,-1.45648 3.89154,-2.45782 1.09233,-1.00132 1.9116,-2.1392 2.45782,-3.41363 0.59166,-1.31993 0.88751,-2.68538 0.88754,-4.09637 -3e-5,-1.95713 -0.38691,-3.61843 -1.16063,-4.9839 -0.77379,-1.41095 -1.88891,-2.66262 -3.34536,-3.755 -1.45652,-1.13785 -3.25437,-2.23022 -5.39355,-3.27709 -2.09372,-1.04682 -4.48326,-2.23021 -7.16863,-3.55018 -2.54887,-1.22888 -4.80186,-2.43503 -6.759,-3.61846 -1.95716,-1.22887 -3.61846,-2.52605 -4.98391,-3.89154 -1.31994,-1.41093 -2.32127,-2.93568 -3.00399,-4.57427 -0.68274,-1.68402 -1.0241,-3.57289 -1.02409,-5.66663 -10e-6,-3.09498 0.54617,-5.89416 1.63854,-8.39755 1.13787,-2.50327 2.77641,-4.61972 4.91563,-6.34936 2.1392,-1.77502 4.75632,-3.14048 7.85137,-4.09636 3.14052,-0.95575 6.73621,-1.43366 10.78708,-1.43373 2.04815,7e-5 4.0053,0.11386 5.87145,0.34137 1.86609,0.22764 3.5729,0.50073 5.12046,0.81927 1.54747,0.31867 2.91292,0.66004 4.09636,1.02409 1.18335,0.36419 2.11641,0.70555 2.79918,1.02409 l 0,16.52199 -7.30518,0 -1.09236,-9.76299 c -1.00137,-0.7737 -2.48061,-1.50194 -4.43773,-2.18473 -1.95718,-0.68266 -4.02812,-1.02403 -6.21281,-1.02409 -3.86882,6e-5 -6.73627,0.88761 -8.60236,2.66264 -1.82063,1.72963 -2.73093,3.95987 -2.73091,6.69072 -2e-5,1.59308 0.25031,2.98129 0.751,4.16464 0.54616,1.18344 1.41095,2.29856 2.59436,3.34536 1.22889,1.04689 2.82191,2.11649 4.77909,3.20881 2.00264,1.09241 4.48321,2.32132 7.44172,3.68673 2.45778,1.0924 4.71078,2.23028 6.759,3.41364 2.04814,1.18342 3.82323,2.50336 5.32527,3.95981 1.50195,1.45652 2.66259,3.0723 3.48191,4.84736 0.86474,1.77512 1.29713,3.80054 1.29718,6.07627" />
    <rect
       style="color:#000000;fill:#262f28;fill-opacity:1;fill-rule:nonzero;stroke:none;stroke-width:2;marker:none;visibility:visible;display:inline;overflow:visible;enable-background:accumulate"
       id="rect2969"
       width="498"
       height="12"
       x="-735.23267"
       y="462.58575"
       ry="6"
       transform="scale(-1,1)" />
    <rect
       ry="6"
       y="632.58575"
       x="-739.23267"
       height="12"
       width="498"
       id="rect2971"
       style="color:#000000;fill:#262f28;fill-opacity:1;fill-rule:nonzero;stroke:none;stroke-width:2;marker:none;visibility:visible;display:inline;overflow:visible;enable-background:accumulate"
       transform="scale(-1,1)" />
    <path
       style="fill:#ffffff;fill-opacity:1;stroke:#1a1a1a;stroke-width:6;stroke-miterlimit:4;stroke-opacity:1;stroke-dasharray:none"
       d="m 649.18179,314.31608 c 9.97262,-30.303 11.8236,-52.68672 11.94803,-83.92696 -0.98503,-31.43442 2.88279,-63.60709 -0.88291,-94.74938 -12.15776,-28.65527 -45.69575,-32.11954 -70.718,-29.77239 -34.68037,6.12661 -55.75947,40.61448 -78.74654,66.63506 -21.16501,27.52307 -44.25462,53.04362 -68.39009,77.22324 -80.67956,113.61299 -104.43576,148.34253 -92.64837,151.85734 142.72358,25.16991 252.78272,44.12888 299.43788,-87.26691 z"
       id="Body"
       inkscape:connector-curvature="0"
       sodipodi:nodetypes="cccccccc" />
    <path
       style="fill:#1a1a1a;stroke:none;stroke-width:6;stroke-miterlimit:4;stroke-dasharray:none"
       d="m 658.95616,129.34701 c -16.44153,-23.57954 -60.17438,-35.340324 -93.71798,-13.52343 27.80843,-5.50338 61.35872,0.57466 79.13224,22.75678 5.43705,-3.8011 8.90377,-5.74373 14.58574,-9.23335 z"
       id="HeadStripe"
       inkscape:connector-curvature="0"
       sodipodi:nodetypes="cccc" />
    <path
       style="fill:#1a1a1a;fill-opacity:1;stroke-width:6;stroke-miterlimit:4;stroke-dasharray:none"
       d="m 496.71983,190.0658 c 12.44771,-14.03035 23.5396,-29.48812 35.9219,-43.57111 9.01726,-8.93081 17.31529,-18.82324 27.20207,-26.60419 14.65014,-3.78725 34.69033,-1.17484 49.14373,6.35176 10.70395,6.00143 15.93638,12.05401 22.51132,23.38597 -8.07238,1.61459 -14.57394,7.82494 -21.60582,12.17131 -17.04742,11.69351 -33.76255,24.38788 -52.38638,32.79656 -13.18199,4.58215 -27.15949,-2.49692 -36.69183,-12.61964 -3.70513,-4.26818 -9.09255,-2.15691 -13.1072,0.22206 -3.88952,2.20559 -7.37955,5.15612 -10.98779,7.86728 z"
       id="EyeMask"
       inkscape:connector-curvature="0"
       sodipodi:nodetypes="cccccccccc" />
    <path
       inkscape:label="#path1343"
       sodipodi:nodetypes="cccccc"
       id="Chest"
       d="m 655.86177,291.73487 c 3.62266,-14.57608 5.97927,-43.91206 5.11196,-47.48871 -22.30586,1.19103 -80.79739,-17.23305 -101.82863,-28.26337 29.82671,29.72504 26.4485,24.27214 33.4536,43.22487 6.80144,9.2588 -7.02994,24.70784 -8.02492,35.00472 28.70629,29.00924 61.02641,34.75775 71.28799,-2.47751 z"
       style="fill:#1a1a1a;fill-opacity:1;stroke:none"
       inkscape:connector-curvature="0" />
    <path
       inkscape:label="#Tail"
       sodipodi:nodetypes="ccccc"
       id="TailUpper"
       d="m 453.73692,318.3966 c -67.45154,32.38359 -106.70016,124.48453 -181.0699,117.87158 -0.73604,-3.541 44.88764,-38.02172 66.42663,-55.53907 16.95015,-13.76377 33.09595,-37.32966 33.36363,-44.41891 10.79616,-4.58388 68.65596,-18.30589 81.27964,-17.9136 z"
       style="fill:#1a1a1a;fill-opacity:1;stroke:none;stroke-width:6;stroke-miterlimit:4;stroke-dasharray:none"
       inkscape:connector-curvature="0" />
    <g
       inkscape:label="#g2532"
       id="Beak"
       transform="matrix(-0.48650927,0,0,0.54357171,670.44698,124.16983)"
       style="stroke-width:11.66748544;stroke-miterlimit:4;stroke-dasharray:none">
      <path
         style="fill:#1e211e;stroke-width:11.66748544;stroke-miterlimit:4;stroke-dasharray:none"
         d="m 104.97095,57.474269 c -36.118172,7.238325 -54.418214,7.429334 -84.595356,6.431724 -24.4628554,-15.640466 -42.777422,-30.94228 -56.4453,-48.063633 10.281628,0.444306 26.4461767,3.734805 50.502015,10.038875 24.055838,6.30407 52.977576,14.808728 90.538641,31.593034 z"
         id="BeakLower"
         sodipodi:nodetypes="cccsc"
         inkscape:label="#path2513"
         inkscape:connector-curvature="0" />
      <path
         sodipodi:nodetypes="cccsc"
         id="BeakUpper"
         d="M 104.97095,57.474269 C 53.5993,26.510806 53.5993,26.510806 23.618916,9.5243578 -5.3967576,8.4537588 -14.165207,12.391112 -35.86397,15.827093 c 27.2767542,4.0602 37.9734886,6.630202 53.795158,11.349642 26.877505,8.017281 45.17643,13.066709 87.039762,30.297534 z"
         style="fill:#ffffff;fill-opacity:1;stroke-width:3.88916181000000005;stroke-miterlimit:4;stroke-dasharray:none;stroke:#1a1a1a;stroke-opacity:1"
         inkscape:label="#path2530"
         inkscape:connector-curvature="0" />
    </g>
    <path
       transform="matrix(-0.53480293,0,0,0.54357171,683.163,123.19917)"
       d="m 202.14285,38.612183 a 23.75,22.678572 0 1 1 -47.5,0 23.75,22.678572 0 1 1 47.5,0 z"
       sodipodi:ry="22.678572"
       sodipodi:rx="23.75"
       sodipodi:cy="38.612183"
       sodipodi:cx="178.39285"
       id="path2541"
       style="fill:#ffffff;fill-opacity:1;stroke:none;stroke-width:11.12822603999999949;stroke-miterlimit:4;stroke-dasharray:none"
       sodipodi:type="arc" />
    <path
       style="fill:#000000;fill-opacity:1;stroke:none;stroke-width:6;stroke-miterlimit:4;stroke-dasharray:none"
       d="m 587.83085,134.92179 c -5.01275,0 -9.04384,4.05926 -9.04384,9.077 0,5.01773 4.03109,9.07699 9.04384,9.07699 5.01274,0 9.09492,-4.05926 9.09492,-9.07699 0,-5.01774 -4.08218,-9.077 -9.09492,-9.077 z"
       id="path2543"
       inkscape:connector-curvature="0" />
    <path
       style="fill:#1a1a1a;fill-opacity:1;stroke-width:6;stroke-miterlimit:4;stroke-dasharray:none"
       d="m 561.17182,217.22052 c 17.04236,12.12707 34.28687,30.30453 34.15771,53.41216 -2.55806,23.85244 -17.06672,35.67863 -45.58108,45.78679 -19.5927,9.89723 -47.59321,17.19261 -77.02441,25.39474 -47.55174,14.96359 -91.17363,21.12714 -137.93144,32.58157 -26.2954,3.00262 7.0306,-35.73066 14.46294,-46.30704 26.72961,-41.62824 61.06031,-78.44605 102.91239,-103.11722 25.98864,-16.16817 57.62227,-26.75021 87.59349,-17.45964 7.51812,2.16701 14.76808,5.40438 21.4104,9.70864 z"
       id="WingBackground"
       inkscape:connector-curvature="0"
       sodipodi:nodetypes="ccccccccc" />
    <path
       inkscape:connector-curvature="0"
       inkscape:label="#path1347"
       sodipodi:nodetypes="cccsccc"
       id="WingTip"
       d="m 331.99339,368.64421 c 22.54861,-13.92622 31.05908,-18.78349 54.83444,-29.70263 -6.46177,4.47839 -14.41902,6.81483 -25.30839,17.58473 9.7251,-2.26566 17.45136,-7.31516 40.49312,-11.78353 11.52088,-2.23418 -1.14903,2.11678 -5.5536,5.20285 26.15656,-2.57604 65.57809,-14.137 67.945,-13.72181 -19.58139,-50.93405 -99.86227,-2.151 -132.41057,32.42039 z"
       style="fill:#ffffff;stroke:none;stroke-width:6;stroke-miterlimit:4;stroke-dasharray:none" />
    <path
       sodipodi:nodetypes="ccc"
       inkscape:connector-curvature="0"
       id="WingStripe"
       d="M 550.80366,268.57063 C 447.3204,297.23682 421.49159,284.04034 327.02057,368.77963 455.4682,190.54114 565.07773,250.55123 550.80366,268.57063 z"
       style="fill:#ffffff;fill-opacity:1;fill-rule:evenodd;stroke:none;stroke-width:6;stroke-miterlimit:4;stroke-dasharray:none" />
    <path
       style="fill:#000000;fill-opacity:0;stroke-width:6;stroke-miterlimit:4;stroke-dasharray:none"
       id="path3153-7"
       d="m 574.63524,107.12591 c 8.99701,-3.9627 18.40177,-6.6744 27.67379,-9.70368 13.70536,-4.635993 27.61434,-8.342385 41.637,-11.539962 5.08247,-1.151176 10.17779,-2.274054 15.35841,-2.665757 1.26997,-0.07333 2.54557,-0.127055 3.81706,-0.06241 0.43907,0.01815 0.87848,0.01864 1.31778,0.01609 0.25334,-0.0076 0.50632,-0.0076 0.75965,-0.0049 1.36,0.04642 2.72087,0.04517 4.08137,0.04718 1.66176,0.0049 3.32346,-0.0049 4.98519,-0.01283 1.5458,-0.198224 2.17497,0.152662 3.5033,0.91201 1.52443,0.891865 2.87203,1.957636 4.08774,3.319011 1.28969,1.472742 2.36139,3.176677 3.15435,5.0353 0.51602,1.004532 0.51713,2.164813 0.75256,3.252212 0.17946,0.747552 0.60214,1.235538 1.15534,1.672124 0.9694,0.584883 2.00419,0.855136 3.08795,1.056937 0.17427,0.02674 0.34853,0.05354 0.5228,0.08031 0,0 -9.8786,7.731819 -9.8786,7.731819 l 0,0 c -0.17499,-0.0413 -0.34999,-0.0825 -0.52499,-0.12357 -1.2117,-0.32137 -2.4165,-0.73979 -3.44179,-1.55757 -0.67064,-0.65187 -1.24664,-1.37724 -1.51535,-2.34325 -0.338,-1.01437 -0.16158,-2.16825 -0.62411,-3.162738 -0.68254,-1.74193 -1.68168,-3.301649 -2.90215,-4.627768 -1.16239,-1.226755 -2.48251,-2.15024 -3.92579,-2.920839 -1.03071,-0.521971 -2.06352,-0.446528 -3.1822,-0.42472 -1.65128,-0.0076 -3.30254,-0.01761 -4.95384,-0.01266 -1.39949,0.0027 -2.7993,0.0027 -4.19831,0.04794 -0.25324,0.0011 -0.50599,0.0027 -0.7591,-0.01141 -0.4461,-0.01267 -0.892,-0.0274 -1.3376,-0.05531 -1.18611,-0.05289 -2.37334,-0.03479 -3.55884,0.03376 -4.93416,0.359784 -9.81066,1.302734 -14.66984,2.297297 -13.87612,2.944653 -27.59633,6.615573 -41.11042,11.234183 -9.6696,3.26042 -19.48139,6.26188 -28.74238,10.82183 0,0 9.43102,-8.32769 9.43102,-8.32769 z"
       inkscape:connector-curvature="0" />
    <path
       inkscape:label="#path2505"
       sodipodi:nodetypes="ccccc"
       id="Beard"
       d="m 661.40896,230.31018 c 0.13749,-12.92684 0.967,-46.01572 0.63822,-49.73902 -11.61035,2.41395 -33.14076,-0.69293 -41.14735,-4.27973 -7.11339,3.83808 -34.13248,33.96248 -33.93515,38.28667 25.13211,9.06086 47.22925,15.36861 74.44428,15.73208 z"
       style="fill:#1a1a1a;stroke-width:6;stroke-miterlimit:4;stroke-dasharray:none"
       inkscape:connector-curvature="0" />
    <path
       sodipodi:type="arc"
       style="fill:#ffffff;fill-opacity:1;fill-rule:nonzero;stroke-width:6.24901776;stroke-miterlimit:4;stroke-dasharray:none"
       id="path3010"
       sodipodi:cx="615.57593"
       sodipodi:cy="225.53574"
       sodipodi:rx="4.4171963"
       sodipodi:ry="3.9641507"
       d="m 619.99312,225.53574 a 4.4171963,3.9641507 0 1 1 -8.83439,0 4.4171963,3.9641507 0 1 1 8.83439,0 z"
       transform="matrix(0.90835713,0,0,1.0148979,31.343575,-88.240721)" />
  </g>
</svg>
