<?xml version="1.0" encoding="UTF-8" standalone="no"?>
<!-- Created with Inkscape (http://www.inkscape.org/) -->

<svg
   xmlns:dc="http://purl.org/dc/elements/1.1/"
   xmlns:cc="http://creativecommons.org/ns#"
   xmlns:rdf="http://www.w3.org/1999/02/22-rdf-syntax-ns#"
   xmlns:svg="http://www.w3.org/2000/svg"
   xmlns="http://www.w3.org/2000/svg"
   xmlns:sodipodi="http://sodipodi.sourceforge.net/DTD/sodipodi-0.dtd"
   xmlns:inkscape="http://www.inkscape.org/namespaces/inkscape"
   width="990"
   height="505"
   id="svg2"
   sodipodi:version="0.32"
   inkscape:version="0.47 r22583"
   sodipodi:docname="vector-logo-bird.svg"
   version="1.0"
   inkscape:export-filename="/home/eduardo/Descargas/ibatis-vector-logo-bird-simplified.png"
   inkscape:export-xdpi="300"
   inkscape:export-ydpi="300">
  <defs
     id="defs4">
    <inkscape:perspective
       sodipodi:type="inkscape:persp3d"
       inkscape:vp_x="0 : 382.5 : 1"
       inkscape:vp_y="0 : 1000 : 0"
       inkscape:vp_z="990 : 382.5 : 1"
       inkscape:persp3d-origin="495 : 255 : 1"
       id="perspective27" />
  </defs>
  <sodipodi:namedview
     id="base"
     pagecolor="#ffffff"
     bordercolor="#666666"
     borderopacity="1.0"
     inkscape:pageopacity="0.0"
     inkscape:pageshadow="2"
     inkscape:zoom="0.65620915"
     inkscape:cx="463.25062"
     inkscape:cy="204.1473"
     inkscape:document-units="px"
     inkscape:current-layer="BirdBatis"
     inkscape:window-width="1280"
     inkscape:window-height="724"
     inkscape:window-x="0"
     inkscape:window-y="51"
     showgrid="false"
     inkscape:window-maximized="1"
     inkscape:object-nodes="true" />
  <metadata
     id="metadata7">
    <rdf:RDF>
      <cc:Work
         rdf:about="">
        <dc:format>image/svg+xml</dc:format>
        <dc:type
           rdf:resource="http://purl.org/dc/dcmitype/StillImage" />
        <dc:title />
      </cc:Work>
    </rdf:RDF>
  </metadata>
  <g
     inkscape:label="Layer 1"
     inkscape:groupmode="layer"
     id="layer1"
     transform="translate(-31.749379,-81.647288)">
    <g
       id="BirdBatis"
       inkscape:label="#g2568"
       transform="matrix(0.428474,0,0,0.428474,290.0398,209.1822)">
      <path
         style="fill:#9a947d;stroke:none"
         d="m 693.10213,-138.02259 c -34.79116,-27.67714 -78.24949,-43.1771 -122.37623,-46.65539 -19.07456,-1.37363 -38.37151,-2.31743 -57.41106,-0.13011 -19.91658,3.13146 -38.92331,10.58326 -56.72685,19.87751 25.74849,-8.10836 52.71167,-0.82435 78.94201,-0.31051 29.95975,1.97542 59.36526,11.6858 85.13401,27.00826 12.35174,7.5171 23.74232,16.69863 33.32884,27.54634 11.58453,-10.96816 25.52931,-19.12831 39.10928,-27.3361 z"
         id="HeadStripe"
         inkscape:connector-curvature="0" />
      <path
         style="fill:#262f28;fill-opacity:1"
         d="m 270.6989,14.411502 c 31.78523,-32.37041 58.76083,-69.067181 89.85654,-102.013621 30.22615,-28.868231 65.69086,-55.427451 108.16137,-61.527581 24.09808,-3.48286 48.96591,-3.98208 72.98504,0.24858 27.05327,7.48258 52.4604,23.99284 68.29468,47.40719 7.49528,9.255966 5.89253,20.135986 -6.49586,22.733299 -55.18833,32.443083 -104.73935,74.4753032 -163.34179,101.011563 -28.75846,13.27025 -62.546,4.94769 -87.35526,-12.8645098 -11.30221,-5.64412 -18.93647,-19.9818702 -32.38086,-19.7978302 -18.43473,3.2121102 -34.4942,14.5507902 -49.72386,24.80291 z"
         id="EyeMask"
         inkscape:connector-curvature="0" />
      <path
         inkscape:label="#path1343"
         sodipodi:nodetypes="cccccc"
         id="Chest"
         d="m 709.39099,241.17781 c 1.98466,-38.05149 -0.55432,-92.56941 -2.83356,-100.98192 -58.61825,5.50503 -214.28003,-40.01248 -269.54867,-65.956428 78.38252,69.915038 68.75128,58.596578 87.16019,103.174498 17.87373,21.77724 -13.91761,61.37687 -16.53236,85.59574 48.4015,80.39793 174.78767,65.74762 201.7544,-21.83189 z"
         style="fill:#693310;fill-opacity:1;stroke:none"
         inkscape:connector-curvature="0" />
      <path
         inkscape:label="#path2505"
         sodipodi:nodetypes="cccccc"
         id="Beard"
         d="M 704.99754,107.41767 C 703.3311,75.661132 705.51098,12.028392 704.64698,3.2709822 676.16353,0.83774224 619.58312,-9.1734978 598.54235,-17.609838 c -16.25733,4.70945 -23.10541,26.3527702 -46.6648,51.42111 -16.60651,11.50934 -44.13696,27.57967 -42.51442,38.63136 57.15818,3.69242 137.67894,8.96547 195.63441,34.975038 z"
         style="fill:#693310"
         inkscape:connector-curvature="0" />
      <path
         inkscape:label="#Tail"
         sodipodi:nodetypes="ccccc"
         id="TailUpper"
         d="m 159.24989,316.62981 c -177.257949,76.1681 -474.14596,430.00238 -669.58445,414.44835 -1.93426,-8.32863 311.70697,-226.6368 368.30994,-267.83864 44.543791,-32.3732 86.973861,-87.80155 87.677271,-104.47588 28.37155,-10.78154 180.423109,-43.05652 213.597239,-42.13383 z"
         style="fill:#262f28;fill-opacity:1;stroke:none"
         inkscape:connector-curvature="0" />
      <g
         inkscape:label="#g2532"
         id="Beak"
         transform="matrix(-1.2785124,0,0,1.2785124,728.74881,-140.20289)">
        <path
           style="fill:#1e211e"
           d="m 106.92491,59.358682 c -36.118172,7.238325 -56.372174,5.544921 -86.549316,4.547311 -24.4628554,-15.640466 -42.777422,-30.94228 -56.4453,-48.063633 10.281628,0.444306 26.4461767,3.734805 50.502015,10.038875 24.055838,6.30407 54.931536,16.693141 92.492601,33.477447 z"
           id="BeakLower"
           sodipodi:nodetypes="cccsc"
           inkscape:label="#path2513"
           inkscape:connector-curvature="0" />
        <path
           sodipodi:nodetypes="cccsc"
           id="BeakUpper"
           d="M 106.46626,58.969584 C 72.681105,34.597414 48.995038,25.88613 23.618916,9.5243578 -5.3967576,8.4537588 -14.165207,12.391112 -35.86397,15.827093 c 27.2767542,4.0602 45.4299281,8.906922 53.795158,11.349642 23.871223,6.970607 46.671745,14.562024 88.535072,31.792849 z"
           style="fill:#879287;fill-opacity:1"
           inkscape:label="#path2530"
           inkscape:connector-curvature="0" />
      </g>
      <g
         inkscape:label="#g2545"
         id="Eye"
         transform="matrix(-1.2785124,0,0,1.2785124,728.74881,-140.20289)">
        <path
           sodipodi:type="arc"
           style="fill:#f0f088;fill-opacity:1;stroke:none"
           id="path2541"
           sodipodi:cx="178.39285"
           sodipodi:cy="38.612183"
           sodipodi:rx="23.75"
           sodipodi:ry="22.678572"
           d="m 202.14285,38.612183 c 0,12.525029 -10.63323,22.678571 -23.75,22.678571 -13.11676,0 -23.75,-10.153542 -23.75,-22.678571 0,-12.52503 10.63324,-22.678572 23.75,-22.678572 13.11677,0 23.75,10.153542 23.75,22.678572 z"
           transform="translate(-6.071427,-1.785711)" />
        <path
           sodipodi:type="arc"
           style="fill:#000000;fill-opacity:1;stroke:none"
           id="path2543"
           sodipodi:cx="175.35715"
           sodipodi:cy="39.326466"
           sodipodi:rx="11.785714"
           sodipodi:ry="11.607142"
           d="m 187.14286,39.326466 c 0,6.410447 -5.27664,11.607142 -11.78571,11.607142 -6.50907,0 -11.78572,-5.196695 -11.78572,-11.607142 0,-6.410448 5.27665,-11.607143 11.78572,-11.607143 6.50907,0 11.78571,5.196695 11.78571,11.607143 z"
           transform="translate(-3.214286,-2.857143)" />
      </g>
      <g
         inkscape:label="#g2560"
         id="Wing"
         transform="matrix(-1.2785124,0,0,1.2785124,728.74881,-140.20289)">
        <path
           style="fill:#262f28;fill-opacity:1"
           d="m 224.61064,171.18382 c -33.14272,21.46807 -67.14606,51.94367 -70.64059,93.83172 3.47071,47.75665 46.78488,86.97299 94.12087,88.66297 49.01244,10.69879 99.01895,1.3435 148.38415,0.65837 48.1149,2.53049 92.88828,22.09646 139.57266,32.13721 56.2592,13.99745 111.20484,35.42584 158.20509,69.94795 10.04963,9.06595 37.30027,20.82954 19.26881,-0.65181 C 670.90419,386.05636 622.30204,318.78309 561.52277,263.73855 504.72243,215.97035 441.02946,173.45936 369.09826,152.80504 320.88366,141.69487 267.92189,146.14113 224.61064,171.18382 z"
           id="WingBackground"
           inkscape:connector-curvature="0" />
        <path
           style="fill:#9a947d;stroke:none"
           d="m 685.42993,435.07639 c -43.42488,-29.82606 -59.89181,-40.35306 -106.40762,-64.91003 12.34997,9.43979 28.17312,15.24582 48.3617,37.05367 -19.45267,-6.01613 -34.27846,-16.74437 -80.54192,-29.35147 -23.13173,-6.30355 1.94059,4.09579 10.35228,10.59149 -26.43858,-5.12105 -134.5232,-51.52459 -139.44466,-51.2193 47.90361,-70.53998 207.79714,28.29481 267.68022,97.83564 z"
           id="WingTip"
           sodipodi:nodetypes="cccsccc"
           inkscape:label="#path1347"
           inkscape:connector-curvature="0" />
        <path
           style="fill:#f5efd7;fill-opacity:0.80327866;fill-rule:evenodd;stroke:none"
           d="M 245.92197,265.65179 C 458.62761,288.78278 534.14837,279.3083 705.899,450.00465 477.76924,117.87282 176.20694,255.76344 245.92197,265.65179 z"
           id="WingStripe"
           inkscape:connector-curvature="0"
           sodipodi:nodetypes="ccc" />
      </g>
      <path
         style="fill:#000000;fill-opacity:0"
         id="path3153"
         d="m 476.96227,-180.2912 c 23.64353,-9.32049 48.35856,-15.69858 72.72479,-22.82362 36.01673,-10.90412 72.56857,-19.62178 109.41913,-27.14266 13.35639,-2.70763 26.74653,-5.34872 40.36084,-6.27002 3.3374,-0.17247 6.68958,-0.29883 10.03095,-0.14681 1.15387,0.0427 2.3086,0.0439 3.46306,0.0379 0.66576,-0.0179 1.33057,-0.0179 1.9963,-0.0119 3.57399,0.10922 7.15025,0.10622 10.72556,0.11101 4.36699,0.0119 8.73384,-0.0119 13.10074,-0.0301 4.06224,-0.46623 5.71566,0.35908 9.20641,2.1451 4.00608,2.09773 7.5475,4.60448 10.74231,7.8065 3.38919,3.46398 6.20555,7.47174 8.2894,11.84333 1.35605,2.36272 1.35898,5.09177 1.97768,7.6494 0.4716,1.75828 1.58239,2.90605 3.03616,3.93292 2.54751,1.37569 5.26685,2.01134 8.11491,2.48599 0.45796,0.063 0.9159,0.12592 1.37386,0.18888 0,0 -25.96023,18.18569 -25.96023,18.18569 l 0,0 c -0.45988,-0.097 -0.91979,-0.19395 -1.37966,-0.29062 -3.18427,-0.75591 -6.35041,-1.74005 -9.04478,-3.66352 -1.76239,-1.53323 -3.27609,-3.23935 -3.98225,-5.51145 -0.88823,-2.38588 -0.42461,-5.09986 -1.64011,-7.43895 -1.79367,-4.09712 -4.41933,-7.76568 -7.62664,-10.88478 -3.05468,-2.88541 -6.52388,-5.05749 -10.31671,-6.86998 -2.70864,-1.22772 -5.42277,-1.05027 -8.36261,-0.99897 -4.33945,-0.0179 -8.67884,-0.0415 -13.01834,-0.0298 -3.67778,0.006 -7.35635,0.006 -11.03288,0.11279 -0.66549,0.003 -1.32967,0.006 -1.99484,-0.0268 -1.17233,-0.0298 -2.34413,-0.0644 -3.51512,-0.1301 -3.11701,-0.12443 -6.23698,-0.0818 -9.35238,0.0794 -12.96663,0.84623 -25.78175,3.06411 -38.5513,5.40338 -36.4655,6.92599 -72.52127,15.56021 -108.03534,26.42346 -25.41102,7.6687 -51.19573,14.72831 -75.53298,25.45357 0,0 24.78407,-19.58722 24.78407,-19.58722 z"
         inkscape:connector-curvature="0" />
      <text
         xml:space="preserve"
         style="font-size:541.92022705px;font-style:normal;font-variant:normal;font-weight:normal;font-stretch:semi-condensed;text-align:center;line-height:125%;writing-mode:lr-tb;text-anchor:middle;fill:#000000;fill-opacity:1;stroke:none;font-family:Aegyptus;-inkscape-font-specification:Aegyptus Semi-Condensed"
         x="844.02197"
         y="611.01178"
         id="text2833"
         sodipodi:linespacing="125%"><tspan
           sodipodi:role="line"
           id="tspan2835"
           x="844.02197"
           y="611.01178">mybatis</tspan></text>
    </g>
  </g>
</svg>
