<?xml version="1.0" encoding="UTF-8" standalone="no"?>
<!-- Created with Inkscape (http://www.inkscape.org/) -->

<svg
   xmlns:dc="http://purl.org/dc/elements/1.1/"
   xmlns:cc="http://creativecommons.org/ns#"
   xmlns:rdf="http://www.w3.org/1999/02/22-rdf-syntax-ns#"
   xmlns:svg="http://www.w3.org/2000/svg"
   xmlns="http://www.w3.org/2000/svg"
   xmlns:xlink="http://www.w3.org/1999/xlink"
   xmlns:sodipodi="http://sodipodi.sourceforge.net/DTD/sodipodi-0.dtd"
   xmlns:inkscape="http://www.inkscape.org/namespaces/inkscape"
   width="792pt"
   height="612pt"
   id="svg2"
   sodipodi:version="0.32"
   inkscape:version="0.48.2 r9819"
   sodipodi:docname="vector-logo-full-bird.svg"
   version="1.0"
   inkscape:export-filename="/home/eduardo/Descargas/mybatis-logo-bird.png"
   inkscape:export-xdpi="300"
   inkscape:export-ydpi="300">
  <defs
     id="defs4">
    <linearGradient
       id="linearGradient3038">
      <stop
         style="stop-color:#757769;stop-opacity:1;"
         offset="0"
         id="stop3040" />
      <stop
         style="stop-color:#fff8cb;stop-opacity:1;"
         offset="1"
         id="stop3042" />
    </linearGradient>
    <linearGradient
       inkscape:collect="always"
       xlink:href="#linearGradient3038"
       id="linearGradient3006"
       x1="2.8356823"
       y1="315.94816"
       x2="915.59414"
       y2="315.94816"
       gradientUnits="userSpaceOnUse" />
  </defs>
  <sodipodi:namedview
     id="base"
     pagecolor="#ffffff"
     bordercolor="#666666"
     borderopacity="1.0"
     inkscape:pageopacity="0.0"
     inkscape:pageshadow="2"
     inkscape:zoom="0.78039216"
     inkscape:cx="495"
     inkscape:cy="382.5"
     inkscape:document-units="px"
     inkscape:current-layer="BirdBatis"
     inkscape:window-width="1366"
     inkscape:window-height="744"
     inkscape:window-x="0"
     inkscape:window-y="24"
     showgrid="false"
     inkscape:window-maximized="1"
     inkscape:object-nodes="false" />
  <metadata
     id="metadata7">
    <rdf:RDF>
      <cc:Work
         rdf:about="">
        <dc:format>image/svg+xml</dc:format>
        <dc:type
           rdf:resource="http://purl.org/dc/dcmitype/StillImage" />
        <dc:title></dc:title>
      </cc:Work>
    </rdf:RDF>
  </metadata>
  <g
     inkscape:label="Layer 1"
     inkscape:groupmode="layer"
     id="layer1">
    <g
       id="BirdBatis"
       inkscape:label="#g2568"
       transform="matrix(0.428474,0,0,0.428474,290.0398,209.1822)">
      <path
         style="fill:url(#linearGradient3006);fill-opacity:1"
         d="m 509.51122,574.97223 c 101.09905,12.8487 206.26786,-19.20938 287.20363,-79.76475 41.86137,-41.72205 61.26578,-95.95223 92.67288,-145.39853 20.49832,-55.74794 24.30293,-97.45558 24.55869,-154.92774 -2.0247,-57.82939 5.92544,-116.48825 -1.81479,-173.780202 C 887.14185,-31.615644 818.20588,-37.988791 766.77366,-33.670794 695.48958,-22.399746 652.16234,41.047023 604.91336,88.916652 561.40953,139.55039 513.94978,186.50013 464.34031,230.98299 404.53617,291.7328 352.29226,359.29387 302.48448,428.21724 230.89593,511.83267 128.84322,559.13412 44.390942,627.46413 c -20.63674,6.23479 -66.48327,60.26265 -24.29478,30.13514 C 106.02972,601.61729 191.1638,537.86313 292.05011,512.15689 c 47.65942,-10.38328 101.67585,-5.04866 139.53178,28.23298 24.18964,15.01786 49.92623,28.42105 77.92933,34.58236 z"
         id="Body"
         inkscape:connector-curvature="0"
         sodipodi:nodetypes="cccccccccccccc" />
      <path
         style="fill:#9a947d;stroke:none"
         d="m 905.80548,5.831067 c -45.75741,-42.631225 -120.54159,-56.034978 -177.3296,-27.529614 57.15908,-2.723042 109.61778,3.976992 146.15053,44.785065 9.06095,-8.578845 20.55737,-10.835654 31.17907,-17.255451 z"
         id="HeadStripe"
         inkscape:connector-curvature="0"
         sodipodi:nodetypes="cccc" />
      <path
         style="fill:#262f28;fill-opacity:1"
         d="m 576.00839,121.22773 c 24.8611,-25.318803 44.78153,-54.316209 69.10332,-80.085564 23.64165,-22.579545 51.38069,-43.3530812 84.59938,-48.124352 18.84853,-2.7241475 38.29913,-3.114616 57.08591,0.1944338 21.15996,5.8525654 41.03237,18.7662122 53.4173,37.0799592 5.8625,7.239635 9.07316,4.249058 -14.76188,19.836532 -43.16605,25.375649 -72.24174,56.196051 -118.07817,76.951621 -22.49369,10.37945 -48.92091,3.86988 -68.3257,-10.06209 -8.84012,-4.4146 -14.81133,-15.629 -25.32698,-15.48505 -14.41889,2.51238 -25.80117,11.67572 -37.71318,19.69451 z"
         id="EyeMask"
         inkscape:connector-curvature="0"
         sodipodi:nodetypes="cccccccccc" />
      <path
         inkscape:label="#path1343"
         sodipodi:nodetypes="cccccc"
         id="Chest"
         d="m 907.34756,292.40645 c 7.44622,-26.81537 10.17544,-66.5101 8.39271,-73.09002 -45.84879,4.30581 -168.19044,-30.11734 -211.4193,-50.40963 61.30759,54.68467 54.36382,44.65306 68.76251,79.52008 13.9801,17.03326 -10.88578,48.00647 -12.93093,66.94948 37.85767,62.88396 126.10274,45.53119 147.19501,-22.96991 z"
         style="fill:#693310;fill-opacity:1;stroke:none"
         inkscape:connector-curvature="0" />
      <path
         inkscape:label="#Tail"
         sodipodi:nodetypes="ccccc"
         id="TailUpper"
         d="m 487.65876,357.31581 c -138.6439,59.57556 -370.85753,336.33023 -523.721498,324.1645 -1.5129,-6.51431 243.804408,-177.26601 288.076928,-209.4924 34.84033,-25.32099 68.02739,-68.67477 68.57757,-81.71675 22.19106,-8.43288 141.11955,-33.67704 167.067,-32.95535 z"
         style="fill:#262f28;fill-opacity:1;stroke:none"
         inkscape:connector-curvature="0" />
      <path
         inkscape:label="#path1339"
         sodipodi:nodetypes="cccssssccccsccccsc"
         id="LegLeft"
         d="m 596.13653,745.09727 c 6.73017,-0.0309 44.22183,8.38471 58.43347,14.82123 13.30063,21.07145 15.37821,19.22404 19.76719,-6.28698 -12.29969,-10.91637 -96.57143,-26.82487 -79.86655,-24.38993 9.49957,1.38467 -10.27403,-6.09211 -17.22185,-15.25441 -28.45199,-37.52047 -65.99244,-122.07955 -73.68706,-147.25148 -3.27948,-10.72838 -5.74649,-10.14963 -14.82031,-15.18252 -9.07383,-5.03288 -28.15947,0.6887 -22.86832,12.97878 10.19003,2.22909 65.994,111.67862 99.73654,163.95764 -13.2166,-13.68415 -46.8197,-13.21087 -51.32378,-10.50146 -6.91503,11.2425 -13.74922,40.4849 4.07241,41.30109 -1.34058,-10.67949 -10.08113,-21.38308 1.65002,-24.78915 12.19986,-3.54216 45.79535,1.441 55.85854,12.8172 8.02939,17.42187 32.40051,44.23674 77.64243,72.20567 3.29173,13.18036 -5.80807,19.57209 12.37529,7.05994 -1.72385,-7.89213 0.59291,-13.25887 -5.17155,-23.67638 0,0 -25.24703,-16.1473 -40.07109,-25.82813 -14.82407,-9.68083 -22.25562,-16.43072 -24.50538,-31.98111 z"
         style="fill:#1e211e"
         inkscape:connector-curvature="0" />
      <path
         inkscape:label="#path2515"
         sodipodi:nodetypes="scccccccsccccsccs"
         id="LegRight"
         d="m 855.21631,569.62036 c -3.88769,-13.54844 -12.74906,-15.16701 -58.63194,-41.73133 9.71032,1.93832 67.27374,31.56106 80.22737,43.74341 -6.82359,39.35029 11.39622,9.52056 7.66584,-7.62937 -9.60212,-8.28401 -61.8073,-40.31211 -76.74675,-47.49885 18.6864,6.23441 41.73201,9.20517 67.29806,25.0302 -1.43387,6.01957 1.75234,3.1726 -3.04625,8.13411 7.69913,-1.58848 10.94313,-1.14488 9.11393,-11.49315 -11.6782,-8.83304 -52.67328,-29.97318 -66.27718,-31.54514 -13.60389,-1.57197 -25.32297,-3.02119 -30.21948,-0.50411 -16.26277,11.68528 -68.34507,36.93299 -88.82058,44.537 -4.89692,5.33115 -0.0413,17.26226 4.09807,19.73944 -0.19119,-5.76446 -1.03018,-9.17847 3.2039,-16.01988 13.578,-7.34648 47.38136,-17.36275 62.68428,-16.38121 30.60583,1.96307 57.66799,17.10771 76.95103,31.53597 6.83607,7.45083 0.88018,11.73527 1.32027,17.6029 7.59873,-4.07223 12.5733,-12.66238 11.17943,-17.51999 z"
         style="fill:#1e211e;fill-opacity:1;stroke:none"
         inkscape:connector-curvature="0" />
      <g
         inkscape:label="#g2532"
         id="Beak"
         transform="matrix(-1,0,0,1,933.09746,0)">
        <path
           style="fill:#1e211e"
           d="m 106.92491,59.358682 c -36.118172,7.238325 -56.372174,5.544921 -86.549316,4.547311 -24.4628554,-15.640466 -42.777422,-30.94228 -56.4453,-48.063633 10.281628,0.444306 26.4461767,3.734805 50.502015,10.038875 24.055838,6.30407 54.931536,16.693141 92.492601,33.477447 z"
           id="BeakLower"
           sodipodi:nodetypes="cccsc"
           inkscape:label="#path2513"
           inkscape:connector-curvature="0" />
        <path
           sodipodi:nodetypes="cccsc"
           id="BeakUpper"
           d="M 106.46626,58.969584 C 72.681105,34.597414 48.995038,25.88613 23.618916,9.5243578 -5.3967576,8.4537588 -14.165207,12.391112 -35.86397,15.827093 c 27.2767542,4.0602 45.4299281,8.906922 53.795158,11.349642 23.871223,6.970607 46.671745,14.562024 88.535072,31.792849 z"
           style="fill:#879287;fill-opacity:1"
           inkscape:label="#path2530"
           inkscape:connector-curvature="0" />
      </g>
      <g
         inkscape:label="#g2545"
         id="Eye"
         transform="matrix(-1.0992656,0,0,1,952.56061,-2.1485448e-8)">
        <path
           sodipodi:type="arc"
           style="fill:#f0f088;fill-opacity:1;stroke:none"
           id="path2541"
           sodipodi:cx="178.39285"
           sodipodi:cy="38.612183"
           sodipodi:rx="23.75"
           sodipodi:ry="22.678572"
           d="m 202.14285,38.612183 c 0,12.525029 -10.63323,22.678571 -23.75,22.678571 -13.11676,0 -23.75,-10.153542 -23.75,-22.678571 0,-12.52503 10.63324,-22.678572 23.75,-22.678572 13.11677,0 23.75,10.153542 23.75,22.678572 z"
           transform="translate(-6.071427,-1.785711)" />
        <path
           sodipodi:type="arc"
           style="fill:#000000;fill-opacity:1;stroke:none"
           id="path2543"
           sodipodi:cx="175.35715"
           sodipodi:cy="39.326466"
           sodipodi:rx="11.785714"
           sodipodi:ry="11.607142"
           d="m 187.14286,39.326466 c 0,6.410447 -5.27664,11.607142 -11.78571,11.607142 -6.50907,0 -11.78572,-5.196695 -11.78572,-11.607142 0,-6.410448 5.27665,-11.607143 11.78572,-11.607143 6.50907,0 11.78571,5.196695 11.78571,11.607143 z"
           transform="translate(-3.214286,-2.857143)" />
      </g>
      <g
         inkscape:label="#g2560"
         id="Wing"
         transform="matrix(-1,0,0,1,933.09746,0)">
        <path
           style="fill:#262f28;fill-opacity:1"
           d="m 224.61064,171.18382 c -33.14272,21.46807 -67.14606,51.94367 -70.64059,93.83172 3.47071,47.75665 46.78488,86.97299 94.12087,88.66297 49.01244,10.69879 99.01895,1.3435 148.38415,0.65837 48.1149,2.53049 92.88828,22.09646 139.57266,32.13721 56.2592,13.99745 111.20484,35.42584 158.20509,69.94795 10.04963,9.06595 37.30027,20.82954 19.26881,-0.65181 C 670.90419,386.05636 622.30204,318.78309 561.52277,263.73855 504.72243,215.97035 441.02946,173.45936 369.09826,152.80504 320.88366,141.69487 267.92189,146.14113 224.61064,171.18382 z"
           id="WingBackground"
           inkscape:connector-curvature="0" />
        <path
           style="fill:#9a947d;stroke:none"
           d="m 685.42993,435.07639 c -43.42488,-29.82606 -59.89181,-40.35306 -106.40762,-64.91003 12.34997,9.43979 28.17312,15.24582 48.3617,37.05367 -19.45267,-6.01613 -34.27846,-16.74437 -80.54192,-29.35147 -23.13173,-6.30355 1.94059,4.09579 10.35228,10.59149 -26.43858,-5.12105 -134.5232,-51.52459 -139.44466,-51.2193 47.90361,-70.53998 207.79714,28.29481 267.68022,97.83564 z"
           id="WingTip"
           sodipodi:nodetypes="cccsccc"
           inkscape:label="#path1347"
           inkscape:connector-curvature="0" />
        <path
           style="fill:#f5efd7;fill-opacity:0.80327866;fill-rule:evenodd;stroke:none"
           d="M 245.92197,265.65179 C 458.62761,288.78278 534.14837,279.3083 705.899,450.00465 477.76924,117.87282 176.20694,255.76344 245.92197,265.65179 z"
           id="WingStripe"
           inkscape:connector-curvature="0"
           sodipodi:nodetypes="ccc" />
      </g>
      <path
         style="fill:#000000;fill-opacity:0"
         id="path3153"
         d="m 605.46537,195.74721 c 7.92377,-3.12362 16.20664,-5.26114 24.37261,-7.64899 12.07046,-3.65435 24.32025,-6.57594 36.67016,-9.09645 4.47619,-0.90742 8.96369,-1.79254 13.52632,-2.1013 1.11848,-0.0578 2.24191,-0.10015 3.36172,-0.0492 0.3867,0.0143 0.77369,0.0147 1.16059,0.0127 0.22312,-0.006 0.44592,-0.006 0.66903,-0.004 1.19777,0.0366 2.3963,0.0356 3.59451,0.0372 1.46353,0.004 2.92701,-0.004 4.39051,-0.0101 1.3614,-0.15625 1.91552,0.12034 3.08539,0.7189 1.34258,0.70302 2.52943,1.54312 3.60012,2.61623 1.13584,1.1609 2.0797,2.50404 2.77807,3.96911 0.45446,0.79183 0.45544,1.70643 0.66279,2.56358 0.15805,0.58926 0.53031,0.97392 1.01752,1.31806 0.85376,0.46104 1.76511,0.67407 2.71959,0.83314 0.15348,0.0211 0.30695,0.0422 0.46043,0.0633 0,0 -8.70018,6.09466 -8.70018,6.09466 l 0,0 c -0.15412,-0.0325 -0.30825,-0.065 -0.46237,-0.0974 -1.06716,-0.25333 -2.12824,-0.58315 -3.03122,-1.22777 -0.59064,-0.51384 -1.09793,-1.08562 -1.33459,-1.84708 -0.29768,-0.79959 -0.1423,-1.70914 -0.54966,-2.49305 -0.60112,-1.37309 -1.48107,-2.60255 -2.55595,-3.64787 -1.02373,-0.967 -2.18638,-1.69494 -3.45749,-2.30237 -0.90776,-0.41145 -1.81736,-0.35198 -2.8026,-0.33479 -1.4543,-0.006 -2.90858,-0.0139 -4.3629,-0.01 -1.23255,0.002 -2.46537,0.002 -3.6975,0.0378 -0.22303,0.001 -0.44562,0.002 -0.66854,-0.009 -0.39289,-0.01 -0.7856,-0.0216 -1.17804,-0.0436 -1.04462,-0.0417 -2.09023,-0.0274 -3.13431,0.0266 -4.34557,0.2836 -8.64036,1.02689 -12.91988,1.81086 -12.22086,2.32114 -24.3044,5.21477 -36.2064,8.85542 -8.51612,2.57005 -17.15747,4.93597 -25.31373,8.53038 0,0 8.306,-6.56436 8.306,-6.56436 z"
         inkscape:connector-curvature="0"
         transform="matrix(2.3338639,0,0,2.3338639,-676.91342,-488.20278)" />
      <path
         inkscape:label="#path2505"
         sodipodi:nodetypes="ccccc"
         id="Beard"
         d="m 914.52019,193.67865 c -1.30342,-24.83866 0.40159,-74.60958 -0.27419,-81.45927 -22.27859,-1.90318 -66.53347,-9.73356 -82.99069,-16.332123 -14.62127,7.060853 -70.15792,62.480213 -69.75233,70.435353 50.60068,13.49707 97.07781,23.51533 153.01721,27.35604 z"
         style="fill:#693310"
         inkscape:connector-curvature="0" />
    </g>
  </g>
</svg>
